<svg width="241" height="213" viewBox="0 0 241 213" fill="none" xmlns="http://www.w3.org/2000/svg">
<path fill-rule="evenodd" clip-rule="evenodd" d="M122.42 193.876C148.788 194.185 173.331 220.758 197.727 210.747C222.395 200.624 238.154 172.008 240.444 145.443C242.602 120.411 218.496 102.231 209.09 78.9339C200.658 58.0492 207.538 28.1388 188.333 16.3728C168.931 4.48651 145.084 27.8506 122.42 25.8357C95.8132 23.4703 69.3363 -11.4029 47.4035 3.84369C25.6576 18.9603 51.0872 56.0711 42.7594 81.2115C34.343 106.62 -1.14909 120.122 0.0286386 146.862C1.21237 173.738 23.2743 199.345 48.3874 208.992C72.4889 218.25 96.6031 193.572 122.42 193.876Z" fill="#65E782"/>
</svg>