<svg width="60" height="60" viewBox="0 0 60 60" fill="none" xmlns="http://www.w3.org/2000/svg">
<circle cx="30" cy="30" r="30" fill="#5865F2"/>
<path d="M44.4466 16.656C41.6974 15.3974 38.795 14.5044 35.8137 14C35.4058 14.7293 35.0366 15.4796 34.7079 16.2479C31.5322 15.7694 28.3028 15.7694 25.1271 16.2479C24.7982 15.4797 24.4291 14.7294 24.0213 14C21.038 14.5087 18.1338 15.4037 15.3818 16.6626C9.91834 24.7459 8.43729 32.6284 9.17782 40.3989C12.3773 42.7629 15.9585 44.5607 19.7657 45.7143C20.623 44.5613 21.3815 43.3381 22.0334 42.0577C20.7953 41.5953 19.6004 41.0248 18.4624 40.3529C18.7619 40.1356 19.0548 39.9118 19.3378 39.6946C22.6491 41.2518 26.2632 42.0592 29.9224 42.0592C33.5816 42.0592 37.1957 41.2518 40.507 39.6946C40.7934 39.9283 41.0863 40.1521 41.3825 40.3529C40.2423 41.0259 39.0452 41.5975 37.8049 42.061C38.456 43.3408 39.2146 44.563 40.0726 45.7143C43.883 44.5654 47.4669 42.7684 50.6671 40.4022V40.4022C51.5359 31.3909 49.1827 23.5808 44.4466 16.656ZM22.9714 35.6201C20.9078 35.6201 19.2029 33.7474 19.2029 31.4435C19.2029 29.1397 20.8485 27.2505 22.9648 27.2505C25.081 27.2505 26.7727 29.1397 26.7365 31.4435C26.7003 33.7474 25.0745 35.6201 22.9714 35.6201ZM36.8735 35.6201C34.8066 35.6201 33.1083 33.7474 33.1083 31.4435C33.1083 29.1397 34.754 27.2505 36.8735 27.2505C38.9931 27.2505 40.6716 29.1397 40.6354 31.4435C40.5992 33.7474 38.9766 35.6201 36.8735 35.6201Z" fill="white"/>
</svg>