<svg width="60" height="60" viewBox="0 0 60 60" fill="none" xmlns="http://www.w3.org/2000/svg">
<path d="M60 30C60 13.4314 46.5685 0 30 0C13.4314 0 0 13.4314 0 30C0 44.9739 10.9705 57.385 25.3125 59.6356V38.6719H17.6953V30H25.3125V23.3906C25.3125 15.8719 29.7913 11.7188 36.6439 11.7188C39.9262 11.7188 43.3594 12.3047 43.3594 12.3047V19.6875H39.5764C35.8497 19.6875 34.6875 22 34.6875 24.3725V30H43.0078L41.6777 38.6719H34.6875V59.6356C49.0294 57.385 60 44.9739 60 30" fill="#1877F2"/>
<path d="M41.6778 38.6719L43.0079 30H34.6875V24.3725C34.6875 22 35.8497 19.6875 39.5765 19.6875H43.3594V12.3047C43.3594 12.3047 39.9262 11.7188 36.644 11.7188C29.7913 11.7188 25.3125 15.8718 25.3125 23.3906V30H17.6953V38.6719H25.3125V59.6355C26.8632 59.8786 28.4304 60.0004 30 60C31.5947 60 33.1601 59.8752 34.6875 59.6355V38.6719H41.6778Z" fill="white"/>
</svg>