<svg width="686" height="594" viewBox="0 0 686 594" fill="none" xmlns="http://www.w3.org/2000/svg">
<path fill-rule="evenodd" clip-rule="evenodd" d="M281.167 91.9938C332.979 84.6263 377.925 131.868 408.736 170.418C434.744 202.959 421.213 248.234 436.289 286.077C449.421 319.038 479.611 342.824 490.789 376.38C507.994 428.031 547.105 485.642 518.552 533.035C491.138 578.536 419.277 582.886 362.7 588.984C312.565 594.387 260.921 587.551 216.649 565.571C177.179 545.975 163.522 502.245 131.032 473.967C94.2586 441.959 33.0469 432.168 14.0138 389.199C-5.64499 344.819 -1.33987 286.776 31.522 249.317C64.237 212.027 133.945 230.526 177.047 203.364C221.984 175.045 227.203 99.6673 281.167 91.9938Z" fill="#00EBAE"/>
<path d="M366.712 247.964C400.452 297.964 434.567 333.264 447.725 382.664C460.883 432.064 453.176 495.464 419.436 528.464C385.79 561.464 326.205 564.064 279.777 550.064C233.35 536.064 200.174 505.364 161.171 472.364C122.168 439.364 77.3381 404.064 69.5375 360.264C61.643 316.564 90.6837 264.464 129.687 214.464C168.69 164.464 217.655 116.564 258.725 124.964C299.89 133.264 333.066 197.964 366.712 247.964Z" fill="#4137FF"/>
<g clip-path="url(#clip0)">
<path d="M467.049 129.423C468.182 116.117 471.314 103.105 476.318 90.9055C477.713 87.5105 479.248 84.1903 480.924 80.9448C481.008 80.775 481.028 80.5764 480.98 80.3907C480.932 80.205 480.82 80.0468 480.667 79.9495C480.514 79.8521 480.333 79.8233 480.161 79.869C479.989 79.9147 479.84 80.0314 479.746 80.1945C473.652 92.0155 469.384 104.847 467.11 118.177C466.478 121.899 466.003 125.648 465.684 129.423C465.604 130.375 466.968 130.369 467.049 129.423Z" fill="#E6E6E6"/>
<path d="M484.228 83.3288C488.999 83.3288 492.868 79.1138 492.868 73.9144C492.868 68.715 488.999 64.5 484.228 64.5C479.456 64.5 475.588 68.715 475.588 73.9144C475.588 79.1138 479.456 83.3288 484.228 83.3288Z" fill="#E6E6E6"/>
<path d="M467.932 129.673C468.668 121.041 470.7 112.599 473.946 104.685C474.851 102.482 475.847 100.328 476.934 98.2229C476.988 98.1128 477.001 97.9839 476.97 97.8635C476.939 97.743 476.867 97.6404 476.767 97.5773C476.668 97.5141 476.551 97.4954 476.439 97.5251C476.327 97.5547 476.231 97.6304 476.17 97.7362C472.217 105.405 469.447 113.73 467.973 122.377C467.562 124.792 467.254 127.224 467.047 129.673C466.995 130.291 467.88 130.287 467.932 129.673Z" fill="#E6E6E6"/>
<path d="M479.077 99.7695C482.173 99.7695 484.682 97.0351 484.682 93.6619C484.682 90.2888 482.173 87.5544 479.077 87.5544C475.982 87.5544 473.472 90.2888 473.472 93.6619C473.472 97.0351 475.982 99.7695 479.077 99.7695Z" fill="#E6E6E6"/>
<path d="M466.815 129.096C462.523 121.797 459.36 113.78 457.452 105.364C456.923 103.021 456.492 100.655 456.161 98.266C456.141 98.1426 456.079 98.0322 455.987 97.958C455.894 97.8838 455.779 97.8516 455.665 97.8682C455.551 97.8849 455.448 97.9491 455.377 98.0472C455.305 98.1454 455.272 98.2699 455.283 98.3944C456.495 107.09 459.011 115.51 462.729 123.317C463.768 125.496 464.898 127.62 466.118 129.689C466.425 130.212 467.121 129.615 466.815 129.096Z" fill="#E6E6E6"/>
<path d="M455.276 99.3408C458.372 99.3408 460.881 96.6063 460.881 93.2332C460.881 89.8601 458.372 87.1257 455.276 87.1257C452.181 87.1257 449.671 89.8601 449.671 93.2332C449.671 96.6063 452.181 99.3408 455.276 99.3408Z" fill="#E6E6E6"/>
<path d="M449.608 134.5V122.5C449.61 121.307 450.045 120.163 450.819 119.319C451.593 118.476 452.643 118.001 453.738 118H479.434C480.529 118.001 481.579 118.476 482.353 119.319C483.128 120.163 483.563 121.307 483.564 122.5V134.5C483.563 135.693 483.128 136.837 482.353 137.68C481.579 138.524 480.529 138.999 479.434 139H453.738C452.643 138.999 451.593 138.524 450.819 137.68C450.045 136.837 449.61 135.693 449.608 134.5Z" fill="#F2F2F2"/>
<path d="M478.517 58H467.504C466.409 57.9987 465.359 57.5241 464.585 56.6805C463.811 55.8369 463.375 54.6931 463.374 53.5V4.49999C463.375 3.30693 463.811 2.16313 464.585 1.31951C465.359 0.475889 466.409 0.00133693 467.504 -7.62939e-06H478.517C479.612 0.00133693 480.661 0.475889 481.436 1.31951C482.21 2.16313 482.645 3.30693 482.647 4.49999V53.5C482.645 54.6931 482.21 55.8369 481.436 56.6805C480.661 57.5241 479.612 57.9987 478.517 58Z" fill="#F2F2F2"/>
<path d="M482.188 9.5H463.833V13.5H482.188V9.5Z" fill="#CCCCCC"/>
<path d="M482.188 40.5H463.833V44.5H482.188V40.5Z" fill="#CCCCCC"/>
<path d="M506.049 58H495.036C493.941 57.9987 492.891 57.5241 492.117 56.6805C491.343 55.8369 490.907 54.6931 490.906 53.5V4.49999C490.907 3.30693 491.343 2.16313 492.117 1.31951C492.891 0.475889 493.941 0.00133693 495.036 -7.62939e-06H506.049C507.144 0.00133693 508.193 0.475889 508.967 1.31951C509.742 2.16313 510.177 3.30693 510.178 4.49999V53.5C510.177 54.6931 509.742 55.8369 508.967 56.6805C508.193 57.5241 507.144 57.9987 506.049 58Z" fill="#F2F2F2"/>
<path d="M509.72 9.5H491.365V13.5H509.72V9.5Z" fill="#CCCCCC"/>
<path d="M509.72 40.5H491.365V44.5H509.72V40.5Z" fill="#CCCCCC"/>
<path d="M533.581 58H522.568C521.473 57.9987 520.423 57.5241 519.649 56.6805C518.875 55.8369 518.439 54.6931 518.438 53.5V4.49999C518.439 3.30693 518.875 2.16313 519.649 1.31951C520.423 0.475889 521.473 0.00133693 522.568 -7.62939e-06H533.581C534.676 0.00133693 535.725 0.475889 536.499 1.31951C537.274 2.16313 537.709 3.30693 537.71 4.49999V53.5C537.709 54.6931 537.274 55.8369 536.499 56.6805C535.725 57.5241 534.676 57.9987 533.581 58Z" fill="#F2F2F2"/>
<path d="M537.251 9.5H518.897V13.5H537.251V9.5Z" fill="#CCCCCC"/>
<path d="M537.251 40.5H518.897V44.5H537.251V40.5Z" fill="#CCCCCC"/>
<path d="M548.264 139H537.251C536.157 138.999 535.107 138.524 534.333 137.68C533.558 136.837 533.123 135.693 533.122 134.5V85.5C533.123 84.3069 533.558 83.1631 534.333 82.3195C535.107 81.4759 536.157 81.0014 537.251 81H548.264C549.359 81.0014 550.409 81.4759 551.183 82.3195C551.957 83.1631 552.393 84.3069 552.394 85.5V134.5C552.393 135.693 551.957 136.837 551.183 137.68C550.409 138.524 549.359 138.999 548.264 139Z" fill="#F2F2F2"/>
<path d="M551.935 90.5H533.581V94.5H551.935V90.5Z" fill="#CCCCCC"/>
<path d="M551.935 121.5H533.581V125.5H551.935V121.5Z" fill="#CCCCCC"/>
<path d="M575.796 139H564.783C563.689 138.999 562.639 138.524 561.865 137.68C561.09 136.837 560.655 135.693 560.654 134.5V85.5C560.655 84.3069 561.09 83.1631 561.865 82.3195C562.639 81.4759 563.689 81.0014 564.783 81H575.796C576.891 81.0014 577.941 81.4759 578.715 82.3195C579.489 83.1631 579.925 84.3069 579.926 85.5V134.5C579.925 135.693 579.489 136.837 578.715 137.68C577.941 138.524 576.891 138.999 575.796 139Z" fill="#F2F2F2"/>
<path d="M579.467 90.5H561.113V94.5H579.467V90.5Z" fill="#CCCCCC"/>
<path d="M579.467 121.5H561.113V125.5H579.467V121.5Z" fill="#CCCCCC"/>
<path d="M603.328 139H592.315C591.22 138.999 590.171 138.524 589.396 137.68C588.622 136.837 588.187 135.693 588.186 134.5V85.5C588.187 84.3069 588.622 83.1631 589.396 82.3195C590.171 81.4759 591.22 81.0014 592.315 81H603.328C604.423 81.0014 605.473 81.4759 606.247 82.3195C607.021 83.1631 607.457 84.3069 607.458 85.5V134.5C607.457 135.693 607.021 136.837 606.247 137.68C605.473 138.524 604.423 138.999 603.328 139Z" fill="#F2F2F2"/>
<path d="M606.999 90.5H588.644V94.5H606.999V90.5Z" fill="#CCCCCC"/>
<path d="M606.999 121.5H588.644V125.5H606.999V121.5Z" fill="#CCCCCC"/>
<path d="M475.763 220H464.751C463.656 219.999 462.606 219.524 461.832 218.68C461.058 217.837 460.622 216.693 460.621 215.5V166.5C460.622 165.307 461.058 164.163 461.832 163.32C462.606 162.476 463.656 162.001 464.751 162H475.763C476.858 162.001 477.908 162.476 478.682 163.32C479.457 164.163 479.892 165.307 479.893 166.5V215.5C479.892 216.693 479.457 217.837 478.682 218.68C477.908 219.524 476.858 219.999 475.763 220Z" fill="#F2F2F2"/>
<path d="M479.434 171.5H461.08V175.5H479.434V171.5Z" fill="#CCCCCC"/>
<path d="M479.434 202.5H461.08V206.5H479.434V202.5Z" fill="#CCCCCC"/>
<path d="M503.295 220H492.283C491.188 219.999 490.138 219.524 489.364 218.68C488.59 217.837 488.154 216.693 488.153 215.5V166.5C488.154 165.307 488.59 164.163 489.364 163.32C490.138 162.476 491.188 162.001 492.283 162H503.295C504.39 162.001 505.44 162.476 506.214 163.32C506.989 164.163 507.424 165.307 507.425 166.5V215.5C507.424 216.693 506.989 217.837 506.214 218.68C505.44 219.524 504.39 219.999 503.295 220Z" fill="#F2F2F2"/>
<path d="M506.966 171.5H488.612V175.5H506.966V171.5Z" fill="#CCCCCC"/>
<path d="M506.966 202.5H488.612V206.5H506.966V202.5Z" fill="#CCCCCC"/>
<path d="M530.827 220H519.815C518.72 219.999 517.67 219.524 516.896 218.68C516.122 217.837 515.686 216.693 515.685 215.5V166.5C515.686 165.307 516.122 164.163 516.896 163.32C517.67 162.476 518.72 162.001 519.815 162H530.827C531.922 162.001 532.972 162.476 533.746 163.32C534.52 164.163 534.956 165.307 534.957 166.5V215.5C534.956 216.693 534.52 217.837 533.746 218.68C532.972 219.524 531.922 219.999 530.827 220Z" fill="#F2F2F2"/>
<path d="M534.498 171.5H516.144V175.5H534.498V171.5Z" fill="#CCCCCC"/>
<path d="M534.498 202.5H516.144V206.5H534.498V202.5Z" fill="#CCCCCC"/>
<path d="M561.112 58H550.1C549.005 57.9987 547.955 57.5241 547.181 56.6805C546.407 55.8369 545.971 54.6931 545.97 53.5V4.49999C545.971 3.30693 546.407 2.16313 547.181 1.31951C547.955 0.475889 549.005 0.00133693 550.1 -7.62939e-06H561.112C562.207 0.00133693 563.257 0.475889 564.031 1.31951C564.806 2.16313 565.241 3.30693 565.242 4.49999V53.5C565.241 54.6931 564.806 55.8369 564.031 56.6805C563.257 57.5241 562.207 57.9987 561.112 58Z" fill="#F2F2F2"/>
<path d="M564.783 9.5H546.429V13.5H564.783V9.5Z" fill="#CCCCCC"/>
<path d="M564.783 40.5H546.429V44.5H564.783V40.5Z" fill="#CCCCCC"/>
<path d="M588.644 58H577.632C576.537 57.9987 575.487 57.5241 574.713 56.6805C573.938 55.8369 573.503 54.6931 573.502 53.5V4.49999C573.503 3.30693 573.938 2.16313 574.713 1.31951C575.487 0.475889 576.537 0.00133693 577.632 -7.62939e-06H588.644C589.739 0.00133693 590.789 0.475889 591.563 1.31951C592.337 2.16313 592.773 3.30693 592.774 4.49999V53.5C592.773 54.6931 592.337 55.8369 591.563 56.6805C590.789 57.5241 589.739 57.9987 588.644 58Z" fill="#F2F2F2"/>
<path d="M592.315 9.5H573.961V13.5H592.315V9.5Z" fill="#CCCCCC"/>
<path d="M592.315 40.5H573.961V44.5H592.315V40.5Z" fill="#CCCCCC"/>
<path d="M616.176 58H605.164C604.069 57.9987 603.019 57.5241 602.245 56.6805C601.47 55.8369 601.035 54.6931 601.034 53.5V4.49999C601.035 3.30693 601.47 2.16313 602.245 1.31951C603.019 0.475889 604.069 0.00133693 605.164 -7.62939e-06H616.176C617.271 0.00133693 618.321 0.475889 619.095 1.31951C619.869 2.16313 620.305 3.30693 620.306 4.49999V53.5C620.305 54.6931 619.869 55.8369 619.095 56.6805C618.321 57.5241 617.271 57.9987 616.176 58Z" fill="#F2F2F2"/>
<path d="M619.847 9.5H601.493V13.5H619.847V9.5Z" fill="#CCCCCC"/>
<path d="M619.847 40.5H601.493V44.5H619.847V40.5Z" fill="#CCCCCC"/>
<path d="M643.708 58H632.695C631.6 57.9987 630.551 57.5241 629.776 56.6805C629.002 55.8369 628.567 54.6931 628.566 53.5V4.49999C628.567 3.30693 629.002 2.16313 629.776 1.31951C630.551 0.475889 631.6 0.00133693 632.695 -7.62939e-06H643.708C644.803 0.00133693 645.853 0.475889 646.627 1.31951C647.401 2.16313 647.837 3.30693 647.838 4.49999V53.5C647.837 54.6931 647.401 55.8369 646.627 56.6805C645.853 57.5241 644.803 57.9987 643.708 58Z" fill="#F2F2F2"/>
<path d="M647.379 9.5H629.025V13.5H647.379V9.5Z" fill="#CCCCCC"/>
<path d="M647.379 40.5H629.025V44.5H647.379V40.5Z" fill="#CCCCCC"/>
<path d="M684.952 59.5H423.399C423.155 59.5 422.922 59.3946 422.75 59.2071C422.578 59.0196 422.481 58.7652 422.481 58.5C422.481 58.2348 422.578 57.9804 422.75 57.7929C422.922 57.6053 423.155 57.5 423.399 57.5H684.952C685.195 57.5 685.429 57.6053 685.601 57.7929C685.773 57.9804 685.87 58.2348 685.87 58.5C685.87 58.7652 685.773 59.0196 685.601 59.2071C685.429 59.3946 685.195 59.5 684.952 59.5Z" fill="#CCCCCC"/>
<path d="M684.952 140.5H423.399C423.155 140.5 422.922 140.395 422.75 140.207C422.578 140.02 422.481 139.765 422.481 139.5C422.481 139.235 422.578 138.98 422.75 138.793C422.922 138.605 423.155 138.5 423.399 138.5H684.952C685.195 138.5 685.429 138.605 685.601 138.793C685.773 138.98 685.87 139.235 685.87 139.5C685.87 139.765 685.773 140.02 685.601 140.207C685.429 140.395 685.195 140.5 684.952 140.5Z" fill="#CCCCCC"/>
<path d="M684.952 221.5H423.399C423.155 221.5 422.922 221.395 422.75 221.207C422.578 221.02 422.481 220.765 422.481 220.5C422.481 220.235 422.578 219.98 422.75 219.793C422.922 219.605 423.155 219.5 423.399 219.5H684.952C685.195 219.5 685.429 219.605 685.601 219.793C685.773 219.98 685.87 220.235 685.87 220.5C685.87 220.765 685.773 221.02 685.601 221.207C685.429 221.395 685.195 221.5 684.952 221.5Z" fill="#CCCCCC"/>
<path d="M618.474 210.423C619.608 197.117 622.74 184.105 627.744 171.906C629.138 168.511 630.674 165.19 632.349 161.945C632.433 161.775 632.453 161.576 632.405 161.391C632.358 161.205 632.245 161.047 632.093 160.949C631.94 160.852 631.758 160.823 631.586 160.869C631.414 160.915 631.266 161.031 631.171 161.195C625.078 173.015 620.809 185.847 618.536 199.177C617.904 202.899 617.428 206.648 617.11 210.423C617.029 211.375 618.394 211.369 618.474 210.423Z" fill="#E6E6E6"/>
<path d="M635.653 164.329C640.425 164.329 644.293 160.114 644.293 154.914C644.293 149.715 640.425 145.5 635.653 145.5C630.881 145.5 627.013 149.715 627.013 154.914C627.013 160.114 630.881 164.329 635.653 164.329Z" fill="#E6E6E6"/>
<path d="M619.358 210.673C620.094 202.041 622.125 193.599 625.372 185.685C626.276 183.482 627.272 181.328 628.359 179.223C628.414 179.113 628.427 178.984 628.396 178.863C628.365 178.743 628.292 178.64 628.193 178.577C628.094 178.514 627.976 178.495 627.865 178.525C627.753 178.555 627.656 178.63 627.595 178.736C623.642 186.405 620.873 194.73 619.398 203.377C618.988 205.792 618.679 208.224 618.473 210.673C618.42 211.291 619.306 211.287 619.358 210.673Z" fill="#E6E6E6"/>
<path d="M630.503 180.77C633.598 180.77 636.108 178.035 636.108 174.662C636.108 171.289 633.598 168.554 630.503 168.554C627.407 168.554 624.898 171.289 624.898 174.662C624.898 178.035 627.407 180.77 630.503 180.77Z" fill="#E6E6E6"/>
<path d="M618.241 210.096C613.949 202.797 610.786 194.78 608.878 186.364C608.348 184.021 607.918 181.655 607.586 179.266C607.567 179.143 607.505 179.032 607.412 178.958C607.32 178.884 607.204 178.852 607.091 178.868C606.977 178.885 606.873 178.949 606.802 179.047C606.731 179.145 606.697 179.27 606.709 179.394C607.921 188.09 610.436 196.51 614.154 204.317C615.194 206.496 616.324 208.62 617.543 210.689C617.85 211.212 618.546 210.615 618.241 210.096Z" fill="#E6E6E6"/>
<path d="M606.702 180.341C609.797 180.341 612.307 177.606 612.307 174.233C612.307 170.86 609.797 168.126 606.702 168.126C603.606 168.126 601.097 170.86 601.097 174.233C601.097 177.606 603.606 180.341 606.702 180.341Z" fill="#E6E6E6"/>
<path d="M601.034 215.5V203.5C601.035 202.307 601.47 201.163 602.245 200.32C603.019 199.476 604.069 199.001 605.163 199H630.86C631.955 199.001 633.005 199.476 633.779 200.32C634.553 201.163 634.989 202.307 634.99 203.5V215.5C634.989 216.693 634.553 217.837 633.779 218.68C633.005 219.524 631.955 219.999 630.86 220H605.163C604.069 219.999 603.019 219.524 602.245 218.68C601.47 217.837 601.035 216.693 601.034 215.5Z" fill="#F2F2F2"/>
<path d="M435.329 363.5H85.674C85.4306 363.5 85.1971 363.395 85.025 363.207C84.8529 363.02 84.7562 362.765 84.7562 362.5C84.7562 362.235 84.8529 361.98 85.025 361.793C85.1971 361.605 85.4306 361.5 85.674 361.5H435.329C435.573 361.5 435.806 361.605 435.978 361.793C436.15 361.98 436.247 362.235 436.247 362.5C436.247 362.765 436.15 363.02 435.978 363.207C435.806 363.395 435.573 363.5 435.329 363.5Z" fill="#3F3D56"/>
<path d="M267.439 232.5C281.124 232.5 292.217 220.412 292.217 205.5C292.217 190.588 281.124 178.5 267.439 178.5C253.754 178.5 242.66 190.588 242.66 205.5C242.66 220.412 253.754 232.5 267.439 232.5Z" fill="#2F2E41"/>
<path d="M243.895 378.826L243.239 366.588L286.249 358.003L287.219 376.067L243.895 378.826Z" fill="#FFB8B8"/>
<path d="M245.979 357.641L247.245 381.245L233.606 382.113L231.543 343.648C233.334 343.534 235.128 343.806 236.823 344.447C238.518 345.089 240.08 346.087 241.42 347.387C242.761 348.686 243.853 350.261 244.636 352.02C245.418 353.779 245.874 355.689 245.979 357.641Z" fill="#2F2E41"/>
<path d="M262.602 378.714L255.458 388.185L218.532 362.666L229.076 348.688L262.602 378.714Z" fill="#FFB8B8"/>
<path d="M247.871 392.726L261.649 374.46L272.204 383.913L249.751 413.679C248.365 412.438 247.217 410.911 246.372 409.187C245.527 407.462 245.003 405.573 244.828 403.627C244.654 401.681 244.833 399.717 245.355 397.847C245.877 395.976 246.732 394.236 247.871 392.726Z" fill="#2F2E41"/>
<path d="M242.043 334.67L237.161 359.749C237.048 360.326 237.055 360.924 237.179 361.498C237.304 362.073 237.543 362.61 237.881 363.072C238.219 363.533 238.646 363.908 239.132 364.168C239.618 364.429 240.151 364.569 240.693 364.578L288.688 365.422C289.229 365.431 289.765 365.31 290.258 365.068C290.751 364.825 291.189 364.467 291.54 364.018C291.891 363.569 292.147 363.042 292.289 362.473C292.431 361.904 292.456 361.308 292.362 360.727L288.164 334.805C288.014 333.879 287.57 333.04 286.908 332.436C286.247 331.831 285.412 331.5 284.549 331.5H245.634C244.793 331.5 243.977 331.815 243.323 332.392C242.669 332.969 242.217 333.773 242.043 334.67Z" fill="#2F2E41"/>
<path d="M250.002 343.5C250.002 343.5 203.198 311.5 194.02 328.5C189.432 337 191.726 345.25 195.167 351.375C198.361 356.952 202.946 361.423 208.385 364.266L246.331 384.5L260.097 368.5L250.92 359.5L250.002 343.5Z" fill="#2F2E41"/>
<path d="M273.863 338.5C273.863 338.5 334.433 319.5 322.503 355.5C310.572 391.5 265.603 377.5 265.603 377.5L261.015 362.5L276.616 350.5L273.863 338.5Z" fill="#2F2E41"/>
<path d="M267.749 236.226C280.198 236.226 290.29 225.23 290.29 211.665C290.29 198.101 280.198 187.104 267.749 187.104C255.301 187.104 245.209 198.101 245.209 211.665C245.209 225.23 255.301 236.226 267.749 236.226Z" fill="#FFB8B8"/>
<path d="M268.931 342.469C259.564 342.314 250.246 340.977 241.163 338.482L240.894 338.402L228.316 275.357C227.185 269.817 227.954 264.018 230.479 259.054C233.004 254.09 237.11 250.305 242.021 248.414C257.191 242.483 273.725 242.124 289.1 247.39H289.1C294.259 249.201 298.602 253.066 301.261 258.212C303.921 263.358 304.702 269.408 303.449 275.154L289.4 338.35L289.202 338.452C283.364 341.466 276.063 342.469 268.931 342.469Z" fill="#CCCCCC"/>
<path d="M252.035 347.366C252.492 345.983 253.221 344.726 254.172 343.683C255.123 342.64 256.272 341.837 257.539 341.331C258.806 340.824 260.159 340.627 261.503 340.752C262.847 340.876 264.15 341.321 265.319 342.054L290.086 318.63L292.327 337.038L268.464 356.46C267.204 358.519 265.295 360.003 263.097 360.631C260.9 361.258 258.568 360.986 256.543 359.865C254.518 358.744 252.94 356.853 252.109 354.549C251.279 352.245 251.252 349.69 252.035 347.366Z" fill="#FFB8B8"/>
<path d="M275.655 352.476C275.252 352.475 274.852 352.411 274.466 352.285C273.839 352.086 273.265 351.727 272.792 351.237C272.319 350.747 271.961 350.141 271.747 349.469L268.758 340.24C268.478 339.387 268.442 338.462 268.656 337.587C268.869 336.711 269.321 335.927 269.953 335.338L303.696 313.264L290.395 248.603L290.733 248.514C290.871 248.477 304.499 245.097 310.084 261.324C313.995 272.689 328.468 297.401 327.447 314.101C327.253 317.441 326.031 320.612 323.979 323.103C321.927 325.594 319.165 327.259 316.138 327.828L278.155 351.541C277.44 352.145 276.561 352.474 275.655 352.476Z" fill="#CCCCCC"/>
<path d="M279.44 345.173C278.983 343.789 278.254 342.532 277.303 341.489C276.352 340.447 275.202 339.644 273.936 339.137C272.669 338.631 271.316 338.433 269.972 338.558C268.628 338.683 267.325 339.128 266.155 339.86L241.389 316.436L239.148 334.844L263.01 354.267C264.271 356.326 266.18 357.81 268.378 358.437C270.575 359.065 272.907 358.792 274.932 357.671C276.957 356.55 278.535 354.659 279.366 352.355C280.196 350.052 280.223 347.496 279.44 345.173Z" fill="#FFB8B8"/>
<path d="M258.304 352.476C257.399 352.474 256.52 352.145 255.805 351.541L215.068 329.828C212.041 329.259 209.279 327.594 207.227 325.103C205.176 322.612 203.954 319.441 203.76 316.101C202.739 299.401 219.965 272.689 223.876 261.324C229.46 245.097 243.089 248.476 243.227 248.514L243.565 248.603L227.51 315.264L264.007 335.338C264.639 335.927 265.091 336.711 265.304 337.587C265.518 338.462 265.482 339.387 265.202 340.24L262.213 349.469C261.999 350.141 261.641 350.747 261.168 351.237C260.695 351.727 260.121 352.086 259.494 352.285C259.108 352.411 258.707 352.475 258.304 352.476Z" fill="#CCCCCC"/>
<path d="M306.901 362.5H225.223C223.52 362.498 221.887 361.76 220.683 360.447C219.479 359.135 218.801 357.356 218.799 355.5V306.5C218.801 304.644 219.479 302.865 220.683 301.553C221.887 300.24 223.52 299.502 225.223 299.5H306.901C308.604 299.502 310.237 300.24 311.442 301.553C312.646 302.865 313.323 304.644 313.325 306.5V355.5C313.323 357.356 312.646 359.135 311.442 360.447C310.237 361.76 308.604 362.498 306.901 362.5Z" fill="#6C63FF"/>
<path d="M266.062 337C269.103 337 271.569 334.314 271.569 331C271.569 327.686 269.103 325 266.062 325C263.021 325 260.556 327.686 260.556 331C260.556 334.314 263.021 337 266.062 337Z" fill="white"/>
<path d="M244.983 210.666C243.647 206.973 245.839 202.573 249.091 200.785C252.342 198.996 256.266 199.336 259.744 200.515C262.667 201.506 265.406 203.041 268.258 204.254C271.069 205.611 274.14 206.207 277.208 205.99C280.25 205.616 283.277 203.758 284.522 200.71C285.812 197.552 284.934 193.697 282.948 191.002C280.834 188.396 278.098 186.48 275.044 185.467C268.338 182.892 260.592 182.817 254.366 186.559C248.14 190.302 243.909 198.27 245.196 205.889" fill="#2F2E41"/>
<path d="M114.732 351.818C115.865 338.513 118.997 325.501 124.001 313.301C125.396 309.906 126.931 306.586 128.606 303.34C128.69 303.171 128.711 302.972 128.663 302.786C128.615 302.601 128.503 302.443 128.35 302.345C128.197 302.248 128.016 302.219 127.844 302.265C127.672 302.31 127.523 302.427 127.428 302.59C121.335 314.411 117.067 327.243 114.793 340.573C114.161 344.295 113.686 348.044 113.367 351.818C113.287 352.771 114.651 352.765 114.732 351.818Z" fill="#E6E6E6"/>
<path d="M131.911 305.724C136.682 305.724 140.55 301.509 140.55 296.31C140.55 291.111 136.682 286.896 131.911 286.896C127.139 286.896 123.271 291.111 123.271 296.31C123.271 301.509 127.139 305.724 131.911 305.724Z" fill="#6C63FF"/>
<path d="M115.615 352.069C116.351 343.437 118.382 334.995 121.629 327.081C122.534 324.878 123.53 322.724 124.617 320.619C124.671 320.508 124.684 320.38 124.653 320.259C124.622 320.139 124.549 320.036 124.45 319.973C124.351 319.91 124.233 319.891 124.122 319.921C124.01 319.95 123.914 320.026 123.852 320.132C119.9 327.801 117.13 336.125 115.655 344.773C115.245 347.188 114.937 349.62 114.73 352.069C114.678 352.686 115.563 352.682 115.615 352.069H115.615Z" fill="#E6E6E6"/>
<path d="M126.76 322.165C129.856 322.165 132.365 319.431 132.365 316.058C132.365 312.685 129.856 309.95 126.76 309.95C123.665 309.95 121.155 312.685 121.155 316.058C121.155 319.431 123.665 322.165 126.76 322.165Z" fill="#6C63FF"/>
<path d="M114.498 351.492C110.206 344.193 107.043 336.175 105.135 327.759C104.605 325.416 104.175 323.05 103.843 320.662C103.824 320.538 103.762 320.428 103.669 320.354C103.577 320.279 103.462 320.247 103.348 320.264C103.234 320.281 103.131 320.345 103.059 320.443C102.988 320.541 102.955 320.666 102.966 320.79C104.178 329.486 106.694 337.906 110.412 345.713C111.451 347.892 112.581 350.016 113.801 352.085C114.108 352.607 114.804 352.011 114.498 351.492Z" fill="#E6E6E6"/>
<path d="M102.959 321.736C106.055 321.736 108.564 319.002 108.564 315.629C108.564 312.256 106.055 309.521 102.959 309.521C99.8635 309.521 97.354 312.256 97.354 315.629C97.354 319.002 99.8635 321.736 102.959 321.736Z" fill="#6C63FF"/>
<path d="M97.2911 356.896V344.896C97.2923 343.703 97.7279 342.559 98.5021 341.715C99.2763 340.872 100.326 340.397 101.421 340.396H127.117C128.212 340.397 129.262 340.872 130.036 341.715C130.81 342.559 131.246 343.703 131.247 344.896V356.896C131.246 358.089 130.81 359.233 130.036 360.076C129.262 360.92 128.212 361.394 127.117 361.396H101.421C100.326 361.394 99.2763 360.92 98.5021 360.076C97.7279 359.233 97.2923 358.089 97.2911 356.896Z" fill="#F2F2F2"/>
<path d="M373.299 370.901C373.299 377.478 368.406 380.467 362.37 380.467C356.334 380.467 351.44 377.478 351.44 370.901C351.44 364.324 353.869 356.649 362.37 359.296C370.87 355.326 373.299 364.324 373.299 370.901Z" fill="#FF6584"/>
<path d="M361.837 362.377C361.412 362.378 361.002 362.21 360.682 361.904C360.363 361.599 360.156 361.177 360.102 360.718C359.74 357.436 357.745 351.01 356.905 348.399L356.905 348.398C356.819 348.139 356.793 347.861 356.829 347.588C356.864 347.315 356.959 347.056 357.107 346.832C357.248 346.632 357.426 346.467 357.63 346.347C357.833 346.227 358.058 346.156 358.289 346.138C358.52 346.12 358.752 346.155 358.969 346.241C359.187 346.328 359.385 346.464 359.551 346.64C359.699 346.809 359.814 347.009 359.887 347.229C359.961 347.449 359.993 347.682 359.981 347.916C359.816 351.267 362.057 356.681 363.408 359.61C363.536 359.886 363.6 360.192 363.595 360.501C363.59 360.81 363.516 361.114 363.38 361.385C363.243 361.656 363.049 361.887 362.812 362.058C362.576 362.229 362.305 362.335 362.023 362.366C361.961 362.374 361.899 362.377 361.837 362.377Z" fill="#3F3D56"/>
<path d="M369.924 354.985C373.718 351.602 370.742 344.678 365.993 346.007C365.355 346.173 364.766 346.516 364.283 347.001C361.37 349.999 360.919 357.67 360.919 357.67C360.919 357.67 366.062 358.43 369.924 354.985Z" fill="#3F3D56"/>
</g>
<defs>
<clipPath id="clip0">
<rect width="601.113" height="413.68" fill="white" transform="translate(84.7562)"/>
</clipPath>
</defs>
</svg>