<svg width="432" height="397" viewBox="0 0 432 397" fill="none" xmlns="http://www.w3.org/2000/svg">
<path fill-rule="evenodd" clip-rule="evenodd" d="M177.095 61.5099C209.729 56.5875 238.041 88.1699 257.449 113.941C273.832 135.695 265.311 165.96 274.809 191.258C283.082 213.293 302.098 229.194 309.14 251.626C319.979 286.155 344.617 324.668 326.634 356.348C309.37 386.763 264.107 389.668 228.472 393.741C196.894 397.35 164.366 392.778 136.479 378.083C111.618 364.981 103.014 335.748 82.5491 316.843C59.3854 295.445 20.8303 288.896 8.84016 260.172C-3.54411 230.504 -0.835139 191.703 19.8615 166.665C40.4656 141.739 84.3725 154.108 111.52 135.953C139.822 117.025 143.106 66.6368 177.095 61.5099Z" fill="#00EBAE"/>
<path d="M230.976 165.758C252.227 199.182 273.715 222.78 282.003 255.803C290.29 288.825 285.436 331.207 264.185 353.267C242.993 375.327 205.463 377.065 176.22 367.706C146.977 358.347 126.081 337.825 101.515 315.765C76.9483 293.705 48.7119 270.108 43.7987 240.829C38.8262 211.616 57.1177 176.788 81.684 143.364C106.25 109.94 137.091 77.9203 162.96 83.5355C188.888 89.0839 209.784 132.335 230.976 165.758Z" fill="#4137FF"/>
<g clip-path="url(#clip0)">
<path d="M294.174 86.5164C294.888 77.622 296.86 68.9236 300.012 60.7684C300.891 58.4989 301.858 56.2794 302.913 54.1099C302.966 53.9964 302.979 53.8636 302.949 53.7395C302.919 53.6154 302.848 53.5096 302.752 53.4445C302.655 53.3795 302.541 53.3602 302.433 53.3908C302.324 53.4213 302.231 53.4993 302.171 53.6084C298.333 61.5104 295.645 70.0882 294.213 78.9987C293.814 81.4871 293.515 83.993 293.315 86.5164C293.264 87.1529 294.123 87.1489 294.174 86.5164V86.5164Z" fill="#E6E6E6"/>
<path d="M304.994 55.7036C308 55.7036 310.436 52.8859 310.436 49.4102C310.436 45.9345 308 43.1169 304.994 43.1169C301.989 43.1169 299.552 45.9345 299.552 49.4102C299.552 52.8859 301.989 55.7036 304.994 55.7036Z" fill="#E6E6E6"/>
<path d="M294.731 86.6836C295.194 80.9133 296.474 75.2703 298.518 69.9797C299.088 68.5073 299.716 67.0674 300.4 65.6599C300.435 65.5863 300.443 65.5002 300.423 65.4197C300.404 65.3391 300.358 65.2706 300.295 65.2283C300.233 65.1861 300.159 65.1736 300.089 65.1935C300.018 65.2133 299.958 65.2639 299.919 65.3346C297.429 70.461 295.685 76.0258 294.756 81.8065C294.498 83.4208 294.303 85.0465 294.173 86.6836C294.14 87.0965 294.698 87.0939 294.731 86.6836V86.6836Z" fill="#E6E6E6"/>
<path d="M301.75 66.6938C303.7 66.6938 305.281 64.8659 305.281 62.611C305.281 60.3562 303.7 58.5283 301.75 58.5283C299.801 58.5283 298.22 60.3562 298.22 62.611C298.22 64.8659 299.801 66.6938 301.75 66.6938Z" fill="#E6E6E6"/>
<path d="M294.027 86.2981C291.324 81.4189 289.331 76.0593 288.13 70.4333C287.796 68.867 287.525 67.2855 287.316 65.6888C287.304 65.6063 287.265 65.5325 287.207 65.4828C287.148 65.4332 287.076 65.4117 287.004 65.4228C286.932 65.434 286.867 65.4769 286.822 65.5425C286.777 65.6081 286.756 65.6914 286.764 65.7746C287.527 71.5876 289.111 77.216 291.453 82.4347C292.108 83.8914 292.819 85.3114 293.588 86.6946C293.781 87.0437 294.22 86.645 294.027 86.2981Z" fill="#E6E6E6"/>
<path d="M286.759 66.4072C288.709 66.4072 290.289 64.5793 290.289 62.3244C290.289 60.0696 288.709 58.2417 286.759 58.2417C284.809 58.2417 283.229 60.0696 283.229 62.3244C283.229 64.5793 284.809 66.4072 286.759 66.4072Z" fill="#E6E6E6"/>
<path d="M283.189 89.9104V81.8887C283.19 81.0911 283.464 80.3265 283.952 79.7626C284.439 79.1986 285.101 78.8814 285.79 78.8805H301.975C302.665 78.8814 303.326 79.1986 303.814 79.7626C304.301 80.3265 304.576 81.0911 304.576 81.8887V89.9104C304.576 90.708 304.301 91.4726 303.814 92.0365C303.326 92.6004 302.665 92.9177 301.975 92.9186H285.79C285.101 92.9177 284.439 92.6004 283.952 92.0365C283.464 91.4726 283.19 90.708 283.189 89.9104Z" fill="#F2F2F2"/>
<path d="M301.397 38.7718H294.461C293.771 38.7709 293.11 38.4537 292.622 37.8897C292.135 37.3258 291.86 36.5612 291.86 35.7636V3.00816C291.86 2.21062 292.135 1.44601 292.622 0.882071C293.11 0.318127 293.771 0.000898809 294.461 0H301.397C302.087 0.000898809 302.748 0.318127 303.236 0.882071C303.723 1.44601 303.998 2.21062 303.998 3.00816V35.7636C303.998 36.5612 303.723 37.3258 303.236 37.8897C302.748 38.4537 302.087 38.7709 301.397 38.7718V38.7718Z" fill="#F2F2F2"/>
<path d="M303.709 6.35056H292.148V9.02447H303.709V6.35056Z" fill="#CCCCCC"/>
<path d="M303.709 27.0734H292.148V29.7473H303.709V27.0734Z" fill="#CCCCCC"/>
<path d="M318.738 38.7718H311.802C311.112 38.7709 310.451 38.4537 309.963 37.8897C309.476 37.3258 309.201 36.5612 309.201 35.7636V3.00816C309.201 2.21062 309.476 1.44601 309.963 0.882071C310.451 0.318127 311.112 0.000898809 311.802 0H318.738C319.428 0.000898809 320.089 0.318127 320.577 0.882071C321.064 1.44601 321.339 2.21062 321.339 3.00816V35.7636C321.339 36.5612 321.064 37.3258 320.577 37.8897C320.089 38.4537 319.428 38.7709 318.738 38.7718V38.7718Z" fill="#F2F2F2"/>
<path d="M321.051 6.35056H309.49V9.02447H321.051V6.35056Z" fill="#CCCCCC"/>
<path d="M321.051 27.0734H309.49V29.7473H321.051V27.0734Z" fill="#CCCCCC"/>
<path d="M336.08 38.7718H329.143C328.454 38.7709 327.792 38.4537 327.305 37.8897C326.817 37.3258 326.543 36.5612 326.542 35.7636V3.00816C326.543 2.21062 326.817 1.44601 327.305 0.882071C327.792 0.318127 328.454 0.000898809 329.143 0H336.08C336.769 0.000898809 337.43 0.318127 337.918 0.882071C338.406 1.44601 338.68 2.21062 338.681 3.00816V35.7636C338.68 36.5612 338.406 37.3258 337.918 37.8897C337.43 38.4537 336.769 38.7709 336.08 38.7718V38.7718Z" fill="#F2F2F2"/>
<path d="M338.392 6.35056H326.831V9.02447H338.392V6.35056Z" fill="#CCCCCC"/>
<path d="M338.392 27.0734H326.831V29.7473H338.392V27.0734Z" fill="#CCCCCC"/>
<path d="M345.328 92.9186H338.392C337.702 92.9177 337.041 92.6004 336.553 92.0365C336.066 91.4726 335.791 90.708 335.791 89.9104V57.155C335.791 56.3574 336.066 55.5928 336.553 55.0289C337.041 54.4649 337.702 54.1477 338.392 54.1468H345.328C346.018 54.1477 346.679 54.4649 347.167 55.0289C347.654 55.5928 347.929 56.3574 347.929 57.155V89.9104C347.929 90.708 347.654 91.4726 347.167 92.0365C346.679 92.6004 346.018 92.9177 345.328 92.9186V92.9186Z" fill="#F2F2F2"/>
<path d="M347.64 60.4973H336.08V63.1713H347.64V60.4973Z" fill="#CCCCCC"/>
<path d="M347.64 81.2202H336.08V83.8941H347.64V81.2202Z" fill="#CCCCCC"/>
<path d="M362.669 92.9186H355.733C355.043 92.9177 354.382 92.6004 353.895 92.0365C353.407 91.4726 353.133 90.708 353.132 89.9104V57.155C353.133 56.3574 353.407 55.5928 353.895 55.0289C354.382 54.4649 355.043 54.1477 355.733 54.1468H362.669C363.359 54.1477 364.02 54.4649 364.508 55.0289C364.996 55.5928 365.27 56.3574 365.271 57.155V89.9104C365.27 90.708 364.996 91.4726 364.508 92.0365C364.02 92.6004 363.359 92.9177 362.669 92.9186Z" fill="#F2F2F2"/>
<path d="M364.982 60.4973H353.421V63.1713H364.982V60.4973Z" fill="#CCCCCC"/>
<path d="M364.982 81.2202H353.421V83.8941H364.982V81.2202Z" fill="#CCCCCC"/>
<path d="M380.011 92.9186H373.074C372.384 92.9177 371.723 92.6004 371.236 92.0365C370.748 91.4726 370.474 90.708 370.473 89.9104V57.155C370.474 56.3574 370.748 55.5928 371.236 55.0289C371.723 54.4649 372.384 54.1477 373.074 54.1468H380.011C380.7 54.1477 381.361 54.4649 381.849 55.0289C382.337 55.5928 382.611 56.3574 382.612 57.155V89.9104C382.611 90.708 382.337 91.4726 381.849 92.0365C381.361 92.6004 380.7 92.9177 380.011 92.9186V92.9186Z" fill="#F2F2F2"/>
<path d="M382.323 60.4973H370.762V63.1713H382.323V60.4973Z" fill="#CCCCCC"/>
<path d="M382.323 81.2202H370.762V83.8941H382.323V81.2202Z" fill="#CCCCCC"/>
<path d="M299.663 147.065H292.727C292.037 147.064 291.376 146.747 290.888 146.183C290.401 145.619 290.126 144.855 290.125 144.057V111.302C290.126 110.504 290.401 109.74 290.888 109.176C291.376 108.612 292.037 108.295 292.727 108.294H299.663C300.353 108.295 301.014 108.612 301.502 109.176C301.989 109.74 302.264 110.504 302.264 111.302V144.057C302.264 144.855 301.989 145.619 301.502 146.183C301.014 146.747 300.353 147.064 299.663 147.065Z" fill="#F2F2F2"/>
<path d="M301.975 114.644H290.415V117.318H301.975V114.644Z" fill="#CCCCCC"/>
<path d="M301.975 135.367H290.415V138.041H301.975V135.367Z" fill="#CCCCCC"/>
<path d="M317.004 147.065H310.068C309.378 147.064 308.717 146.747 308.229 146.183C307.742 145.619 307.467 144.855 307.467 144.057V111.302C307.467 110.504 307.742 109.74 308.229 109.176C308.717 108.612 309.378 108.295 310.068 108.294H317.004C317.694 108.295 318.355 108.612 318.843 109.176C319.33 109.74 319.605 110.504 319.605 111.302V144.057C319.605 144.855 319.33 145.619 318.843 146.183C318.355 146.747 317.694 147.064 317.004 147.065Z" fill="#F2F2F2"/>
<path d="M319.316 114.644H307.756V117.318H319.316V114.644Z" fill="#CCCCCC"/>
<path d="M319.316 135.367H307.756V138.041H319.316V135.367Z" fill="#CCCCCC"/>
<path d="M334.345 147.065H327.409C326.719 147.064 326.058 146.747 325.571 146.183C325.083 145.619 324.809 144.855 324.808 144.057V111.302C324.809 110.504 325.083 109.74 325.571 109.176C326.058 108.612 326.719 108.295 327.409 108.294H334.345C335.035 108.295 335.696 108.612 336.184 109.176C336.672 109.74 336.946 110.504 336.947 111.302V144.057C336.946 144.855 336.672 145.619 336.184 146.183C335.696 146.747 335.035 147.064 334.345 147.065V147.065Z" fill="#F2F2F2"/>
<path d="M336.658 114.644H325.097V117.318H336.658V114.644Z" fill="#CCCCCC"/>
<path d="M336.658 135.367H325.097V138.041H336.658V135.367Z" fill="#CCCCCC"/>
<path d="M353.421 38.7718H346.484C345.795 38.7709 345.133 38.4537 344.646 37.8897C344.158 37.3258 343.884 36.5612 343.883 35.7636V3.00816C343.884 2.21062 344.158 1.44601 344.646 0.882071C345.133 0.318127 345.795 0.000898809 346.484 0H353.421C354.11 0.000898809 354.772 0.318127 355.259 0.882071C355.747 1.44601 356.021 2.21062 356.022 3.00816V35.7636C356.021 36.5612 355.747 37.3258 355.259 37.8897C354.772 38.4537 354.11 38.7709 353.421 38.7718V38.7718Z" fill="#F2F2F2"/>
<path d="M355.733 6.35056H344.172V9.02447H355.733V6.35056Z" fill="#CCCCCC"/>
<path d="M355.733 27.0734H344.172V29.7473H355.733V27.0734Z" fill="#CCCCCC"/>
<path d="M370.762 38.7718H363.825C363.136 38.7709 362.474 38.4537 361.987 37.8897C361.499 37.3258 361.225 36.5612 361.224 35.7636V3.00816C361.225 2.21062 361.499 1.44601 361.987 0.882071C362.474 0.318127 363.136 0.000898809 363.825 0H370.762C371.451 0.000898809 372.113 0.318127 372.6 0.882071C373.088 1.44601 373.362 2.21062 373.363 3.00816V35.7636C373.362 36.5612 373.088 37.3258 372.6 37.8897C372.113 38.4537 371.451 38.7709 370.762 38.7718V38.7718Z" fill="#F2F2F2"/>
<path d="M373.074 6.35056H361.513V9.02447H373.074V6.35056Z" fill="#CCCCCC"/>
<path d="M373.074 27.0734H361.513V29.7473H373.074V27.0734Z" fill="#CCCCCC"/>
<path d="M388.103 38.7718H381.167C380.477 38.7709 379.816 38.4537 379.328 37.8897C378.84 37.3258 378.566 36.5612 378.565 35.7636V3.00816C378.566 2.21062 378.84 1.44601 379.328 0.882071C379.816 0.318127 380.477 0.000898809 381.167 0H388.103C388.793 0.000898809 389.454 0.318127 389.942 0.882071C390.429 1.44601 390.704 2.21062 390.704 3.00816V35.7636C390.704 36.5612 390.429 37.3258 389.942 37.8897C389.454 38.4537 388.793 38.7709 388.103 38.7718V38.7718Z" fill="#F2F2F2"/>
<path d="M390.415 6.35056H378.854V9.02447H390.415V6.35056Z" fill="#CCCCCC"/>
<path d="M390.415 27.0734H378.854V29.7473H390.415V27.0734Z" fill="#CCCCCC"/>
<path d="M405.444 38.7718H398.508C397.818 38.7709 397.157 38.4537 396.669 37.8897C396.182 37.3258 395.907 36.5612 395.906 35.7636V3.00816C395.907 2.21062 396.182 1.44601 396.669 0.882071C397.157 0.318127 397.818 0.000898809 398.508 0H405.444C406.134 0.000898809 406.795 0.318127 407.283 0.882071C407.77 1.44601 408.045 2.21062 408.045 3.00816V35.7636C408.045 36.5612 407.77 37.3258 407.283 37.8897C406.795 38.4537 406.134 38.7709 405.444 38.7718V38.7718Z" fill="#F2F2F2"/>
<path d="M407.757 6.35056H396.196V9.02447H407.757V6.35056Z" fill="#CCCCCC"/>
<path d="M407.757 27.0734H396.196V29.7473H407.757V27.0734Z" fill="#CCCCCC"/>
<path d="M431.422 39.7745H266.681C266.528 39.7745 266.38 39.7041 266.272 39.5787C266.164 39.4533 266.103 39.2833 266.103 39.106C266.103 38.9287 266.164 38.7587 266.272 38.6333C266.38 38.508 266.528 38.4375 266.681 38.4375H431.422C431.575 38.4375 431.722 38.508 431.831 38.6333C431.939 38.7587 432 38.9287 432 39.106C432 39.2833 431.939 39.4533 431.831 39.5787C431.722 39.7041 431.575 39.7745 431.422 39.7745Z" fill="#CCCCCC"/>
<path d="M431.422 93.9213H266.681C266.528 93.9213 266.38 93.8509 266.272 93.7255C266.164 93.6001 266.103 93.4301 266.103 93.2528C266.103 93.0755 266.164 92.9055 266.272 92.7801C266.38 92.6548 266.528 92.5843 266.681 92.5843H431.422C431.575 92.5843 431.722 92.6548 431.831 92.7801C431.939 92.9055 432 93.0755 432 93.2528C432 93.4301 431.939 93.6001 431.831 93.7255C431.722 93.8509 431.575 93.9213 431.422 93.9213Z" fill="#CCCCCC"/>
<path d="M431.422 148.068H266.681C266.528 148.068 266.38 147.998 266.272 147.872C266.164 147.747 266.103 147.577 266.103 147.4C266.103 147.222 266.164 147.052 266.272 146.927C266.38 146.802 266.528 146.731 266.681 146.731H431.422C431.575 146.731 431.722 146.802 431.831 146.927C431.939 147.052 432 147.222 432 147.4C432 147.577 431.939 147.747 431.831 147.872C431.722 147.998 431.575 148.068 431.422 148.068Z" fill="#CCCCCC"/>
<path d="M389.55 140.663C390.264 131.769 392.237 123.07 395.389 114.915C396.267 112.646 397.234 110.426 398.29 108.257C398.342 108.143 398.355 108.01 398.325 107.886C398.295 107.762 398.224 107.656 398.128 107.591C398.032 107.526 397.918 107.507 397.809 107.538C397.701 107.568 397.607 107.646 397.548 107.755C393.71 115.657 391.021 124.235 389.589 133.146C389.191 135.634 388.892 138.14 388.691 140.663C388.64 141.3 389.5 141.296 389.55 140.663V140.663Z" fill="#E6E6E6"/>
<path d="M400.371 109.85C403.376 109.85 405.813 107.033 405.813 103.557C405.813 100.081 403.376 97.2637 400.371 97.2637C397.365 97.2637 394.929 100.081 394.929 103.557C394.929 107.033 397.365 109.85 400.371 109.85Z" fill="#E6E6E6"/>
<path d="M390.107 140.83C390.57 135.06 391.85 129.417 393.895 124.126C394.465 122.654 395.092 121.214 395.777 119.807C395.811 119.733 395.819 119.647 395.8 119.566C395.78 119.486 395.734 119.417 395.672 119.375C395.61 119.333 395.535 119.32 395.465 119.34C395.395 119.36 395.334 119.411 395.295 119.481C392.806 124.608 391.061 130.173 390.132 135.953C389.874 137.568 389.68 139.193 389.55 140.83C389.517 141.243 390.074 141.241 390.107 140.83V140.83Z" fill="#E6E6E6"/>
<path d="M397.127 120.841C399.077 120.841 400.657 119.013 400.657 116.758C400.657 114.503 399.077 112.675 397.127 112.675C395.177 112.675 393.596 114.503 393.596 116.758C393.596 119.013 395.177 120.841 397.127 120.841Z" fill="#E6E6E6"/>
<path d="M389.404 140.445C386.7 135.566 384.708 130.206 383.506 124.58C383.173 123.014 382.901 121.432 382.693 119.836C382.681 119.753 382.641 119.679 382.583 119.63C382.525 119.58 382.452 119.559 382.38 119.57C382.309 119.581 382.244 119.624 382.199 119.689C382.154 119.755 382.133 119.838 382.14 119.921C382.903 125.734 384.488 131.363 386.83 136.582C387.484 138.038 388.196 139.458 388.964 140.841C389.158 141.191 389.596 140.792 389.404 140.445Z" fill="#E6E6E6"/>
<path d="M382.135 120.554C384.085 120.554 385.666 118.726 385.666 116.471C385.666 114.216 384.085 112.388 382.135 112.388C380.186 112.388 378.605 114.216 378.605 116.471C378.605 118.726 380.186 120.554 382.135 120.554Z" fill="#E6E6E6"/>
<path d="M378.565 144.057V136.035C378.566 135.238 378.84 134.473 379.328 133.909C379.816 133.345 380.477 133.028 381.167 133.027H397.352C398.041 133.028 398.703 133.345 399.19 133.909C399.678 134.473 399.952 135.238 399.953 136.035V144.057C399.952 144.855 399.678 145.619 399.19 146.183C398.703 146.747 398.041 147.064 397.352 147.065H381.167C380.477 147.064 379.816 146.747 379.328 146.183C378.84 145.619 378.566 144.855 378.565 144.057Z" fill="#F2F2F2"/>
<path d="M274.195 242.992H53.9623C53.809 242.992 53.662 242.922 53.5536 242.796C53.4452 242.671 53.3843 242.501 53.3843 242.324C53.3843 242.146 53.4452 241.976 53.5536 241.851C53.662 241.726 53.809 241.655 53.9623 241.655H274.195C274.349 241.655 274.496 241.726 274.604 241.851C274.712 241.976 274.773 242.146 274.773 242.324C274.773 242.501 274.712 242.671 274.604 242.796C274.496 242.922 274.349 242.992 274.195 242.992Z" fill="#3F3D56"/>
<path d="M168.448 155.421C177.068 155.421 184.055 147.341 184.055 137.372C184.055 127.404 177.068 119.323 168.448 119.323C159.829 119.323 152.841 127.404 152.841 137.372C152.841 147.341 159.829 155.421 168.448 155.421Z" fill="#2F2E41"/>
<path d="M153.619 253.237L153.206 245.056L180.296 239.317L180.907 251.393L153.619 253.237Z" fill="#FFB8B8"/>
<path d="M154.932 239.076L155.729 254.854L147.139 255.435L145.839 229.722C146.967 229.645 148.097 229.827 149.165 230.256C150.232 230.684 151.216 231.352 152.06 232.221C152.905 233.089 153.593 234.142 154.086 235.318C154.578 236.494 154.866 237.771 154.932 239.076Z" fill="#2F2E41"/>
<path d="M165.402 253.162L160.902 259.493L137.644 242.435L144.285 233.091L165.402 253.162Z" fill="#FFB8B8"/>
<path d="M156.123 262.529L164.802 250.319L171.45 256.638L157.307 276.536C156.434 275.706 155.711 274.686 155.179 273.533C154.647 272.38 154.317 271.117 154.207 269.816C154.097 268.515 154.21 267.202 154.539 265.952C154.867 264.702 155.406 263.539 156.123 262.529V262.529Z" fill="#2F2E41"/>
<path d="M152.452 223.72L149.377 240.484C149.307 240.871 149.311 241.27 149.389 241.654C149.467 242.038 149.618 242.397 149.831 242.706C150.044 243.014 150.313 243.265 150.619 243.439C150.925 243.613 151.261 243.707 151.602 243.713L181.832 244.277C182.173 244.283 182.511 244.202 182.821 244.04C183.132 243.878 183.408 243.638 183.629 243.338C183.85 243.038 184.011 242.686 184.101 242.305C184.19 241.925 184.206 241.527 184.146 241.139L181.502 223.81C181.408 223.191 181.128 222.63 180.711 222.226C180.295 221.822 179.769 221.601 179.225 221.601H154.714C154.184 221.601 153.671 221.811 153.259 222.197C152.847 222.583 152.562 223.12 152.452 223.72V223.72Z" fill="#2F2E41"/>
<path d="M157.465 229.623C157.465 229.623 127.985 208.231 122.205 219.595C119.315 225.277 120.76 230.792 122.927 234.887C124.939 238.615 127.827 241.604 131.253 243.504L155.153 257.03L163.824 246.334L158.043 240.318L157.465 229.623Z" fill="#2F2E41"/>
<path d="M172.494 226.28C172.494 226.28 210.645 213.579 203.131 237.644C195.616 261.709 167.292 252.351 167.292 252.351L164.402 242.324L174.229 234.302L172.494 226.28Z" fill="#2F2E41"/>
<path d="M168.644 157.912C176.485 157.912 182.841 150.562 182.841 141.494C182.841 132.426 176.485 125.075 168.644 125.075C160.803 125.075 154.447 132.426 154.447 141.494C154.447 150.562 160.803 157.912 168.644 157.912Z" fill="#FFB8B8"/>
<path d="M169.388 228.933C163.489 228.83 157.619 227.936 151.898 226.268L151.729 226.215L143.807 184.071C143.094 180.367 143.579 176.49 145.169 173.172C146.759 169.854 149.345 167.323 152.439 166.06C161.993 162.095 172.408 161.854 182.092 165.375H182.092C185.341 166.586 188.076 169.169 189.752 172.609C191.427 176.049 191.919 180.094 191.129 183.935L182.281 226.18L182.156 226.248C178.479 228.263 173.88 228.933 169.388 228.933Z" fill="#CCCCCC"/>
<path d="M158.746 232.207C159.034 231.282 159.493 230.442 160.092 229.745C160.691 229.048 161.415 228.511 162.213 228.172C163.011 227.834 163.863 227.702 164.709 227.785C165.556 227.869 166.377 228.166 167.113 228.656L182.713 212.997L184.124 225.303L169.094 238.286C168.301 239.663 167.098 240.655 165.714 241.074C164.33 241.494 162.861 241.311 161.585 240.562C160.31 239.813 159.316 238.548 158.793 237.008C158.27 235.469 158.253 233.76 158.746 232.207V232.207Z" fill="#FFB8B8"/>
<path d="M173.623 235.622C173.37 235.622 173.117 235.579 172.874 235.495C172.479 235.362 172.118 235.122 171.82 234.795C171.522 234.467 171.296 234.062 171.162 233.612L169.279 227.443C169.103 226.873 169.08 226.255 169.215 225.67C169.349 225.084 169.634 224.56 170.032 224.166L191.285 209.41L182.907 166.186L183.12 166.126C183.207 166.101 191.791 163.842 195.309 174.69C197.772 182.287 206.888 198.807 206.245 209.97C206.122 212.203 205.353 214.323 204.061 215.988C202.768 217.653 201.028 218.765 199.122 219.146L175.198 234.998C174.747 235.402 174.194 235.622 173.623 235.622Z" fill="#CCCCCC"/>
<path d="M176.007 230.741C175.72 229.816 175.26 228.975 174.661 228.278C174.062 227.581 173.338 227.045 172.541 226.706C171.743 226.368 170.891 226.235 170.044 226.319C169.197 226.402 168.377 226.7 167.64 227.19L152.041 211.531L150.629 223.836L165.659 236.82C166.453 238.196 167.656 239.188 169.04 239.608C170.424 240.027 171.892 239.845 173.168 239.096C174.444 238.346 175.437 237.082 175.96 235.542C176.484 234.002 176.5 232.294 176.007 230.741V230.741Z" fill="#FFB8B8"/>
<path d="M162.695 235.622C162.125 235.622 161.571 235.402 161.12 234.998L135.462 220.483C133.556 220.102 131.816 218.99 130.524 217.325C129.231 215.66 128.462 213.54 128.34 211.307C127.697 200.143 138.546 182.287 141.01 174.69C144.527 163.842 153.111 166.101 153.198 166.126L153.411 166.186L143.299 210.747L166.287 224.166C166.684 224.56 166.969 225.084 167.104 225.67C167.238 226.255 167.216 226.873 167.04 227.443L165.157 233.612C165.022 234.062 164.796 234.467 164.498 234.795C164.2 235.122 163.839 235.362 163.444 235.495C163.201 235.579 162.949 235.622 162.695 235.622V235.622Z" fill="#CCCCCC"/>
<path d="M193.304 242.324H141.859C140.786 242.322 139.757 241.829 138.999 240.951C138.24 240.074 137.814 238.885 137.812 237.644V204.889C137.814 203.648 138.24 202.459 138.999 201.582C139.757 200.704 140.786 200.211 141.859 200.209H193.304C194.377 200.211 195.405 200.704 196.164 201.582C196.922 202.459 197.349 203.648 197.35 204.889V237.644C197.349 238.885 196.922 240.074 196.164 240.951C195.405 241.829 194.377 242.322 193.304 242.324V242.324Z" fill="#6C63FF"/>
<path d="M167.581 225.277C169.497 225.277 171.049 223.482 171.049 221.267C171.049 219.051 169.497 217.256 167.581 217.256C165.666 217.256 164.113 219.051 164.113 221.267C164.113 223.482 165.666 225.277 167.581 225.277Z" fill="white"/>
<path d="M154.304 140.826C153.463 138.357 154.844 135.416 156.892 134.22C158.94 133.025 161.411 133.252 163.602 134.04C165.443 134.702 167.168 135.729 168.964 136.539C170.735 137.447 172.669 137.845 174.602 137.7C176.517 137.45 178.424 136.208 179.208 134.171C180.021 132.059 179.468 129.483 178.217 127.681C176.885 125.938 175.162 124.658 173.239 123.981C169.015 122.26 164.136 122.209 160.214 124.711C156.293 127.213 153.628 132.539 154.438 137.633" fill="#2F2E41"/>
<path d="M72.2645 235.183C72.9786 226.289 74.9511 217.59 78.103 209.435C78.9815 207.166 79.9484 204.946 81.0037 202.777C81.0566 202.663 81.0694 202.53 81.0393 202.406C81.0091 202.282 80.9385 202.176 80.8422 202.111C80.746 202.046 80.6317 202.027 80.5234 202.058C80.4151 202.088 80.3213 202.166 80.2617 202.275C76.424 210.177 73.7354 218.755 72.3034 227.666C71.9051 230.154 71.6057 232.66 71.4053 235.183C71.3543 235.82 72.2139 235.816 72.2645 235.183V235.183Z" fill="#E6E6E6"/>
<path d="M83.0847 204.37C86.0902 204.37 88.5266 201.553 88.5266 198.077C88.5266 194.601 86.0902 191.784 83.0847 191.784C80.0792 191.784 77.6428 194.601 77.6428 198.077C77.6428 201.553 80.0792 204.37 83.0847 204.37Z" fill="#6C63FF"/>
<path d="M72.821 235.35C73.2843 229.58 74.5639 223.937 76.6087 218.647C77.1786 217.174 77.8059 215.734 78.4905 214.327C78.5249 214.253 78.5331 214.167 78.5136 214.086C78.4941 214.006 78.4482 213.937 78.3858 213.895C78.3234 213.853 78.2492 213.84 78.1789 213.86C78.1087 213.88 78.0478 213.931 78.0092 214.001C75.5195 219.128 73.7753 224.693 72.8463 230.473C72.5879 232.088 72.3936 233.713 72.2636 235.35C72.2306 235.763 72.7882 235.761 72.8211 235.35H72.821Z" fill="#E6E6E6"/>
<path d="M79.8407 215.361C81.7905 215.361 83.3711 213.533 83.3711 211.278C83.3711 209.023 81.7905 207.195 79.8407 207.195C77.8909 207.195 76.3103 209.023 76.3103 211.278C76.3103 213.533 77.8909 215.361 79.8407 215.361Z" fill="#6C63FF"/>
<path d="M72.1175 234.965C69.414 230.086 67.4216 224.726 66.2201 219.1C65.8865 217.534 65.6152 215.952 65.4065 214.356C65.3944 214.273 65.3551 214.199 65.2969 214.15C65.2387 214.1 65.166 214.079 65.0943 214.09C65.0226 214.101 64.9575 214.144 64.9127 214.209C64.8678 214.275 64.8467 214.358 64.8539 214.441C65.6173 220.254 67.2016 225.883 69.5436 231.102C70.1984 232.558 70.9099 233.978 71.678 235.361C71.8716 235.711 72.3099 235.312 72.1175 234.965V234.965Z" fill="#E6E6E6"/>
<path d="M64.8495 215.074C66.7993 215.074 68.3799 213.246 68.3799 210.991C68.3799 208.736 66.7993 206.909 64.8495 206.909C62.8997 206.909 61.3191 208.736 61.3191 210.991C61.3191 213.246 62.8997 215.074 64.8495 215.074Z" fill="#6C63FF"/>
<path d="M61.2795 238.577V230.555C61.2803 229.758 61.5546 228.993 62.0423 228.429C62.5299 227.865 63.1911 227.548 63.8807 227.547H80.0658C80.7554 227.548 81.4166 227.865 81.9043 228.429C82.3919 228.993 82.6662 229.758 82.667 230.555V238.577C82.6662 239.375 82.3919 240.139 81.9043 240.703C81.4166 241.267 80.7554 241.585 80.0658 241.585H63.8807C63.1911 241.585 62.5299 241.267 62.0423 240.703C61.5546 240.139 61.2803 239.375 61.2795 238.577V238.577Z" fill="#F2F2F2"/>
<path d="M235.125 247.939C235.125 252.336 232.043 254.334 228.241 254.334C224.439 254.334 221.357 252.336 221.357 247.939C221.357 243.543 222.887 238.413 228.241 240.182C233.595 237.528 235.125 243.543 235.125 247.939Z" fill="#FF6584"/>
<path d="M227.906 242.241C227.638 242.242 227.379 242.13 227.178 241.925C226.977 241.721 226.847 241.439 226.813 241.132C226.585 238.939 225.329 234.643 224.799 232.898L224.799 232.897C224.745 232.724 224.729 232.538 224.751 232.355C224.773 232.173 224.833 231.999 224.926 231.85C225.015 231.716 225.127 231.606 225.256 231.526C225.384 231.446 225.526 231.398 225.671 231.386C225.816 231.374 225.962 231.397 226.099 231.455C226.236 231.513 226.361 231.604 226.466 231.721C226.559 231.834 226.631 231.969 226.678 232.115C226.724 232.262 226.744 232.418 226.736 232.574C226.633 234.814 228.044 238.433 228.895 240.392C228.976 240.577 229.016 240.781 229.013 240.988C229.01 241.194 228.963 241.397 228.877 241.578C228.791 241.759 228.669 241.914 228.52 242.028C228.371 242.142 228.2 242.213 228.023 242.234C227.984 242.239 227.945 242.242 227.906 242.241V242.241Z" fill="#3F3D56"/>
<path d="M233 237.3C235.389 235.039 233.514 230.41 230.524 231.298C230.121 231.41 229.75 231.638 229.446 231.963C227.612 233.967 227.327 239.095 227.327 239.095C227.327 239.095 230.567 239.603 233 237.3Z" fill="#3F3D56"/>
</g>
<defs>
<clipPath id="clip0">
<rect width="378.616" height="276.536" fill="white" transform="translate(53.3843)"/>
</clipPath>
</defs>
</svg>