<svg width="60" height="60" viewBox="0 0 60 60" fill="none" xmlns="http://www.w3.org/2000/svg">
<path d="M20.0685 48.3119C20.0685 48.56 19.7903 48.7586 19.4395 48.7586C19.0403 48.7958 18.7621 48.5973 18.7621 48.3119C18.7621 48.0638 19.0403 47.8653 19.3911 47.8653C19.754 47.828 20.0685 48.0266 20.0685 48.3119ZM16.3065 47.7536C16.2218 48.0017 16.4637 48.2871 16.8266 48.3615C17.1411 48.4856 17.504 48.3615 17.5766 48.1134C17.6492 47.8653 17.4194 47.5799 17.0565 47.4683C16.7419 47.3814 16.3911 47.5055 16.3065 47.7536ZM21.6532 47.5427C21.3024 47.6295 21.0605 47.8653 21.0968 48.1506C21.1331 48.3988 21.4476 48.56 21.8105 48.4732C22.1613 48.3864 22.4032 48.1506 22.3669 47.9025C22.3306 47.6668 22.004 47.5055 21.6532 47.5427ZM29.6129 0C12.8347 0 0 13.0643 0 30.2725C0 44.0316 8.44355 55.8056 20.504 59.9495C22.0524 60.2348 22.5968 59.2547 22.5968 58.4482C22.5968 57.679 22.5605 53.4359 22.5605 50.8305C22.5605 50.8305 14.0927 52.6915 12.3145 47.1333C12.3145 47.1333 10.9355 43.5229 8.95161 42.5924C8.95161 42.5924 6.18145 40.6445 9.14516 40.6818C9.14516 40.6818 12.1573 40.9299 13.8145 43.8827C16.4637 48.6717 20.9032 47.2946 22.6331 46.4757C22.9113 44.4906 23.6976 43.1135 24.5685 42.2946C17.8065 41.5254 10.9839 40.5205 10.9839 28.5852C10.9839 25.1733 11.9032 23.4612 13.8387 21.2776C13.5242 20.4711 12.496 17.1461 14.1532 12.8534C16.6815 12.047 22.5 16.2032 22.5 16.2032C24.9194 15.5084 27.5202 15.1486 30.0968 15.1486C32.6734 15.1486 35.2742 15.5084 37.6935 16.2032C37.6935 16.2032 43.5121 12.0346 46.0403 12.8534C47.6976 17.1585 46.6694 20.4711 46.3548 21.2776C48.2903 23.4736 49.4758 25.1857 49.4758 28.5852C49.4758 40.5577 42.3508 41.513 35.5887 42.2946C36.7016 43.2748 37.6452 45.1358 37.6452 48.0514C37.6452 52.2324 37.6089 57.4061 37.6089 58.4234C37.6089 59.2299 38.1653 60.21 39.7016 59.9246C51.7984 55.8056 60 44.0316 60 30.2725C60 13.0643 46.3911 0 29.6129 0ZM11.7581 42.7909C11.6008 42.915 11.6371 43.2003 11.8427 43.4361C12.0363 43.6346 12.3145 43.7214 12.4718 43.5601C12.629 43.4361 12.5927 43.1507 12.3871 42.915C12.1935 42.7165 11.9153 42.6296 11.7581 42.7909ZM10.4516 41.786C10.3669 41.9472 10.4879 42.1458 10.7298 42.2698C10.9234 42.3939 11.1653 42.3567 11.25 42.183C11.3347 42.0217 11.2137 41.8232 10.9718 41.6991C10.7298 41.6247 10.5363 41.6619 10.4516 41.786ZM14.371 46.2028C14.1774 46.364 14.25 46.7363 14.5282 46.972C14.8065 47.2573 15.1573 47.2946 15.3145 47.096C15.4718 46.9348 15.3992 46.5626 15.1573 46.3268C14.8911 46.0415 14.5282 46.0043 14.371 46.2028ZM12.9919 44.379C12.7984 44.503 12.7984 44.8256 12.9919 45.111C13.1855 45.3963 13.5121 45.5204 13.6694 45.3963C13.8629 45.235 13.8629 44.9125 13.6694 44.6271C13.5 44.3418 13.1855 44.2177 12.9919 44.379Z" fill="black"/>
</svg>