<svg width="80" height="60" viewBox="0 0 80 60" fill="none" xmlns="http://www.w3.org/2000/svg">
<path d="M5.45321 60H18.1774V29.0985L0 15.4655V54.5468C0 57.5597 2.44031 60 5.45321 60Z" fill="#4285F4"/>
<path d="M61.803 60H74.5272C77.5401 60 79.9804 57.5597 79.9804 54.5468V15.4655L61.803 29.0985V60Z" fill="#34A853"/>
<path d="M61.803 5.4679V29.0985L79.9804 15.4654V8.19451C79.9804 1.45525 72.2868 -2.39381 66.8927 1.65066L61.803 5.4679Z" fill="#FBBC04"/>
<path d="M18.1773 29.0985V5.4679L39.9902 21.8275L61.803 5.4679V29.0985L39.9902 45.4581L18.1773 29.0985Z" fill="#EA4335"/>
<path d="M0 8.19451V15.4654L18.1774 29.0985V5.4679L13.0877 1.65066C7.69357 -2.39381 0 1.45525 0 8.19451V8.19451Z" fill="#C5221F"/>
</svg>