<svg width="61" height="60" viewBox="0 0 61 60" fill="none" xmlns="http://www.w3.org/2000/svg">
<path d="M30.018 0C17.4898 0 13.8258 0.0129242 13.1136 0.0720061C10.5426 0.285716 8.94281 0.69052 7.19989 1.55829C5.8567 2.22527 4.79738 2.99841 3.75191 4.08219C1.8479 6.05867 0.693956 8.49026 0.276228 11.3807C0.0731344 12.7839 0.0140525 13.07 0.00205146 20.2374C-0.00256432 22.6265 0.00205146 25.7708 0.00205146 29.9882C0.00205146 42.5062 0.0158988 46.1665 0.0759039 46.8774C0.283614 49.3791 0.675955 50.9531 1.50679 52.6748C3.09462 55.9704 6.12718 58.4445 9.69979 59.3676C10.9368 59.6861 12.3031 59.8615 14.0571 59.9446C14.8002 59.9769 22.3747 60 29.9538 60C37.5329 60 45.112 59.9908 45.8367 59.9538C47.8676 59.8583 49.047 59.7 50.3509 59.363C52.1224 58.9087 53.7733 58.0732 55.1884 56.9148C56.6035 55.7565 57.7487 54.3031 58.5439 52.6563C59.3586 50.9762 59.7717 49.3422 59.9587 46.9711C59.9993 46.4541 60.0164 38.2117 60.0164 29.9804C60.0164 21.7477 59.9979 13.5205 59.9573 13.0036C59.768 10.5941 59.3549 8.97399 58.5139 7.26154C57.8239 5.85973 57.0576 4.81287 55.9452 3.74247C53.9605 1.84631 51.5326 0.692366 48.6389 0.2751C47.2371 0.0724677 46.9579 0.0124626 39.785 0H30.018Z" fill="url(#paint0_radial)"/>
<path d="M30.018 0C17.4898 0 13.8258 0.0129242 13.1136 0.0720061C10.5426 0.285716 8.94281 0.69052 7.19989 1.55829C5.8567 2.22527 4.79738 2.99841 3.75191 4.08219C1.8479 6.05867 0.693956 8.49026 0.276228 11.3807C0.0731344 12.7839 0.0140525 13.07 0.00205146 20.2374C-0.00256432 22.6265 0.00205146 25.7708 0.00205146 29.9882C0.00205146 42.5062 0.0158988 46.1665 0.0759039 46.8774C0.283614 49.3791 0.675955 50.9531 1.50679 52.6748C3.09462 55.9704 6.12718 58.4445 9.69979 59.3676C10.9368 59.6861 12.3031 59.8615 14.0571 59.9446C14.8002 59.9769 22.3747 60 29.9538 60C37.5329 60 45.112 59.9908 45.8367 59.9538C47.8676 59.8583 49.047 59.7 50.3509 59.363C52.1224 58.9087 53.7733 58.0732 55.1884 56.9148C56.6035 55.7565 57.7487 54.3031 58.5439 52.6563C59.3586 50.9762 59.7717 49.3422 59.9587 46.9711C59.9993 46.4541 60.0164 38.2117 60.0164 29.9804C60.0164 21.7477 59.9979 13.5205 59.9573 13.0036C59.768 10.5941 59.3549 8.97399 58.5139 7.26154C57.8239 5.85973 57.0576 4.81287 55.9452 3.74247C53.9605 1.84631 51.5326 0.692366 48.6389 0.2751C47.2371 0.0724677 46.9579 0.0124626 39.785 0H30.018Z" fill="url(#paint1_radial)"/>
<path d="M30.0041 7.84681C23.987 7.84681 23.2318 7.87312 20.8685 7.98067C18.5099 8.08868 16.8999 8.4621 15.4912 9.00999C14.034 9.57588 12.7979 10.3329 11.5664 11.5648C10.334 12.7963 9.57698 14.0324 9.00924 15.4892C8.45996 16.8983 8.08608 18.5088 7.97992 20.8665C7.87468 23.2298 7.84698 23.9854 7.84698 30.0025C7.84698 36.0197 7.87376 36.7725 7.98084 39.1358C8.08931 41.4944 8.46273 43.1044 9.01016 44.5131C9.57652 45.9703 10.3335 47.2065 11.5655 48.4379C12.7965 49.6704 14.0326 50.4292 15.4889 50.9951C16.8985 51.543 18.509 51.9164 20.8672 52.0244C23.2304 52.1319 23.9851 52.1583 30.0018 52.1583C36.0194 52.1583 36.7722 52.1319 39.1355 52.0244C41.4941 51.9164 43.1059 51.543 44.5156 50.9951C45.9723 50.4292 47.2066 49.6704 48.4376 48.4379C49.67 47.2065 50.427 45.9703 50.9948 44.5136C51.5394 43.1044 51.9133 41.494 52.0241 39.1362C52.1302 36.773 52.1579 36.0197 52.1579 30.0025C52.1579 23.9854 52.1302 23.2303 52.0241 20.867C51.9133 18.5083 51.5394 16.8983 50.9948 15.4896C50.427 14.0324 49.67 12.7963 48.4376 11.5648C47.2052 10.3324 45.9728 9.57542 44.5142 9.00999C43.1018 8.4621 41.4909 8.08868 39.1322 7.98067C36.769 7.87312 36.0166 7.84681 29.9976 7.84681H30.0041ZM28.0165 11.8395C28.6064 11.8385 29.2646 11.8395 30.0041 11.8395C35.9197 11.8395 36.6208 11.8607 38.9568 11.9669C41.117 12.0656 42.2894 12.4266 43.0704 12.7298C44.1043 13.1314 44.8415 13.6115 45.6165 14.3869C46.3919 15.1624 46.872 15.9009 47.2745 16.9348C47.5777 17.7149 47.9391 18.8873 48.0374 21.0475C48.1436 23.383 48.1667 24.0846 48.1667 29.9975C48.1667 35.9103 48.1436 36.6119 48.0374 38.9474C47.9387 41.1076 47.5777 42.28 47.2745 43.0601C46.8729 44.094 46.3919 44.8302 45.6165 45.6052C44.841 46.3807 44.1048 46.8607 43.0704 47.2623C42.2903 47.5669 41.117 47.927 38.9568 48.0257C36.6213 48.1319 35.9197 48.155 30.0041 48.155C24.088 48.155 23.3869 48.1319 21.0513 48.0257C18.8911 47.926 17.7187 47.5651 16.9373 47.2618C15.9034 46.8603 15.1648 46.3802 14.3894 45.6048C13.6139 44.8293 13.1339 44.0927 12.7314 43.0583C12.4281 42.2782 12.0667 41.1058 11.9684 38.9456C11.8622 36.61 11.841 35.9084 11.841 29.9919C11.841 24.0754 11.8622 23.3775 11.9684 21.0419C12.0672 18.8817 12.4281 17.7093 12.7314 16.9284C13.133 15.8944 13.6139 15.1559 14.3894 14.3804C15.1648 13.605 15.9034 13.125 16.9373 12.7225C17.7183 12.4178 18.8911 12.0578 21.0513 11.9585C23.0952 11.8662 23.8873 11.8385 28.0165 11.8339V11.8395ZM41.8306 15.5182C41.3047 15.5182 40.7907 15.6742 40.3534 15.9664C39.9162 16.2585 39.5754 16.6738 39.3742 17.1597C39.173 17.6456 39.1204 18.1802 39.2231 18.6959C39.3257 19.2117 39.579 19.6854 39.951 20.0572C40.3229 20.429 40.7967 20.6821 41.3125 20.7846C41.8283 20.8871 42.3629 20.8343 42.8487 20.633C43.3345 20.4316 43.7496 20.0907 44.0417 19.6533C44.3337 19.216 44.4895 18.7019 44.4893 18.176C44.4893 16.7082 43.2984 15.5173 41.8306 15.5173V15.5182ZM30.0041 18.6246C23.7206 18.6246 18.6262 23.7191 18.6262 30.0025C18.6262 36.286 23.7206 41.3781 30.0041 41.3781C36.2875 41.3781 41.3806 36.286 41.3806 30.0025C41.3806 23.7191 36.2871 18.6246 30.0036 18.6246H30.0041ZM30.0041 22.6173C34.0826 22.6173 37.3893 25.9236 37.3893 30.0025C37.3893 34.081 34.0826 37.3878 30.0041 37.3878C25.9251 37.3878 22.6188 34.081 22.6188 30.0025C22.6188 25.9236 25.9251 22.6173 30.0041 22.6173V22.6173Z" fill="white"/>
<defs>
<radialGradient id="paint0_radial" cx="0" cy="0" r="1" gradientUnits="userSpaceOnUse" gradientTransform="translate(15.9419 64.6213) rotate(-90) scale(59.4644 55.3217)">
<stop stop-color="#FFDD55"/>
<stop offset="0.1" stop-color="#FFDD55"/>
<stop offset="0.5" stop-color="#FF543E"/>
<stop offset="1" stop-color="#C837AB"/>
</radialGradient>
<radialGradient id="paint1_radial" cx="0" cy="0" r="1" gradientUnits="userSpaceOnUse" gradientTransform="translate(-10.0531 4.3223) rotate(78.6776) scale(26.5811 109.596)">
<stop stop-color="#3771C8"/>
<stop offset="0.128" stop-color="#3771C8"/>
<stop offset="1" stop-color="#6600FF" stop-opacity="0"/>
</radialGradient>
</defs>
</svg>