<svg width="71" height="60" viewBox="0 0 71 60" fill="none" xmlns="http://www.w3.org/2000/svg">
<path d="M67.0052 56.195C67.1564 56.1965 67.3063 56.1669 67.4455 56.1081C67.5848 56.0493 67.7105 55.9625 67.8149 55.8531C67.9192 55.7436 67.9999 55.6139 68.0521 55.472C68.1042 55.3301 68.1266 55.179 68.1179 55.028C68.1179 54.2004 67.6186 53.805 66.5942 53.805H64.9389V58.1381H65.5615V56.2492H66.3266L66.344 56.2722L67.5312 58.1381H68.197L66.9197 56.2069L67.0052 56.195ZM66.2852 55.761H65.5633V54.2961H66.4783C66.9509 54.2961 67.4898 54.3733 67.4898 54.9922C67.4898 55.7039 66.9445 55.761 66.2815 55.761H66.2852ZM50.7654 50.7649H41.9375V36.9399C41.9375 33.6432 41.8786 29.3994 37.346 29.3994C32.7481 29.3994 32.0446 32.9912 32.0446 36.6999V50.764H23.2166V22.3342H31.6915V26.2194H31.8101C32.6582 24.7693 33.8838 23.5764 35.3563 22.7676C36.8288 21.9589 38.4931 21.5647 40.1719 21.6271C49.1194 21.6271 50.7691 27.5124 50.7691 35.1688L50.7654 50.7649ZM13.2557 18.4481C12.2425 18.4483 11.252 18.148 10.4094 17.5852C9.56685 17.0224 8.91008 16.2225 8.52216 15.2864C8.13425 14.3504 8.03261 13.3203 8.2301 12.3266C8.4276 11.3328 8.91535 10.4198 9.63168 9.70325C10.348 8.98666 11.2608 8.49858 12.2545 8.30073C13.2482 8.10288 14.2783 8.20415 15.2145 8.59172C16.1506 8.9793 16.9508 9.63578 17.5139 10.4782C18.077 11.3205 18.3776 12.3109 18.3778 13.3242C18.3779 13.9969 18.2455 14.6631 17.9882 15.2847C17.7309 15.9063 17.3536 16.4711 16.878 16.9469C16.4023 17.4227 15.8377 17.8002 15.2162 18.0578C14.5947 18.3153 13.9285 18.448 13.2557 18.4481V18.4481ZM17.6697 50.7649H8.83257V22.3342H17.6697V50.7649ZM55.1665 0.00405769H4.39651C3.24418 -0.00894642 2.13382 0.436071 1.30943 1.24132C0.485037 2.04657 0.0140636 3.14617 0 4.2985V55.2791C0.0135823 56.432 0.484254 57.5323 1.30862 58.3384C2.13298 59.1445 3.24361 59.5904 4.39651 59.5781H55.1665C56.3217 59.5926 57.4354 59.148 58.2631 58.3419C59.0907 57.5359 59.5645 56.4343 59.5805 55.2791V4.29482C59.564 3.14021 59.0899 2.03936 58.2623 1.23413C57.4346 0.428899 56.3212 -0.0148485 55.1665 0.00037937" fill="#0A66C2"/>
<path d="M66.3605 51.8748C65.2865 51.8851 64.2602 52.3204 63.5062 53.0854C62.7522 53.8503 62.3318 54.8828 62.337 55.9569C62.3421 57.0309 62.7724 58.0593 63.5338 58.817C64.2951 59.5747 65.3255 60 66.3996 60C67.4737 60 68.5041 59.5747 69.2655 58.817C70.0268 58.0593 70.4571 57.0309 70.4623 55.9569C70.4674 54.8828 70.047 53.8503 69.293 53.0854C68.539 52.3204 67.5128 51.8851 66.4387 51.8748H66.3605ZM66.3605 59.5349C65.656 59.5466 64.9639 59.3492 64.3716 58.9675C63.7794 58.5859 63.3136 58.0372 63.0331 57.3908C62.7527 56.7444 62.6702 56.0294 62.7962 55.3362C62.9221 54.643 63.2508 54.0026 63.7406 53.4962C64.2305 52.9898 64.8595 52.6399 65.5482 52.491C66.2368 52.3421 66.9542 52.4007 67.6095 52.6594C68.2649 52.9182 68.8288 53.3654 69.2299 53.9447C69.6311 54.5239 69.8515 55.2091 69.8632 55.9136V55.9734C69.8829 56.8975 69.5348 57.7917 68.8954 58.4592C68.2559 59.1268 67.3776 59.513 66.4534 59.5331H66.3614" fill="#0A66C2"/>
</svg>