<svg width="521" height="280" viewBox="0 0 521 280" fill="none" xmlns="http://www.w3.org/2000/svg">
<path d="M79.4765 239.248C67.9072 247.68 64.6283 262.515 64.6283 262.515C64.6283 262.515 80.107 263.68 91.6763 255.248C103.246 246.817 106.524 231.982 106.524 231.982C106.524 231.982 91.0458 230.817 79.4765 239.248Z" fill="#F1F1F1"/>
<path d="M84.2958 243.207C78.7354 256.225 64.8098 262.934 64.8098 262.934C64.8098 262.934 59.8991 248.535 65.4595 235.517C71.0198 222.499 84.9454 215.791 84.9454 215.791C84.9454 215.791 89.8561 230.189 84.2958 243.207Z" fill="#F1F1F1"/>
<path d="M417.155 205.573C415.925 197.478 415.601 189.276 416.186 181.112L417.155 167.601C411.818 177.983 413.024 191.647 417.155 205.573V205.573Z" fill="#CACACA"/>
<path d="M421.316 207.834C420.724 203.003 420.568 198.131 420.85 193.273L421.316 185.231C418.748 191.411 419.329 199.544 421.316 207.834Z" fill="#CACACA"/>
<path d="M439.814 217.78V222.3C439.812 222.66 439.665 223.003 439.406 223.257C439.146 223.511 438.794 223.655 438.427 223.657H436.115C436.054 223.656 435.994 223.668 435.938 223.691C435.881 223.713 435.83 223.746 435.787 223.788C435.744 223.831 435.71 223.88 435.687 223.935C435.664 223.99 435.652 224.049 435.652 224.109V261.177C435.651 261.536 435.504 261.88 435.244 262.134C434.984 262.388 434.633 262.531 434.265 262.533H406.059C405.692 262.533 405.339 262.39 405.079 262.136C404.819 261.881 404.673 261.536 404.672 261.177V224.109C404.672 223.989 404.623 223.874 404.536 223.789C404.45 223.705 404.332 223.657 404.21 223.657H401.436C401.068 223.656 400.715 223.513 400.455 223.259C400.195 223.005 400.049 222.66 400.048 222.3V217.78C400.048 217.602 400.084 217.425 400.153 217.261C400.223 217.096 400.325 216.946 400.454 216.82C400.583 216.694 400.736 216.595 400.904 216.526C401.073 216.458 401.253 216.423 401.436 216.424H438.427C438.794 216.425 439.147 216.568 439.407 216.822C439.666 217.076 439.813 217.421 439.814 217.78Z" fill="#F2F2F2"/>
<path d="M435.694 224.606H404.714V225.962H435.694V224.606Z" fill="#E6E6E6"/>
<path d="M435.652 244.562C425.286 248.756 414.806 248.802 404.21 244.562V235.007C414.411 231.658 425.452 231.658 435.652 235.007V244.562Z" fill="#E6E6E6"/>
<path d="M262.005 98.4792C285.147 98.4792 303.907 80.1382 303.907 57.5134C303.907 34.8887 285.147 16.5477 262.005 16.5477C238.862 16.5477 220.102 34.8887 220.102 57.5134C220.102 80.1382 238.862 98.4792 262.005 98.4792Z" fill="#FEB8B8"/>
<path d="M301.142 22.1716C294.877 12.226 285.071 4.89748 273.611 1.59673L268.466 5.26676V0.501336C265.714 0.0895028 262.928 -0.0691471 260.146 0.0274727L255.708 3.95339V0.353639C249.136 1.15195 242.806 3.27268 237.115 6.58211C231.424 9.89153 226.496 14.3179 222.642 19.582C213.004 33.1659 211.377 52.0641 220.856 65.757C223.458 57.9384 226.617 50.6023 229.22 42.7844C231.265 43.057 233.338 43.0668 235.386 42.8136L238.552 35.5912L239.436 42.508C249.25 41.6724 263.805 39.837 273.108 38.1556L272.203 32.8492L277.616 37.2585C280.466 36.6172 282.158 36.0351 282.018 35.5905C288.937 46.4955 297.405 53.4604 304.323 64.3655C306.951 48.9888 309.976 36.2033 301.142 22.1716Z" fill="#2F2E41"/>
<path d="M352.125 162.858C350.684 154.383 349.198 145.746 345.169 138.111C342.521 133.11 338.318 128.345 332.652 127.356C331.536 127.259 330.439 127.011 329.393 126.618C327.732 125.837 305.422 113.385 301.876 111.216C298.831 109.355 294.025 105.908 291.601 105.908C289.163 105.855 279.814 107.982 243.325 105.194C243.325 105.194 233.301 109.056 225.545 113.74C225.428 113.665 187.673 133.485 186.254 133.433C183.568 133.323 181.071 135.004 179.531 137.121C177.992 139.239 177.27 141.86 176.514 144.394C184.76 162.348 192.305 180.325 200.552 198.278C200.938 198.954 201.143 199.715 201.148 200.49C200.982 201.293 200.632 202.05 200.122 202.701C196.078 209.052 196.207 217.041 196.648 224.505C197.091 231.97 197.637 239.855 194.225 246.546C193.297 248.383 192.09 250.064 191.207 251.901C189.14 256.062 188.393 269.369 189.6 273.839L340.879 278.076C337.626 269.335 352.125 162.858 352.125 162.858Z" fill="#6C63FF"/>
<path d="M163.437 199.074C163.135 201.209 163.105 203.372 163.347 205.514L165.515 235.956C165.718 238.825 165.919 241.687 166.194 244.55C166.715 250.104 167.492 255.614 168.456 261.116C168.478 261.898 168.816 262.638 169.396 263.176C169.976 263.714 170.75 264.005 171.549 263.986C181.094 265.96 190.955 265.881 200.696 265.343C215.56 264.532 253.587 262.998 255.91 260.047C258.234 257.096 256.88 252.324 253.85 249.938C250.821 247.552 200.638 241.736 200.638 241.736C201.129 237.937 202.608 234.359 204.011 230.752C206.531 224.355 208.885 217.748 208.931 210.895C208.976 204.043 206.335 196.838 200.593 192.912C195.87 189.689 189.788 189.091 184.033 189.224C179.845 189.341 172.609 188.36 168.784 189.961C165.757 191.264 164.003 196.177 163.437 199.074Z" fill="#FBBEBE"/>
<path d="M176.077 144.941C175.342 145.693 174.772 146.584 174.403 147.56C168.304 160.997 164.701 175.389 163.764 190.062C163.781 190.777 163.612 191.485 163.274 192.12C162.941 192.542 162.569 192.934 162.165 193.292C161.812 193.701 161.545 194.174 161.379 194.683C161.214 195.193 161.152 195.729 161.198 196.262C161.245 196.795 161.398 197.314 161.649 197.789C161.9 198.264 162.245 198.686 162.663 199.03C162.732 199.087 162.802 199.141 162.874 199.194C164.119 196.903 167.099 196.155 169.748 195.956C182.431 194.975 194.819 200.743 207.54 200.308C206.643 197.276 205.352 194.363 204.62 191.294C201.383 177.67 209.456 162.837 204.507 149.714C203.518 147.088 201.866 144.506 199.263 143.356C198.186 142.931 197.058 142.639 195.906 142.487C192.692 141.919 186.293 139.492 183.185 140.466C182.038 140.828 181.586 141.882 180.635 142.519C179.191 143.421 177.274 143.753 176.077 144.941Z" fill="#6C63FF"/>
<path d="M352.216 189.961C348.391 188.36 341.155 189.341 336.967 189.224C331.212 189.091 325.13 189.689 320.407 192.912C314.665 196.838 312.024 204.043 312.069 210.895C312.115 217.748 314.469 224.355 316.989 230.752C318.392 234.359 319.871 237.937 320.362 241.736C320.362 241.736 270.179 247.552 267.15 249.938C264.12 252.324 262.766 257.096 265.09 260.047C267.413 262.998 339.906 265.96 349.451 263.986C350.25 264.005 351.024 263.714 351.604 263.176C352.184 262.638 352.522 261.898 352.544 261.116C353.508 255.614 354.285 250.104 354.806 244.55C355.081 241.687 355.282 238.825 355.485 235.956L357.653 205.514C357.895 203.372 357.865 201.209 357.563 199.074C356.997 196.177 355.243 191.264 352.216 189.961Z" fill="#FBBEBE"/>
<path d="M340.365 142.519C339.414 141.882 338.962 140.828 337.815 140.466C334.707 139.492 328.308 141.919 325.094 142.487C323.942 142.639 322.814 142.931 321.737 143.356C319.134 144.506 317.482 147.088 316.493 149.714C311.544 162.837 319.617 177.67 316.38 191.294C315.648 194.363 314.357 197.276 313.46 200.308C326.181 200.743 338.569 194.975 351.252 195.956C353.901 196.155 356.881 196.903 358.126 199.194C358.198 199.141 358.268 199.087 358.337 199.03C358.755 198.686 359.1 198.264 359.351 197.789C359.602 197.314 359.755 196.795 359.802 196.262C359.848 195.73 359.786 195.193 359.621 194.683C359.455 194.174 359.188 193.701 358.835 193.292C358.431 192.934 358.06 192.542 357.726 192.12C357.388 191.485 357.219 190.777 357.236 190.062C356.299 175.389 352.696 160.997 346.597 147.56C346.228 146.584 345.658 145.693 344.923 144.941C343.726 143.753 341.809 143.421 340.365 142.519Z" fill="#6C63FF"/>
<path d="M249.594 265.439C255.84 265.439 260.904 260.489 260.904 254.383C260.904 248.276 255.84 243.326 249.594 243.326C243.348 243.326 238.285 248.276 238.285 254.383C238.285 260.489 243.348 265.439 249.594 265.439Z" fill="#FBBEBE"/>
<path d="M274.637 265.439C280.883 265.439 285.946 260.489 285.946 254.383C285.946 248.276 280.883 243.326 274.637 243.326C268.391 243.326 263.327 248.276 263.327 254.383C263.327 260.489 268.391 265.439 274.637 265.439Z" fill="#FBBEBE"/>
<path d="M344.448 279.297H189.072C187.258 279.295 185.519 278.59 184.236 277.336C182.953 276.082 182.232 274.382 182.229 272.608V180.454C182.232 178.68 182.953 176.98 184.236 175.726C185.519 174.472 187.258 173.767 189.072 173.765H344.448C346.262 173.767 348.001 174.472 349.284 175.726C350.567 176.98 351.288 178.68 351.29 180.454V272.608C351.288 274.382 350.567 276.082 349.284 277.336C348.001 278.59 346.262 279.295 344.448 279.297Z" fill="#3F3D56"/>
<path d="M266.383 230.957C268.883 230.957 270.91 228.975 270.91 226.531C270.91 224.087 268.883 222.105 266.383 222.105C263.883 222.105 261.856 224.087 261.856 226.531C261.856 228.975 263.883 230.957 266.383 230.957Z" fill="white"/>
<path d="M521 260.71H0V276.362H30.8166V280H490.195V276.362H521V260.71Z" fill="#F1F1F1"/>
<path d="M223.472 72.7822C216.74 72.7822 211.281 67.0127 211.281 59.8955V53.4522C211.281 46.3351 216.739 40.5656 223.472 40.5656V72.7822H223.472Z" fill="#6C63FF"/>
<path d="M301.284 40.5656C308.017 40.5656 313.475 46.3351 313.475 53.4522V59.8955C313.475 67.0126 308.017 72.7822 301.284 72.7822V40.5656Z" fill="#6C63FF"/>
<path d="M307.672 54.4647H305.738C305.738 28.5343 285.781 7.43823 261.25 7.43823C236.719 7.43823 216.762 28.5343 216.762 54.4647H214.828C214.828 27.4068 235.652 5.39362 261.25 5.39362C286.847 5.39363 307.672 27.4068 307.672 54.4647Z" fill="#6C63FF"/>
</svg>