<svg width="421" height="232" viewBox="0 0 421 232" fill="none" xmlns="http://www.w3.org/2000/svg">
<g clip-path="url(#clip0)">
<path d="M64.2219 197.749C54.8732 204.718 52.2236 216.98 52.2236 216.98C52.2236 216.98 64.7314 217.942 74.0801 210.973C83.4288 204.004 86.0783 191.743 86.0783 191.743C86.0783 191.743 73.5706 190.78 64.2219 197.749Z" fill="#F1F1F1"/>
<path d="M68.1162 201.021C63.6231 211.781 52.3703 217.326 52.3703 217.326C52.3703 217.326 48.4022 205.425 52.8953 194.665C57.3883 183.905 68.6411 178.36 68.6411 178.36C68.6411 178.36 72.6092 190.261 68.1162 201.021Z" fill="#F1F1F1"/>
<path d="M337.087 169.915C336.093 163.224 335.831 156.445 336.304 149.697L337.087 138.529C332.774 147.11 333.749 158.404 337.087 169.915V169.915Z" fill="#CACACA"/>
<path d="M340.449 171.783C339.971 167.791 339.845 163.763 340.073 159.749L340.449 153.101C338.375 158.209 338.843 164.931 340.449 171.783Z" fill="#CACACA"/>
<path d="M355.397 180.004V183.741C355.395 184.037 355.277 184.322 355.067 184.532C354.857 184.741 354.573 184.86 354.276 184.862H352.408C352.358 184.861 352.31 184.871 352.264 184.89C352.219 184.908 352.178 184.936 352.143 184.971C352.108 185.005 352.081 185.047 352.062 185.092C352.043 185.137 352.034 185.186 352.034 185.235V215.874C352.032 216.171 351.914 216.455 351.704 216.665C351.494 216.875 351.21 216.993 350.913 216.995H328.121C327.824 216.994 327.539 216.876 327.329 216.666C327.118 216.456 327 216.171 327 215.874V185.235C327 185.136 326.96 185.041 326.89 184.971C326.82 184.901 326.725 184.862 326.626 184.862H324.385C324.087 184.861 323.802 184.743 323.592 184.533C323.382 184.323 323.264 184.038 323.264 183.741V180.004C323.263 179.857 323.292 179.711 323.349 179.575C323.405 179.439 323.487 179.315 323.592 179.211C323.696 179.107 323.819 179.024 323.955 178.968C324.091 178.912 324.237 178.883 324.385 178.883H354.276C354.573 178.884 354.857 179.003 355.067 179.213C355.277 179.423 355.396 179.707 355.397 180.004V180.004Z" fill="#F2F2F2"/>
<path d="M352.068 185.646H327.034V186.767H352.068V185.646Z" fill="#E6E6E6"/>
<path d="M352.034 202.14C343.657 205.607 335.189 205.645 326.626 202.14V194.244C334.869 191.475 343.791 191.475 352.034 194.244V202.14Z" fill="#E6E6E6"/>
<path d="M211.716 81.3972C230.416 81.3972 245.576 66.2376 245.576 47.5373C245.576 28.837 230.416 13.6774 211.716 13.6774C193.015 13.6774 177.856 28.837 177.856 47.5373C177.856 66.2376 193.015 81.3972 211.716 81.3972Z" fill="#FEB8B8"/>
<path d="M243.341 18.3258C238.279 10.1053 230.355 4.04796 221.094 1.31976L216.937 4.35319V0.414365C214.713 0.0739678 212.462 -0.0571629 210.214 0.0226973L206.627 3.26763V0.292288C201.318 0.952126 196.202 2.705 191.603 5.44038C187.005 8.17576 183.023 11.8343 179.908 16.1853C172.12 27.413 170.805 43.0332 178.466 54.3509C180.568 47.8885 183.12 41.8249 185.224 35.3631C186.876 35.5884 188.552 35.5965 190.206 35.3872L192.765 29.4177L193.479 35.1346C201.409 34.444 213.171 32.927 220.688 31.5372L219.957 27.1512L224.331 30.7957C226.634 30.2656 228.001 29.7845 227.888 29.417C233.479 38.4305 240.322 44.1873 245.912 53.2008C248.035 40.4913 250.479 29.9235 243.341 18.3258Z" fill="#2F2E41"/>
<path d="M284.539 134.609C283.375 127.604 282.174 120.465 278.918 114.155C276.778 110.021 273.382 106.082 268.803 105.265C267.901 105.185 267.015 104.98 266.169 104.655C264.828 104.009 246.8 93.7176 243.934 91.9251C241.474 90.3863 237.59 87.537 235.632 87.537C233.662 87.4937 226.107 89.2519 196.622 86.947C196.622 86.947 188.522 90.1397 182.254 94.0112C182.159 93.9486 151.651 110.331 150.505 110.288C148.334 110.197 146.317 111.587 145.072 113.337C143.828 115.087 143.245 117.253 142.634 119.348C149.297 134.187 155.394 149.046 162.058 163.885C162.37 164.444 162.536 165.073 162.54 165.713C162.406 166.377 162.123 167.002 161.711 167.541C158.443 172.79 158.547 179.393 158.904 185.563C159.261 191.733 159.703 198.25 156.946 203.781C156.196 205.299 155.22 206.689 154.507 208.207C152.837 211.646 152.233 222.645 153.209 226.339L275.451 229.841C272.822 222.616 284.539 134.609 284.539 134.609Z" fill="#6C63FF"/>
<path d="M132.067 164.543C131.823 166.308 131.799 168.096 131.994 169.866L133.746 195.028C133.911 197.399 134.073 199.765 134.295 202.13C134.716 206.721 135.344 211.276 136.123 215.824C136.141 216.469 136.414 217.082 136.882 217.526C137.351 217.971 137.977 218.212 138.622 218.195C146.335 219.827 154.303 219.762 162.174 219.317C174.185 218.647 204.914 217.379 206.791 214.94C208.669 212.501 207.575 208.556 205.127 206.584C202.679 204.612 162.128 199.805 162.128 199.805C162.524 196.665 163.72 193.708 164.853 190.727C166.89 185.439 168.792 179.978 168.829 174.314C168.865 168.65 166.731 162.695 162.091 159.45C158.275 156.786 153.361 156.292 148.71 156.401C145.326 156.499 139.479 155.688 136.388 157.011C133.942 158.088 132.524 162.148 132.067 164.543Z" fill="#FBBEBE"/>
<path d="M142.281 119.8C141.687 120.422 141.227 121.158 140.928 121.964C136 133.071 133.089 144.967 132.332 157.094C132.345 157.685 132.209 158.27 131.935 158.795C131.666 159.144 131.366 159.468 131.039 159.764C130.754 160.102 130.539 160.493 130.405 160.914C130.271 161.335 130.221 161.779 130.258 162.219C130.296 162.659 130.419 163.088 130.622 163.481C130.825 163.873 131.104 164.222 131.442 164.507C131.497 164.554 131.554 164.599 131.612 164.642C132.618 162.749 135.026 162.13 137.167 161.965C147.415 161.155 157.426 165.923 167.705 165.563C166.98 163.057 165.937 160.649 165.346 158.113C162.73 146.852 169.254 134.591 165.254 123.745C164.455 121.575 163.12 119.441 161.017 118.49C160.146 118.138 159.235 117.897 158.304 117.772C155.707 117.302 150.536 115.296 148.025 116.101C147.098 116.4 146.732 117.272 145.964 117.798C144.797 118.544 143.249 118.818 142.281 119.8Z" fill="#6C63FF"/>
<path d="M284.612 157.011C281.521 155.688 275.674 156.498 272.29 156.401C267.639 156.292 262.725 156.786 258.908 159.45C254.269 162.695 252.135 168.65 252.171 174.314C252.208 179.978 254.11 185.439 256.147 190.727C257.28 193.708 258.476 196.665 258.872 199.805C258.872 199.805 218.321 204.612 215.873 206.584C213.425 208.556 212.331 212.501 214.209 214.94C216.086 217.379 274.665 219.827 282.378 218.195C283.023 218.212 283.649 217.971 284.118 217.526C284.586 217.082 284.859 216.469 284.877 215.824C285.656 211.276 286.284 206.721 286.705 202.131C286.927 199.765 287.089 197.399 287.254 195.028L289.006 169.866C289.201 168.096 289.177 166.308 288.933 164.543C288.476 162.148 287.058 158.088 284.612 157.011Z" fill="#FBBEBE"/>
<path d="M275.036 117.798C274.268 117.272 273.902 116.4 272.975 116.101C270.464 115.296 265.293 117.302 262.696 117.772C261.765 117.897 260.854 118.138 259.983 118.49C257.88 119.441 256.545 121.575 255.746 123.745C251.746 134.591 258.27 146.852 255.654 158.113C255.063 160.649 254.02 163.057 253.295 165.563C263.574 165.923 273.585 161.155 283.833 161.965C285.974 162.13 288.382 162.749 289.388 164.642C289.446 164.599 289.503 164.554 289.558 164.507C289.896 164.222 290.175 163.873 290.378 163.481C290.581 163.088 290.704 162.659 290.742 162.219C290.779 161.779 290.73 161.335 290.596 160.914C290.462 160.493 290.246 160.102 289.961 159.764C289.634 159.468 289.334 159.144 289.065 158.795C288.791 158.27 288.655 157.685 288.668 157.094C287.911 144.967 285 133.071 280.072 121.964C279.773 121.158 279.313 120.422 278.719 119.8C277.751 118.818 276.203 118.544 275.036 117.798Z" fill="#6C63FF"/>
<path d="M201.688 219.397C206.735 219.397 210.826 215.305 210.826 210.258C210.826 205.211 206.735 201.119 201.688 201.119C196.64 201.119 192.549 205.211 192.549 210.258C192.549 215.305 196.64 219.397 201.688 219.397Z" fill="#FBBEBE"/>
<path d="M221.924 219.397C226.971 219.397 231.062 215.305 231.062 210.258C231.062 205.211 226.971 201.119 221.924 201.119C216.876 201.119 212.785 205.211 212.785 210.258C212.785 215.305 216.876 219.397 221.924 219.397Z" fill="#FBBEBE"/>
<path d="M278.335 230.851H152.782C151.316 230.85 149.911 230.267 148.874 229.23C147.837 228.194 147.254 226.788 147.253 225.322V149.153C147.254 147.687 147.837 146.282 148.874 145.245C149.911 144.209 151.316 143.626 152.782 143.624H278.335C279.801 143.626 281.206 144.209 282.243 145.245C283.279 146.282 283.862 147.687 283.864 149.153V225.322C283.862 226.788 283.279 228.194 282.243 229.23C281.206 230.267 279.801 230.85 278.335 230.851Z" fill="#3F3D56"/>
<path d="M215.254 190.896C217.274 190.896 218.912 189.258 218.912 187.238C218.912 185.217 217.274 183.579 215.254 183.579C213.234 183.579 211.596 185.217 211.596 187.238C211.596 189.258 213.234 190.896 215.254 190.896Z" fill="white"/>
<path d="M421 215.487H0V228.425H24.9017V231.432H396.108V228.425H421V215.487Z" fill="#F1F1F1"/>
<path d="M180.579 60.1575C175.139 60.1575 170.728 55.3888 170.728 49.5062V44.1805C170.728 38.2979 175.139 33.5291 180.579 33.5291V60.1575H180.579Z" fill="#6C63FF"/>
<path d="M243.456 33.5291C248.897 33.5291 253.307 38.2979 253.307 44.1805V49.5062C253.307 55.3888 248.897 60.1575 243.456 60.1575V33.5291Z" fill="#6C63FF"/>
<path d="M248.618 45.0174H247.055C247.055 23.5848 230.928 6.14801 211.106 6.14801C191.284 6.14801 175.157 23.5848 175.157 45.0174H173.594C173.594 22.6529 190.422 4.45805 211.106 4.45805C231.79 4.45806 248.618 22.6529 248.618 45.0174Z" fill="#6C63FF"/>
</g>
<defs>
<clipPath id="clip0">
<rect width="421" height="231.432" fill="white"/>
</clipPath>
</defs>
</svg>