<svg width="702" height="486" viewBox="0 0 702 486" fill="none" xmlns="http://www.w3.org/2000/svg">
<path d="M486.382 219.869L490.747 218.075C491.166 217.902 491.577 217.716 492.015 217.536C483.936 214.416 477.11 208.504 472.659 200.774C468.208 193.043 466.396 183.954 467.523 175C468.649 166.046 472.647 157.761 478.857 151.506C485.068 145.252 493.122 141.401 501.696 140.586L498.654 156.671L510.198 140.772H510.3C520.264 142.21 529.277 147.74 535.355 156.147C541.434 164.555 544.08 175.151 542.713 185.605C542.618 186.356 542.466 187.087 542.333 187.825C545.887 184.88 549.22 181.63 551.716 177.855C556.785 170.184 558.502 160.733 560.251 149.161C563.716 126.242 566.84 103.072 569.653 79.9144C561.015 77.1802 553.59 71.3034 548.712 63.3402C543.834 55.3771 541.824 45.8498 543.043 36.4709C543.201 35.2612 543.423 34.0847 543.676 32.9216C543.74 32.6291 543.803 32.3366 543.873 32.0508C544.145 30.9275 544.449 29.8241 544.804 28.7274C544.861 28.548 544.937 28.3818 544.994 28.209C545.311 27.2984 545.628 26.4011 546.039 25.5503C546.179 25.2179 546.318 24.8856 546.464 24.5732C546.901 23.6227 547.364 22.6921 547.87 21.7882C548.042 21.4891 548.225 21.2033 548.396 20.9042C548.789 20.2395 549.201 19.5748 549.625 18.9566C549.854 18.6243 550.075 18.292 550.31 17.9663L550.481 17.7071C555.86 10.3203 563.537 5.14489 572.177 3.08051C580.817 1.01614 589.873 2.19335 597.771 6.40751L593.817 27.3382L605.222 11.6252C611.356 17.0774 615.668 24.4441 617.528 32.6497C619.388 40.8553 618.699 49.4699 615.562 57.2355H615.606C615.498 57.5014 615.365 57.754 615.257 58.0198C615.048 58.5117 614.833 58.9969 614.624 59.4821C614.332 60.1003 613.99 60.7051 613.705 61.3033C613.464 61.7553 613.23 62.2073 612.97 62.6327C612.596 63.2974 612.191 63.8956 611.785 64.5137C611.545 64.8727 611.323 65.2449 611.076 65.5972C610.442 66.5211 609.733 67.4051 609.01 68.2559C608.757 68.555 608.485 68.8275 608.218 69.12C607.705 69.6916 607.192 70.2566 606.647 70.795C606.311 71.1273 605.957 71.4596 605.608 71.7654C605.108 72.2307 604.594 72.6827 604.069 73.0948C603.695 73.4072 603.315 73.7063 602.934 73.9987C602.383 74.4175 601.826 74.8096 601.262 75.2018C600.882 75.461 600.501 75.7202 600.115 75.9662C599.481 76.3716 598.816 76.7438 598.151 77.1094C597.815 77.2889 597.517 77.4883 597.144 77.6611C596.143 78.1729 595.116 78.6448 594.071 79.0636C593.874 79.1433 593.665 79.2031 593.469 79.2763C592.594 79.6086 591.714 79.9409 590.82 80.1736C590.434 80.2866 590.041 80.3796 589.648 80.4793C588.92 80.6654 588.185 80.8383 587.444 80.9845C587.021 81.0643 586.584 81.1374 586.132 81.2038C585.403 81.3168 584.668 81.4032 583.927 81.4697C583.49 81.5096 583.059 81.5495 582.616 81.5761C581.817 81.6159 581.013 81.6226 580.208 81.6159C580.155 81.6126 580.102 81.6126 580.05 81.6159C578.859 91.3646 577.608 101.113 576.299 110.862C579.371 106.51 583.259 102.863 587.723 100.143C592.187 97.4241 597.134 95.6901 602.259 95.0478C607.385 94.4055 612.582 94.8685 617.531 96.4083C622.48 97.9481 627.077 100.532 631.04 104.002L621.105 121.669L637.078 110.642C643.117 119.028 645.737 129.584 644.364 139.995C643.895 143.65 642.935 147.217 641.513 150.59C638.464 157.892 633.393 164.065 626.958 168.307C620.524 172.548 613.022 174.663 605.428 174.376C597.833 174.09 590.496 171.415 584.369 166.699C578.241 161.984 573.607 155.445 571.066 147.931C570.92 148.915 570.781 149.925 570.635 150.895C569.089 161.098 567.169 173.8 560.352 184.129C555.733 191.148 549.372 196.333 543.188 200.893C539.167 203.861 535.053 206.691 530.846 209.381C526.431 213.676 521.103 216.807 515.305 218.513C508.547 222.142 501.643 225.424 494.593 228.357L490.19 230.165C486.23 231.787 482.175 233.449 478.152 235.217C478.786 235.276 479.419 235.33 480.053 235.416C488.025 236.564 495.443 240.342 501.235 246.202C507.027 252.062 510.894 259.702 512.276 268.019L485.47 283.379L512.194 282.123C511.124 288.34 508.642 294.195 504.959 299.192C498.916 307.398 490.058 312.806 480.272 314.263C470.485 315.721 460.543 313.113 452.562 306.995L453.892 309.594C454.779 311.309 455.654 313.017 456.503 314.712C468.116 337.803 468.959 357.743 458.879 370.871L450.642 363.925C460.456 351.15 452.67 330.844 447.158 319.877C446.321 318.215 445.46 316.553 444.623 314.852C437.166 300.342 428.708 283.898 432.097 266.397C437.166 240.009 464.441 228.842 486.382 219.869Z" fill="#F2F2F2"/>
<path d="M170.812 344.975L167.403 343.573C167.073 343.44 166.769 343.287 166.427 343.154C172.734 340.714 178.062 336.095 181.536 330.058C185.01 324.021 186.423 316.923 185.543 309.931C184.663 302.94 181.542 296.47 176.694 291.586C171.845 286.701 165.557 283.693 158.862 283.054L161.238 295.616L152.229 283.2H152.146C148.29 283.752 144.576 285.096 141.215 287.155C137.855 289.214 134.913 291.947 132.56 295.199C130.207 298.451 128.487 302.157 127.499 306.106C126.511 310.055 126.275 314.17 126.803 318.215C126.88 318.807 127 319.372 127.101 319.95C124.306 317.745 121.838 315.118 119.777 312.153C115.83 306.171 114.474 298.78 113.106 289.747C110.426 271.847 107.993 253.755 105.807 235.689C112.55 233.55 118.346 228.958 122.151 222.739C125.957 216.519 127.523 209.079 126.569 201.757C126.442 200.813 126.271 199.896 126.069 198.985L125.916 198.32C125.701 197.443 125.467 196.579 125.188 195.741C125.144 195.602 125.087 195.469 125.036 195.336C124.789 194.625 124.516 193.927 124.225 193.242C124.111 192.99 124.003 192.73 123.889 192.478C123.547 191.74 123.186 191.015 122.793 190.311C122.66 190.072 122.514 189.846 122.381 189.646C122.071 189.128 121.748 188.616 121.418 188.124C121.241 187.865 121.07 187.599 120.886 187.346L120.753 187.147C116.552 181.379 110.558 177.336 103.812 175.718C97.0668 174.101 89.9943 175.012 83.8218 178.293L86.9137 194.645L77.9993 182.375C73.2092 186.633 69.8417 192.386 68.3885 198.794C66.9352 205.202 67.4723 211.93 69.9212 217.995H69.8895C69.9719 218.201 70.0733 218.4 70.162 218.606C70.3267 218.992 70.4914 219.371 70.6688 219.75C70.8969 220.228 71.1377 220.7 71.3911 221.165C71.5749 221.524 71.7586 221.876 71.9613 222.222C72.2528 222.721 72.5949 223.206 72.8864 223.691C73.0764 223.97 73.2475 224.263 73.4439 224.535C73.9508 225.253 74.4893 225.944 75.0532 226.616C75.2496 226.848 75.465 227.061 75.6868 227.28C76.0859 227.726 76.4914 228.164 76.9159 228.61C77.1756 228.876 77.4544 229.121 77.7269 229.367C78.1197 229.735 78.5188 230.087 78.9243 230.424C79.2158 230.664 79.5135 230.896 79.8113 231.129C80.2421 231.455 80.6793 231.794 81.1165 232.066C81.4143 232.272 81.712 232.471 82.0162 232.664C82.5167 232.983 83.0299 233.269 83.5494 233.555C83.8155 233.701 84.0689 233.854 84.335 233.994C85.1207 234.392 85.919 234.758 86.7363 235.084C86.8883 235.15 87.0531 235.19 87.2051 235.25C87.883 235.509 88.5736 235.748 89.2769 235.954C89.5747 236.041 89.9105 236.114 90.1893 236.187C90.7595 236.333 91.3297 236.473 91.9126 236.586L92.9326 236.759C93.5028 236.845 94.0794 236.912 94.656 236.965C94.9981 236.998 95.3339 237.025 95.6823 237.044C96.3159 237.078 96.9495 237.084 97.5831 237.078H97.7034C98.6327 244.708 99.6084 252.332 100.631 259.949C98.2353 256.546 95.2022 253.692 91.7175 251.562C88.2329 249.433 84.3702 248.073 80.3665 247.567C76.3629 247.06 72.3027 247.417 68.4354 248.616C64.568 249.815 60.975 251.83 57.877 254.539L65.5686 268.258L53.0998 259.65C50.761 262.891 49.0537 266.584 48.0753 270.518C47.0969 274.451 46.8667 278.548 47.3977 282.575C47.7655 285.433 48.5185 288.221 49.6342 290.857C52.0158 296.56 55.9761 301.38 61.0013 304.693C66.0265 308.005 71.8847 309.656 77.8157 309.433C83.7466 309.209 89.4767 307.121 94.2623 303.439C99.048 299.757 102.668 294.651 104.654 288.783C104.768 289.547 104.876 290.325 104.99 291.096C106.193 299.072 107.695 308.989 113.017 317.072C116.628 322.549 121.596 326.597 126.423 330.159C129.566 332.481 132.778 334.697 136.06 336.806C139.51 340.161 143.671 342.607 148.199 343.945C153.471 346.776 158.869 349.355 164.381 351.628L167.815 353.044C170.907 354.307 174.074 355.603 177.198 356.986C176.704 357.032 176.203 357.072 175.703 357.145C169.48 358.04 163.689 360.986 159.165 365.558C154.642 370.13 151.621 376.092 150.537 382.583L171.445 394.547L150.575 393.57C151.494 398.735 153.645 403.571 156.828 407.627C160.011 411.684 164.122 414.828 168.777 416.766C173.432 418.704 178.479 419.373 183.447 418.711C188.415 418.049 193.142 416.076 197.187 412.978C196.839 413.643 196.497 414.308 196.148 415.006C195.458 416.335 194.773 417.664 194.108 418.994C185.042 437.026 184.383 452.607 192.258 462.863L198.676 457.439C191.01 447.469 197.092 431.603 201.401 423.035C202.034 421.739 202.725 420.429 203.403 419.113C209.225 407.814 215.827 394.939 213.198 381.267C209.263 360.701 187.943 352.007 170.812 344.975Z" fill="#F2F2F2"/>
<path d="M351 486C544.852 486 702 479.007 702 470.38C702 461.753 544.852 454.76 351 454.76C157.148 454.76 0 461.753 0 470.38C0 479.007 157.148 486 351 486Z" fill="#3F3D56"/>
<path opacity="0.1" d="M351 486C544.852 486 702 479.007 702 470.38C702 461.753 544.852 454.76 351 454.76C157.148 454.76 0 461.753 0 470.38C0 479.007 157.148 486 351 486Z" fill="black"/>
<path d="M351 477.359C544.852 477.359 702 470.366 702 461.739C702 453.113 544.852 446.119 351 446.119C157.148 446.119 0 453.113 0 461.739C0 470.366 157.148 477.359 351 477.359Z" fill="#3F3D56"/>
<path d="M53.8538 456.183C51.9531 452.52 54.1072 448.034 56.5655 444.763C59.0237 441.493 62.0205 438.117 61.9572 433.936C61.8685 427.954 55.8115 424.424 50.9774 421.254C47.3905 418.899 44.0814 416.108 41.119 412.939C39.8807 411.717 38.8557 410.277 38.0905 408.685C37.0894 406.345 37.1211 403.686 37.1845 401.121C37.3956 392.586 37.7969 384.06 38.3882 375.544" stroke="#3F3D56" stroke-width="4" stroke-miterlimit="10"/>
<path d="M29.2141 375.072C29.2825 373.51 29.7247 371.992 30.4998 370.658C31.2749 369.323 32.358 368.214 33.6491 367.435L35.6386 371.562L35.5815 366.564C36.5303 366.268 37.5199 366.142 38.5086 366.192C40.2592 366.281 41.9452 366.913 43.3538 368.008C44.7624 369.102 45.8304 370.609 46.423 372.34C47.0156 374.07 47.1063 375.946 46.6835 377.73C46.2608 379.515 45.3436 381.128 44.0478 382.366C42.7519 383.604 41.1355 384.412 39.4025 384.687C37.6696 384.962 35.8978 384.692 34.3108 383.912C32.7238 383.131 31.3927 381.875 30.4856 380.302C29.5785 378.729 29.1361 376.909 29.2141 375.072Z" fill="#6C63FF"/>
<path d="M45.0725 438.216C45.9561 440.061 47.3995 441.546 49.1755 442.435C50.9514 443.325 52.9591 443.57 54.8824 443.132C56.8056 442.693 58.5352 441.596 59.7989 440.013C61.0625 438.43 61.7883 436.451 61.8622 434.388C61.9254 433.099 61.729 431.81 61.2856 430.606C60.6483 428.824 59.5056 427.29 58.0117 426.211C56.5178 425.132 54.7443 424.559 52.9305 424.57C51.1167 424.581 49.3496 425.175 47.8675 426.272C46.3854 427.369 45.2595 428.916 44.6416 430.705L50.1981 435.445L44.0904 433.956C44.087 435.438 44.4238 436.899 45.0725 438.216Z" fill="#6C63FF"/>
<path d="M49.4631 420.104C51.6788 420.28 53.8768 419.577 55.6221 418.134C57.3674 416.691 58.533 414.613 58.8882 412.312C59.2434 410.011 58.7624 407.654 57.5404 405.707C56.3183 403.76 54.4442 402.365 52.2888 401.798L52.3332 405.647L50.3184 401.466C47.9618 401.351 45.6579 402.222 43.9136 403.889C42.1694 405.555 41.1276 407.881 41.0176 410.353C40.9075 412.825 41.7381 415.242 43.3267 417.072C44.9153 418.902 47.1318 419.995 49.4885 420.11L49.4631 420.104Z" fill="#6C63FF"/>
<path d="M27.8772 405.035C29.0421 405.093 30.2063 404.909 31.3035 404.495C32.4007 404.081 33.4093 403.443 34.2718 402.62C35.1343 401.797 35.8337 400.803 36.3302 399.696C36.8267 398.589 37.1105 397.391 37.1654 396.169C37.2203 394.947 37.0453 393.725 36.6503 392.574C36.2552 391.423 35.648 390.365 34.8631 389.46C34.0783 388.555 33.1313 387.822 32.0761 387.301C31.021 386.78 29.8784 386.482 28.7135 386.424C27.0507 386.338 25.3985 386.748 23.9491 387.608L25.5203 392.127L22.2828 388.87C20.5512 390.534 19.5191 392.85 19.4127 395.311C19.3697 396.171 19.4466 397.033 19.6408 397.87C20.083 399.842 21.1266 401.609 22.6132 402.902C24.0998 404.196 25.948 404.945 27.8772 405.035Z" fill="#6C63FF"/>
<path opacity="0.1" d="M30.4116 377.558C32.4643 377.797 34.4601 378.468 36.5192 378.601C38.5783 378.734 40.8402 378.216 42.1453 376.541C42.8486 375.63 43.1971 374.487 43.7863 373.503C44.3507 372.584 45.1206 371.825 46.0292 371.29C46.5657 372.466 46.8604 373.748 46.8943 375.052C46.9282 376.355 46.7005 377.652 46.226 378.858C45.7515 380.063 45.0407 381.15 44.1397 382.049C43.2388 382.948 42.1679 383.638 40.9964 384.074C39.8249 384.511 38.579 384.684 37.3396 384.583C36.1001 384.482 34.8948 384.108 33.8017 383.487C32.7087 382.866 31.7524 382.01 30.9948 380.976C30.2372 379.942 29.6953 378.752 29.4042 377.485C29.74 377.498 30.0758 377.524 30.4116 377.558Z" fill="black"/>
<path opacity="0.1" d="M27.8772 405.035C29.4108 405.117 30.9383 404.78 32.3103 404.056C33.6823 403.333 34.8517 402.248 35.7042 400.908C36.5567 399.568 37.0631 398.019 37.1737 396.412C37.2844 394.806 36.9955 393.196 36.3355 391.742C35.6296 392.242 35.0229 392.881 34.5488 393.623C33.9152 394.627 33.5287 395.783 32.7874 396.707C31.3999 398.415 29.0367 398.974 26.8889 398.867C24.7411 398.761 22.6693 398.129 20.5531 397.923C20.2554 397.923 19.9576 397.87 19.6598 397.864C20.0999 399.834 21.1402 401.6 22.6231 402.894C24.1059 404.188 25.9505 404.94 27.8772 405.035Z" fill="black"/>
<path opacity="0.1" d="M49.4631 420.104C50.9829 420.186 52.4973 419.856 53.8605 419.146C55.2237 418.437 56.39 417.371 57.2472 416.052C58.1044 414.733 58.6236 413.204 58.755 411.614C58.8864 410.023 58.6254 408.424 57.9973 406.97C57.2585 407.474 56.6143 408.116 56.0966 408.864C55.406 409.888 54.9752 411.064 54.1959 412.008C52.7006 413.763 50.179 414.381 47.9045 414.321C45.63 414.261 43.5835 413.703 41.3914 413.53C41.9264 415.365 42.9893 416.982 44.4343 418.159C45.8793 419.336 47.6357 420.015 49.4631 420.104Z" fill="black"/>
<path opacity="0.1" d="M45.0724 438.216C45.956 440.061 47.3995 441.546 49.1754 442.435C50.9514 443.325 52.9591 443.57 54.8824 443.132C56.8056 442.693 58.5352 441.596 59.7988 440.013C61.0625 438.43 61.7883 436.451 61.8622 434.388C61.9254 433.099 61.729 431.81 61.2856 430.606C60.553 431.108 59.8954 431.722 59.3342 432.427C58.4852 433.51 57.934 434.733 56.952 435.75C55.1336 437.625 52.2002 438.409 49.5898 438.469C48.0807 438.475 46.5724 438.391 45.0724 438.216Z" fill="black"/>
<path d="M67.2792 451.968C67.2792 451.968 60.2592 451.742 58.1494 450.161C56.0396 448.579 47.3787 446.691 46.8275 449.23C46.2763 451.769 36.2785 461.859 44.2045 461.899C52.1305 461.939 62.6161 460.569 64.7259 459.24C66.8357 457.911 67.2792 451.968 67.2792 451.968Z" fill="#656380"/>
<path opacity="0.2" d="M44.0587 461.015C51.9847 461.081 62.4704 459.685 64.5865 458.356C66.1895 457.332 66.8294 453.643 67.0448 451.942H67.2792C67.2792 451.942 66.8357 457.877 64.7449 459.253C62.6541 460.629 52.1431 461.965 44.2235 461.912C41.9363 461.912 41.1443 461.041 41.1886 459.772C41.4864 460.523 42.3608 461.015 44.0587 461.015Z" fill="black"/>
<path d="M668.421 462.165C666.52 458.502 668.674 454.016 671.132 450.745C673.591 447.475 676.587 444.099 676.524 439.918C676.435 433.936 670.378 430.406 665.544 427.236C661.957 424.881 658.648 422.09 655.686 418.921C654.447 417.699 653.423 416.259 652.657 414.667C651.656 412.327 651.688 409.668 651.751 407.103C651.958 398.568 652.359 390.043 652.955 381.526" stroke="#3F3D56" stroke-width="4" stroke-miterlimit="10"/>
<path d="M643.781 381.054C643.849 379.493 644.291 377.974 645.067 376.64C645.842 375.305 646.925 374.197 648.216 373.417L650.205 377.544L650.148 372.546C651.097 372.25 652.087 372.124 653.075 372.174C654.826 372.265 656.511 372.898 657.919 373.993C659.326 375.088 660.393 376.596 660.985 378.326C661.577 380.057 661.666 381.932 661.243 383.716C660.82 385.5 659.902 387.112 658.606 388.35C657.31 389.587 655.694 390.394 653.961 390.669C652.228 390.944 650.457 390.674 648.87 389.893C647.283 389.113 645.953 387.856 645.046 386.283C644.139 384.71 643.697 382.89 643.774 381.054H643.781Z" fill="#6C63FF"/>
<path d="M659.639 444.198C660.523 446.043 661.966 447.528 663.742 448.418C665.518 449.307 667.526 449.552 669.449 449.114C671.372 448.675 673.102 447.578 674.366 445.995C675.629 444.412 676.355 442.433 676.429 440.37C676.492 439.081 676.296 437.792 675.852 436.588C675.215 434.806 674.072 433.272 672.578 432.193C671.085 431.114 669.311 430.541 667.497 430.552C665.683 430.563 663.916 431.157 662.434 432.254C660.952 433.351 659.826 434.898 659.208 436.687L664.765 441.427L658.657 439.938C658.654 441.42 658.991 442.881 659.639 444.198Z" fill="#6C63FF"/>
<path d="M664.03 426.086C666.246 426.262 668.444 425.559 670.189 424.116C671.934 422.673 673.1 420.596 673.455 418.294C673.81 415.993 673.329 413.636 672.107 411.689C670.885 409.742 669.011 408.347 666.856 407.781L666.9 411.629L664.885 407.448C662.529 407.333 660.225 408.204 658.48 409.871C656.736 411.537 655.694 413.863 655.584 416.335C655.474 418.807 656.305 421.224 657.894 423.054C659.482 424.884 661.699 425.977 664.055 426.093L664.03 426.086Z" fill="#6C63FF"/>
<path d="M642.444 411.018C644.797 411.134 647.097 410.265 648.839 408.602C650.58 406.939 651.621 404.619 651.732 402.151C651.843 399.683 651.015 397.27 649.43 395.442C647.845 393.615 645.633 392.523 643.28 392.407C641.617 392.32 639.965 392.73 638.516 393.59L640.087 398.109L636.85 394.853C635.118 396.516 634.086 398.832 633.98 401.293C633.937 402.153 634.013 403.015 634.208 403.852C634.65 405.824 635.693 407.591 637.18 408.885C638.667 410.178 640.515 410.927 642.444 411.018Z" fill="#6C63FF"/>
<path opacity="0.1" d="M644.978 383.54C647.031 383.779 649.027 384.45 651.086 384.583C653.145 384.716 655.407 384.198 656.712 382.523C657.415 381.612 657.764 380.469 658.353 379.485C658.917 378.567 659.687 377.807 660.596 377.272C661.132 378.448 661.427 379.73 661.461 381.034C661.495 382.338 661.267 383.634 660.793 384.84C660.318 386.045 659.607 387.132 658.707 388.031C657.806 388.93 656.735 389.62 655.563 390.056C654.392 390.493 653.146 390.666 651.906 390.565C650.667 390.464 649.462 390.091 648.369 389.469C647.276 388.848 646.319 387.992 645.562 386.958C644.804 385.924 644.262 384.735 643.971 383.467C644.307 383.48 644.643 383.507 644.978 383.54Z" fill="black"/>
<path opacity="0.1" d="M642.444 411.018C643.978 411.099 645.505 410.762 646.877 410.038C648.249 409.315 649.419 408.23 650.271 406.89C651.124 405.55 651.63 404.001 651.741 402.395C651.851 400.788 651.562 399.179 650.902 397.724C650.196 398.224 649.59 398.863 649.116 399.605C648.482 400.609 648.096 401.765 647.354 402.689C645.967 404.397 643.603 404.956 641.456 404.849C639.308 404.743 637.236 404.112 635.12 403.906C634.822 403.906 634.524 403.852 634.227 403.846C634.667 405.816 635.707 407.582 637.19 408.876C638.673 410.17 640.517 410.922 642.444 411.018Z" fill="black"/>
<path opacity="0.1" d="M664.03 426.086C665.55 426.168 667.064 425.838 668.427 425.128C669.791 424.419 670.957 423.353 671.814 422.034C672.671 420.715 673.19 419.186 673.322 417.596C673.453 416.005 673.192 414.406 672.564 412.952C671.825 413.456 671.181 414.098 670.663 414.846C669.973 415.87 669.542 417.046 668.763 417.99C667.267 419.745 664.746 420.363 662.471 420.303C660.197 420.243 658.15 419.685 655.958 419.512C656.493 421.347 657.556 422.964 659.001 424.141C660.446 425.318 662.203 425.997 664.03 426.086Z" fill="black"/>
<path opacity="0.1" d="M659.639 444.198C660.523 446.043 661.966 447.528 663.742 448.418C665.518 449.308 667.526 449.552 669.449 449.114C671.372 448.675 673.102 447.578 674.366 445.995C675.629 444.412 676.355 442.433 676.429 440.37C676.492 439.081 676.296 437.792 675.852 436.588C675.12 437.091 674.462 437.704 673.901 438.409C673.052 439.492 672.501 440.715 671.519 441.732C669.7 443.607 666.767 444.391 664.157 444.451C662.647 444.457 661.139 444.373 659.639 444.198Z" fill="black"/>
<path d="M681.846 457.951C681.846 457.951 674.826 457.725 672.716 456.143C670.606 454.561 661.945 452.673 661.394 455.212C660.843 457.751 650.845 467.841 658.771 467.881C666.697 467.921 677.183 466.552 679.293 465.222C681.402 463.893 681.846 457.951 681.846 457.951Z" fill="#656380"/>
<path opacity="0.2" d="M658.626 466.997C666.552 467.063 677.037 465.667 679.153 464.338C680.756 463.315 681.396 459.626 681.611 457.924H681.846C681.846 457.924 681.402 463.86 679.312 465.235C677.221 466.611 666.71 467.947 658.79 467.894C656.503 467.894 655.711 467.023 655.755 465.754C656.053 466.505 656.928 466.997 658.626 466.997Z" fill="black"/>
<path d="M472.374 220.108C468.184 218.602 463.96 217.206 459.702 215.921C460.403 212.912 461.056 209.888 461.66 206.848C471.252 157.988 464.98 118.625 443.559 105.671C423.018 93.2412 389.426 106.202 355.492 137.17C352.147 140.236 348.88 143.382 345.691 146.608C343.549 144.459 341.374 142.352 339.165 140.287C303.615 107.166 268.002 93.2146 246.574 106.209C226.053 118.672 219.964 155.674 228.613 201.983C229.457 206.569 230.427 211.129 231.521 215.662C226.484 217.164 221.612 218.766 216.948 220.474C175.266 235.688 148.643 259.617 148.643 284.403C148.643 310 177.223 335.676 220.642 351.243C224.165 352.497 227.713 353.662 231.286 354.739C230.129 359.613 229.098 364.528 228.194 369.482C219.958 414.986 226.395 451.118 246.859 463.501C268.002 476.302 303.482 463.142 338.024 431.463C340.755 428.957 343.492 426.298 346.261 423.52C349.716 427.016 353.262 430.411 356.899 433.703C390.364 463.913 423.424 476.116 443.863 463.693C464.98 450.872 471.842 412.054 462.934 364.836C462.258 361.229 461.47 357.549 460.57 353.795C463.067 353.024 465.508 352.224 467.894 351.396C513.03 335.709 542.403 310.345 542.403 284.403C542.403 259.524 514.918 235.469 472.393 220.108H472.374Z" fill="#53C1DE"/>
<path d="M462.585 334.646C460.431 335.397 458.226 336.115 455.97 336.819C450.467 318.92 443.806 301.436 436.032 284.489C443.509 267.768 449.912 250.541 455.198 232.923C459.221 234.146 463.136 235.436 466.9 236.799C503.336 249.953 525.562 269.408 525.562 284.403C525.562 300.355 501.556 321.1 462.585 334.646ZM446.416 368.265C450.357 389.143 450.915 408.02 448.317 422.769C445.973 436.029 441.259 444.87 435.43 448.412C423.018 455.943 396.484 446.153 367.866 420.316C364.584 417.352 361.283 414.195 357.963 410.845C369.894 396.987 380.92 382.299 390.966 366.883C408.91 365.288 426.727 362.401 444.294 358.242C445.096 361.645 445.808 364.969 446.429 368.212L446.416 368.265ZM282.878 447.123C270.751 451.616 261.096 451.742 255.261 448.213C242.843 440.695 237.679 411.656 244.724 372.772C245.569 368.177 246.526 363.606 247.594 359.06C265.088 363 282.816 365.694 300.656 367.122C310.995 382.485 322.287 397.117 334.457 410.925C332.012 413.41 329.511 415.828 326.956 418.176C311.68 432.188 296.367 442.105 282.878 447.123ZM226.085 334.546C206.881 327.66 191.029 318.714 180.157 308.956C170.393 300.182 165.464 291.468 165.464 284.403C165.464 269.361 186.841 250.172 222.486 237.138C226.963 235.502 231.48 234.011 236.038 232.664C241.333 250.477 247.743 267.903 255.229 284.828C247.65 301.996 241.161 319.671 235.804 337.737C232.534 336.757 229.295 335.694 226.085 334.546ZM245.123 198.593C237.723 158.918 242.633 128.988 255.001 121.49C268.173 113.514 297.298 124.893 328.001 153.494C329.965 155.322 331.936 157.236 333.906 159.211C321.823 172.934 310.62 187.482 300.371 202.76C282.699 204.423 265.148 207.285 247.829 211.328C246.819 207.11 245.918 202.867 245.123 198.599V198.593ZM414.991 242.588C411.143 235.613 407.154 228.727 403.023 221.93C415.586 223.598 427.618 225.805 438.921 228.517C435.294 240.587 431.088 252.458 426.319 264.084C422.683 256.839 418.906 249.673 414.991 242.588ZM345.703 171.82C353.891 181.185 361.624 190.977 368.873 201.158C353.367 200.392 337.855 200.392 322.337 201.158C329.984 190.577 337.822 180.74 345.703 171.826V171.82ZM276.01 242.708C272.145 249.74 268.439 256.861 264.891 264.07C259.993 251.887 255.805 239.903 252.384 228.331C263.617 225.672 275.598 223.538 288.08 221.896C283.89 228.738 279.862 235.675 275.997 242.708H276.01ZM288.435 348.159C276.252 346.771 264.145 344.728 252.162 342.037C255.641 330.266 259.924 318.022 264.929 305.573C268.49 312.791 272.209 319.917 276.086 326.949C280.031 334.123 284.143 341.193 288.422 348.159H288.435ZM346.178 398.229C338.195 389.229 330.244 379.259 322.489 368.485C330.029 368.799 337.708 368.957 345.526 368.957C353.551 368.957 361.473 368.771 369.291 368.398C362.074 378.75 354.356 388.707 346.166 398.229H346.178ZM426.446 304.941C431.462 316.803 435.886 328.929 439.7 341.273C427.569 344.136 415.303 346.331 402.953 347.846C407.113 340.921 411.143 333.913 415.042 326.823C419.004 319.618 422.805 312.324 426.446 304.941ZM400.469 318.009C394.505 328.874 388.21 339.531 381.583 349.98C369.899 350.857 357.83 351.309 345.526 351.309C333.222 351.309 321.355 350.911 309.875 350.126C303.079 339.713 296.66 329.04 290.62 318.109C284.58 307.177 278.982 296.081 273.824 284.822C279.007 273.509 284.589 262.409 290.57 251.521C296.542 240.638 302.905 230.003 309.659 219.617C321.374 218.686 333.374 218.201 345.513 218.201C357.653 218.201 369.728 218.693 381.431 219.623C388.108 229.979 394.444 240.572 400.438 251.402C406.431 262.231 412.089 273.281 417.411 284.549C412.153 295.902 406.512 307.046 400.488 317.982L400.469 318.009ZM435.17 120.958C448.355 128.934 453.481 161.105 445.2 203.292C444.655 206.035 444.064 208.771 443.426 211.501C426.081 207.376 408.494 204.46 390.782 202.774C380.632 187.482 369.513 172.923 357.5 159.197C360.457 156.211 363.475 153.306 366.554 150.483C395.623 123.943 422.79 113.467 435.17 120.958Z" fill="white"/>
<path d="M345.513 247.513C352.468 247.513 359.266 249.677 365.049 253.73C370.832 257.784 375.339 263.545 378 270.286C380.661 277.026 381.358 284.444 380.001 291.6C378.644 298.756 375.295 305.329 370.378 310.488C365.46 315.647 359.194 319.16 352.373 320.584C345.552 322.007 338.482 321.277 332.057 318.484C325.632 315.692 320.14 310.964 316.276 304.898C312.412 298.831 310.35 291.699 310.35 284.403C310.349 279.558 311.258 274.761 313.025 270.285C314.792 265.809 317.382 261.742 320.647 258.316C323.913 254.89 327.789 252.173 332.056 250.319C336.322 248.466 340.895 247.512 345.513 247.513Z" fill="#53C1DE"/>
<path d="M354.333 13.5594C354.333 15.7417 353.716 17.8749 352.56 19.6894C351.404 21.5039 349.762 22.9181 347.84 23.7532C345.918 24.5883 343.804 24.8068 341.763 24.3811C339.723 23.9554 337.849 22.9045 336.378 21.3614C334.908 19.8183 333.906 17.8523 333.5 15.712C333.094 13.5717 333.303 11.3532 334.099 9.33705C334.895 7.32091 336.243 5.59768 337.972 4.38529C339.702 3.17289 341.735 2.52578 343.815 2.52578C345.198 2.51873 346.569 2.79932 347.848 3.35132C349.127 3.90332 350.289 4.71578 351.267 5.74176C352.245 6.76774 353.02 7.98688 353.546 9.32873C354.072 10.6706 354.339 12.1085 354.333 13.5594Z" fill="#3F3D56"/>
<path d="M335.414 16.3445C334.58 14.764 334.129 12.9931 334.099 11.187C334.069 9.3809 334.462 7.59469 335.243 5.98485C336.024 4.375 337.169 2.99064 338.579 1.95304C339.988 0.915434 341.619 0.256251 343.327 0.0332349C341.878 -0.0200002 340.435 0.241641 339.087 0.80173C337.739 1.36182 336.516 2.20825 335.494 3.28789C334.473 4.36752 333.675 5.65702 333.152 7.07542C332.628 8.49383 332.39 10.0105 332.452 11.5302C332.513 13.0498 332.874 14.5397 333.511 15.9062C334.147 17.2727 335.047 18.4863 336.152 19.4708C337.257 20.4553 338.544 21.1895 339.933 21.6272C341.322 22.0648 342.781 22.1966 344.221 22.0142C342.412 21.9441 340.651 21.3854 339.108 20.3921C337.565 19.3989 336.293 18.0047 335.414 16.3445Z" fill="#3F3D56"/>
<path d="M358.844 28.9268H330.669V75.0356H358.844V28.9268Z" fill="#3F3D56"/>
<path opacity="0.1" d="M358.844 28.9268H330.669V75.0356H358.844V28.9268Z" fill="black"/>
<path d="M286.16 196.213C286.16 196.213 283.151 204.887 276.023 206.07C268.895 207.254 264.752 209.221 264.752 209.221L281.655 220.647L290.671 219.464C290.671 219.464 291.799 207.247 295.556 204.488C299.313 201.73 286.16 196.213 286.16 196.213Z" fill="#A0616A"/>
<path d="M408.237 196.213C408.237 196.213 411.247 204.887 418.374 206.07C425.502 207.254 429.646 209.221 429.646 209.221L412.742 220.647L403.726 219.464C403.726 219.464 402.598 207.247 398.841 204.488C395.084 201.73 408.237 196.213 408.237 196.213Z" fill="#A0616A"/>
<path d="M325.974 119.762C325.974 119.762 321.469 122.128 319.968 126.861C319.968 126.861 311.731 129.619 307.195 137.103C307.195 137.103 301.556 143.411 300.808 146.562C300.061 149.712 291.444 168.629 291.444 168.629C291.444 168.629 282.802 198.187 278.297 201.338C278.297 201.338 292.572 198.187 295.201 213.163C295.201 213.163 298.578 213.163 302.335 199.37C306.092 185.578 315.108 168.629 315.108 168.629C315.108 168.629 318.111 156.811 320.741 154.837C323.37 152.863 327.501 143.803 331.258 146.196C335.015 148.589 359.807 145.797 359.807 145.797C359.807 145.797 374.442 152.87 374.81 157.595C375.177 162.321 377.813 162.72 378.187 166.662C378.56 170.603 392.461 201.73 392.461 201.73C392.461 201.73 395.09 210.371 395.844 212.365C395.844 212.365 404.081 191.481 415.004 203.305C415.004 203.305 414.624 195.422 411.247 190.676C407.87 185.931 393.215 148.908 393.215 148.908C393.215 148.908 391.713 143.391 390.212 141.816C388.71 140.241 377.059 127.625 372.928 127.625C372.928 127.625 370.679 121.716 368.049 120.925L325.974 119.762Z" fill="#3F3D56"/>
<path d="M292.166 216.705C289.232 217.941 286.044 218.358 282.91 217.917C279.777 217.476 276.806 216.19 274.287 214.186C271.839 212.214 269.158 210.583 266.31 209.334C262.325 207.646 257.561 206.396 256.11 209.221C253.48 214.346 288.035 226.955 288.035 226.955C288.035 226.955 292.546 224.196 292.166 216.705Z" fill="#3F3D56"/>
<path d="M402.231 216.705C405.165 217.941 408.354 218.358 411.487 217.917C414.62 217.476 417.591 216.19 420.11 214.186C422.558 212.214 425.239 210.583 428.087 209.334C432.072 207.646 436.837 206.396 438.288 209.221C440.917 214.346 406.362 226.955 406.362 226.955C406.362 226.955 401.851 224.196 402.231 216.705Z" fill="#3F3D56"/>
<path d="M338.253 54.949C338.113 56.3183 337.682 57.8005 336.567 58.525C335.655 59.1232 334.502 59.0767 333.45 59.3027C332.346 59.5928 331.322 60.1512 330.461 60.9328C329.601 61.7145 328.927 62.6975 328.495 63.8025C327.652 66.0327 327.486 68.4819 328.02 70.8149C328.269 71.9574 328.591 73.0811 328.983 74.1782C330.086 77.4484 331.416 80.692 333.475 83.4106C335.232 85.5718 337.208 87.5263 339.368 89.2398C340.704 90.3831 342.086 91.5462 343.733 92.0846C344.85 92.394 345.999 92.5547 347.154 92.5632C348.58 92.6297 350.1 92.6762 351.336 91.9318C353.237 90.7819 353.8 88.2428 354.833 86.2022C355.707 84.4741 357.013 83.0051 357.83 81.2437C358.411 79.8554 358.836 78.4011 359.097 76.91L360.852 68.7345C361.486 65.7634 362.069 62.4134 360.478 59.8676C360.363 59.6605 360.202 59.4851 360.009 59.3558C359.703 59.2293 359.37 59.1947 359.046 59.2561C357.026 59.3939 355.012 58.9112 353.249 57.867C352.973 57.7171 352.726 57.5142 352.521 57.2688C352.267 56.843 352.115 56.3598 352.077 55.8596C351.906 54.8467 351.634 53.8554 351.266 52.9018C351.162 52.5581 350.972 52.2503 350.715 52.0111C350.445 51.8337 350.139 51.7266 349.822 51.6987C347.109 51.2371 344.374 50.9375 341.629 50.8014C340.73 50.7549 339.374 50.376 338.753 51.2135C338.132 52.051 338.329 53.952 338.253 54.949Z" fill="#A0616A"/>
<path opacity="0.1" d="M338.253 54.949C338.113 56.3183 337.682 57.8005 336.567 58.525C335.655 59.1232 334.502 59.0767 333.45 59.3027C332.346 59.5928 331.322 60.1512 330.461 60.9328C329.601 61.7145 328.927 62.6975 328.495 63.8025C327.652 66.0327 327.486 68.4819 328.02 70.8149C328.269 71.9574 328.591 73.0811 328.983 74.1782C330.086 77.4484 331.416 80.692 333.475 83.4106C335.232 85.5718 337.208 87.5263 339.368 89.2398C340.704 90.3831 342.086 91.5462 343.733 92.0846C344.85 92.394 345.999 92.5547 347.154 92.5632C348.58 92.6297 350.1 92.6762 351.336 91.9318C353.237 90.7819 353.8 88.2428 354.833 86.2022C355.707 84.4741 357.013 83.0051 357.83 81.2437C358.411 79.8554 358.836 78.4011 359.097 76.91L360.852 68.7345C361.486 65.7634 362.069 62.4134 360.478 59.8676C360.363 59.6605 360.202 59.4851 360.009 59.3558C359.703 59.2293 359.37 59.1947 359.046 59.2561C357.026 59.3939 355.012 58.9112 353.249 57.867C352.973 57.7171 352.726 57.5142 352.521 57.2688C352.267 56.843 352.115 56.3598 352.077 55.8596C351.906 54.8467 351.634 53.8554 351.266 52.9018C351.162 52.5581 350.972 52.2503 350.715 52.0111C350.445 51.8337 350.139 51.7266 349.822 51.6987C347.109 51.2371 344.374 50.9375 341.629 50.8014C340.73 50.7549 339.374 50.376 338.753 51.2135C338.132 52.051 338.329 53.952 338.253 54.949Z" fill="black"/>
<path d="M333.165 59.6483C331.698 59.1886 330.178 58.9382 328.647 58.9039C325.023 58.8108 321.146 60.1202 319.055 63.2243C317.631 65.4648 317.109 68.2056 317.604 70.8481C318.109 73.466 319.243 75.905 320.899 77.9336C321.856 79 322.705 80.1671 323.433 81.4165C324.434 83.4106 324.466 85.7968 324.738 88.0633C325.372 93.4605 327.564 98.532 328.432 103.896C329.3 109.26 328.552 115.475 324.517 118.884C323.839 119.456 323.015 120.061 322.958 120.972C322.869 122.427 324.675 123.045 326.063 123.185C330.212 123.597 334.47 124.003 338.5 122.879C340.166 122.414 341.775 121.689 343.473 121.357C347.781 120.513 352.115 122.248 356.43 123.079C359.552 123.619 362.712 123.888 365.876 123.883C366.613 123.952 367.355 123.85 368.049 123.584C368.394 123.442 368.686 123.189 368.884 122.862C369.082 122.535 369.176 122.15 369.152 121.763C369.011 121.261 368.754 120.805 368.404 120.433C366.225 117.608 365.56 113.853 364.964 110.27L362.968 98.2329C361.897 91.7988 360.903 84.8064 363.805 79.0303C365.889 74.8761 369.735 71.9515 371.933 67.8637C372.7 66.6282 373.046 65.1573 372.915 63.6895C372.586 61.6357 370.818 60.1667 369.006 59.3093C365.52 57.6685 361.561 57.5159 357.969 58.8839C358.033 61.762 357.336 64.6733 356.886 67.5247L356.119 72.1775C355.729 74.9195 355.155 77.6292 354.402 80.2866C354.129 81.3497 353.662 82.3473 353.027 83.2245C352.351 84.0136 351.524 84.6454 350.601 85.0789C348.601 86.1047 346.402 86.6324 344.176 86.621C343.212 86.6365 342.253 86.4814 341.338 86.1623C339.864 85.4845 338.535 84.5036 337.429 83.2776C337.041 82.93 336.695 82.535 336.396 82.1011C336.08 81.5487 335.844 80.9508 335.693 80.3265C335.18 78.7007 334.775 77.0394 334.483 75.3547C334.293 74.0652 334.229 72.7558 334.141 71.453C333.894 67.6045 333.893 63.3506 333.165 59.6483Z" fill="#6C63FF"/>
<path d="M329.357 135.92C329.357 135.92 327.856 156.811 337.245 160.354C346.635 163.897 338.373 143.012 338.373 143.012L335.363 136.711L329.357 135.92Z" fill="#A0616A"/>
<path d="M361.283 135.92C361.283 135.92 362.785 156.811 353.395 160.354C344.005 163.897 352.267 143.012 352.267 143.012L355.277 136.711L361.283 135.92Z" fill="#A0616A"/>
<path opacity="0.1" d="M321.089 66.1954L318.086 71.3201C318.086 71.3201 320.715 89.0537 321.089 92.2043C321.413 94.4777 321.918 96.7188 322.597 98.9042C322.597 98.9042 322.971 108.363 322.971 111.912C322.971 115.461 324.871 121.37 324.871 121.37C325.137 124.72 325.774 128.026 326.772 131.221C328.274 135.555 329.775 140.679 329.775 140.679C329.775 140.679 331.676 135.162 339.165 143.438C340.004 142.545 340.474 141.341 340.474 140.088C340.474 138.834 340.004 137.631 339.165 136.738C339.165 136.738 336.916 126.103 336.916 120.579C336.916 115.056 332.778 88.6748 332.778 88.6748C332.778 88.6748 330.092 58.6845 321.089 66.1954Z" fill="black"/>
<path d="M320.341 65.7766L317.338 70.9013C317.338 70.9013 319.968 88.6349 320.341 91.7855C320.667 94.0593 321.173 96.3005 321.856 98.4855C321.856 98.4855 322.229 107.944 322.229 111.487C322.229 115.029 324.13 120.945 324.13 120.945C324.394 124.295 325.032 127.602 326.031 130.796C327.532 135.136 329.04 140.254 329.04 140.254C329.04 140.254 330.941 134.737 338.43 143.012C339.267 142.12 339.736 140.918 339.736 139.666C339.736 138.414 339.267 137.212 338.43 136.319C338.43 136.319 336.174 125.684 336.174 120.161C336.174 114.637 332.043 88.2561 332.043 88.2561C332.043 88.2561 329.357 58.2857 320.341 65.7766Z" fill="#6C63FF"/>
<path opacity="0.1" d="M369.925 63.0182L371.826 65.3645C371.826 65.3645 374.037 78.7777 369.152 95.7271L367.65 111.094C367.65 111.094 365.021 124.102 364.647 127.253C364.273 130.403 364.273 130.796 363.519 131.979C363.291 132.255 363.165 132.609 363.165 132.976C363.165 133.342 363.291 133.696 363.519 133.973L361.264 142.614C361.264 142.614 357.887 138.28 351.127 143.797C351.127 143.797 349.226 140.646 350.747 137.888C352.267 135.129 352.248 133.946 351.874 133.155C351.501 132.364 353.376 128.429 353.376 127.638C353.376 126.847 356.024 108.735 356.024 108.735C356.024 108.735 357.152 91.0012 358.28 85.0922C358.97 81.4564 358.958 73.354 358.837 67.651C358.717 61.7088 365.572 58.4917 369.608 62.6659C369.703 62.7723 369.817 62.872 369.925 63.0182Z" fill="black"/>
<path d="M371.053 62.2073L372.953 64.5536C372.953 64.5536 375.164 77.9735 370.28 94.9162L368.778 110.284C368.778 110.284 366.149 123.291 365.775 126.442C365.401 129.592 365.395 129.991 364.647 131.174C364.417 131.451 364.291 131.805 364.291 132.171C364.291 132.538 364.417 132.892 364.647 133.168L362.404 141.836C362.404 141.836 359.027 137.496 352.267 143.012C352.267 143.012 350.366 139.862 351.893 137.103C353.42 134.345 353.395 133.162 353.021 132.377C352.647 131.593 354.523 127.645 354.523 126.861C354.523 126.076 357.152 107.944 357.152 107.944C357.152 107.944 358.28 90.2102 359.408 84.2946C360.535 78.3789 359.781 60.652 359.781 60.652C359.781 60.652 365.794 56.3182 371.053 62.2073Z" fill="#6C63FF"/>
<path d="M345.881 56.7171C354.181 56.7171 360.909 49.6583 360.909 40.9509C360.909 32.2435 354.181 25.1847 345.881 25.1847C337.581 25.1847 330.852 32.2435 330.852 40.9509C330.852 49.6583 337.581 56.7171 345.881 56.7171Z" fill="#A0616A"/>
<path opacity="0.1" d="M353.718 17.2817C352.996 19.3972 351.675 21.2308 349.932 22.5374C348.189 23.8439 346.108 24.5611 343.966 24.5929C341.824 24.6247 339.724 23.9696 337.947 22.7153C336.169 21.461 334.799 19.6673 334.02 17.5741C339.887 15.0949 345.881 17.3016 345.881 17.3016C348.878 16.1982 351.475 16.2979 353.718 17.2817Z" fill="black"/>
<path d="M345.881 18.0926C345.881 18.0926 316.958 7.45769 324.098 59.0767C324.098 59.0767 330.485 63.4104 335.363 60.652C335.363 60.652 331.986 24.7925 345.133 26.3678C358.28 27.9431 356.024 59.8676 356.024 59.8676C356.024 59.8676 363.538 62.2272 365.794 57.8736C368.049 53.52 365.04 11.027 345.881 18.0926Z" fill="#3F3D56"/>
<path opacity="0.1" d="M345.133 24.0016C336.111 22.9248 334.869 39.4686 334.996 49.9573C335.104 39.5285 336.776 25.3642 345.133 26.3678C354.516 27.4911 356.056 44.0882 356.164 53.4867C356.271 44.8592 355.372 25.2312 345.133 24.0016Z" fill="black"/>
<path opacity="0.1" d="M324.098 56.7104C323.444 52.1919 323.07 47.6338 322.977 43.0646C322.946 48.4247 323.321 53.7789 324.098 59.0767C324.098 59.0767 330.485 63.4104 335.363 60.652C335.363 60.652 335.287 59.8012 335.199 58.3721C330.339 60.9444 324.098 56.7104 324.098 56.7104Z" fill="black"/>
<path opacity="0.1" d="M365.794 55.5605C363.69 59.6018 357.032 57.8271 356.132 57.5545C356.088 59.0168 356.024 59.8942 356.024 59.8942C356.024 59.8942 363.538 62.2538 365.794 57.9002C366.256 57.0095 366.497 54.4904 366.427 51.1205C366.364 53.2807 366.142 54.8958 365.794 55.5605Z" fill="black"/>
<path d="M523.795 447.302C526.798 441.466 523.389 434.315 519.474 429.11C515.558 423.906 510.775 418.475 510.876 411.828C511.022 402.29 520.665 396.667 528.375 391.609C534.091 387.859 539.363 383.413 544.082 378.362C545.982 376.335 547.801 374.168 548.909 371.576C550.506 367.853 550.462 363.599 550.36 359.532C550.027 345.923 549.393 332.333 548.46 318.76" stroke="#3F3D56" stroke-width="4" stroke-miterlimit="10"/>
<path d="M563.083 318.042C562.974 315.553 562.27 313.132 561.034 311.004C559.798 308.875 558.071 307.108 556.012 305.865L552.844 312.446L552.939 304.469C550.057 303.575 546.979 303.665 544.149 304.726C541.319 305.787 538.884 307.764 537.195 310.372C535.506 312.979 534.651 316.083 534.754 319.234C534.856 322.385 535.91 325.42 537.764 327.901C539.618 330.382 542.176 332.181 545.068 333.037C547.961 333.894 551.037 333.764 553.854 332.666C556.671 331.568 559.083 329.559 560.741 326.929C562.398 324.299 563.216 321.185 563.076 318.036L563.083 318.042Z" fill="#6C63FF"/>
<path d="M537.816 418.668C536.329 421.701 533.894 424.105 530.918 425.477C527.943 426.849 524.608 427.106 521.473 426.205C518.338 425.304 515.594 423.299 513.701 420.527C511.808 417.756 510.881 414.385 511.076 410.981C511.271 407.577 512.575 404.347 514.77 401.833C516.966 399.318 519.919 397.672 523.134 397.171C526.349 396.669 529.63 397.343 532.428 399.079C535.226 400.814 537.37 403.507 538.5 406.704L529.63 414.261L539.368 411.888C539.373 414.246 538.841 416.57 537.816 418.668Z" fill="#6C63FF"/>
<path d="M530.815 389.801C527.348 389.955 523.947 388.769 521.258 386.469C518.568 384.168 516.777 380.912 516.223 377.318C515.669 373.724 516.392 370.042 518.253 366.97C520.115 363.897 522.986 361.648 526.323 360.648L526.247 366.777L529.452 360.13H529.49C531.358 360.024 533.226 360.307 534.989 360.962C536.751 361.617 538.372 362.632 539.759 363.948C541.146 365.263 542.271 366.854 543.07 368.627C543.868 370.401 544.325 372.323 544.412 374.282C544.499 376.242 544.216 378.2 543.579 380.044C542.942 381.888 541.963 383.582 540.699 385.028C539.435 386.473 537.911 387.642 536.215 388.467C534.518 389.292 532.683 389.757 530.815 389.834V389.801Z" fill="#6C63FF"/>
<path d="M565.218 365.786C563.026 365.894 560.84 365.466 558.832 364.537C556.825 363.607 555.051 362.201 553.649 360.43C552.248 358.659 551.257 356.57 550.756 354.329C550.255 352.088 550.257 349.755 550.762 347.515C551.266 345.274 552.26 343.187 553.664 341.419C555.068 339.65 556.845 338.247 558.853 337.321C560.862 336.395 563.049 335.971 565.241 336.082C567.432 336.194 569.57 336.837 571.484 337.963L568.949 345.161L574.1 339.977C576.163 341.961 577.619 344.542 578.285 347.393C578.951 350.245 578.798 353.239 577.845 355.999C576.891 358.759 575.181 361.162 572.928 362.903C570.675 364.645 567.981 365.648 565.186 365.786H565.218Z" fill="#6C63FF"/>
<path opacity="0.1" d="M561.182 322.004C557.906 322.383 554.726 323.453 551.444 323.665C548.162 323.878 544.557 323.054 542.485 320.342C541.364 318.9 540.806 317.078 539.862 315.503C538.966 314.041 537.741 312.831 536.295 311.98C535.381 313.865 534.861 315.933 534.769 318.046C534.678 320.158 535.017 322.267 535.764 324.231C536.511 326.195 537.648 327.97 539.101 329.436C540.553 330.902 542.287 332.026 544.187 332.734C546.087 333.441 548.108 333.715 550.117 333.538C552.126 333.36 554.075 332.736 555.835 331.705C557.595 330.674 559.126 329.262 560.324 327.561C561.523 325.861 562.361 323.912 562.785 321.844C562.246 321.904 561.714 321.944 561.182 322.004Z" fill="black"/>
<path opacity="0.1" d="M565.218 365.786C562.775 365.904 560.345 365.357 558.163 364.199C555.982 363.041 554.122 361.311 552.766 359.177C551.409 357.042 550.601 354.577 550.421 352.019C550.24 349.46 550.693 346.897 551.735 344.576C552.864 345.37 553.832 346.389 554.586 347.574C555.594 349.169 556.208 351.017 557.393 352.486C559.598 355.204 563.374 356.095 566.795 355.936C570.217 355.776 573.511 354.753 576.932 354.42C577.408 354.38 577.883 354.347 578.364 354.334C577.659 357.483 575.994 360.305 573.621 362.372C571.249 364.439 568.298 365.638 565.218 365.786Z" fill="black"/>
<path opacity="0.1" d="M530.815 389.801C528.396 389.92 525.989 389.386 523.823 388.252C521.657 387.118 519.804 385.42 518.441 383.322C517.078 381.223 516.249 378.793 516.035 376.263C515.821 373.733 516.228 371.188 517.218 368.87C518.387 369.675 519.403 370.701 520.215 371.895C521.317 373.523 522.002 375.397 523.294 376.906C525.683 379.698 529.7 380.682 533.324 380.589C536.834 380.509 540.211 379.605 543.702 379.326C542.843 382.251 541.145 384.828 538.838 386.703C536.532 388.578 533.729 389.66 530.815 389.801Z" fill="black"/>
<path opacity="0.1" d="M537.816 418.668C536.173 422.085 533.339 424.706 529.901 425.985C526.464 427.265 522.689 427.106 519.361 425.54C516.033 423.974 513.408 421.122 512.033 417.578C510.658 414.034 510.639 410.07 511.979 406.511C513.147 407.315 514.196 408.296 515.089 409.422C516.439 411.144 517.326 413.098 518.891 414.7C521.786 417.684 526.462 418.914 530.625 419.027C533.026 419.055 535.427 418.935 537.816 418.668Z" fill="black"/>
<path d="M502.424 440.583C502.424 440.583 513.607 440.224 516.996 437.704C520.386 435.185 534.204 432.181 535.041 436.216C535.877 440.25 551.849 456.302 539.222 456.409C526.595 456.515 509.881 454.348 506.517 452.194C503.153 450.041 502.424 440.583 502.424 440.583Z" fill="#656380"/>
<path opacity="0.2" d="M539.425 455.033C526.798 455.139 510.084 452.965 506.72 450.819C504.186 449.177 503.14 443.308 502.798 440.596H502.424C502.424 440.596 503.134 450.061 506.498 452.208C509.862 454.355 526.576 456.528 539.203 456.422C542.846 456.422 544.107 455.033 544.037 453.019C543.53 454.222 542.143 454.979 539.425 455.033Z" fill="black"/>
<path d="M204.644 28.4881L193.082 36.1785L200.102 22.7852C198.121 21.1235 195.668 20.202 193.132 20.1664H192.942C192.14 20.1781 191.339 20.1159 190.547 19.9803L186.626 22.5858L188.305 19.382C185.529 18.3647 183.13 16.4551 181.449 13.925L174.436 18.5778L178.871 10.1231C174.765 4.9585 169.24 1.78798 163.152 1.78798C155.859 1.78798 149.365 6.34104 145.171 13.4332C143.93 15.5537 142.178 17.2926 140.09 18.4739C138.003 19.6551 135.655 20.2367 133.285 20.1597H132.892C124.839 20.1597 118.32 29.7377 118.32 41.5557C118.32 53.3737 124.846 62.9451 132.892 62.9451C134.659 62.9397 136.399 62.4835 137.961 61.6157C143.213 58.751 150.106 58.6978 155.606 61.2568C157.964 62.3694 160.519 62.9474 163.104 62.9531C165.689 62.9589 168.247 62.3922 170.609 61.29C176.07 58.7842 182.881 58.8374 188.102 61.649C189.651 62.5087 191.374 62.9647 193.126 62.9783C201.179 62.9783 207.698 53.4003 207.698 41.589C207.746 37.0221 206.696 32.5162 204.644 28.4881Z" fill="#F2F2F2"/>
<path opacity="0.03" d="M182.843 59.7879C178.636 58.9487 174.286 59.4439 170.349 61.2103C167.988 62.3114 165.431 62.8776 162.847 62.8719C160.263 62.8662 157.709 62.2887 155.352 61.1771C149.847 58.618 142.953 58.6712 137.701 61.536C136.139 62.4037 134.4 62.86 132.632 62.8653C125.479 62.8653 119.53 55.3013 118.288 45.3311C119.717 44.2391 120.931 42.8666 121.862 41.2899C126.081 34.2044 132.55 29.638 139.842 29.638C147.135 29.638 153.553 34.1379 157.747 41.1503C158.999 43.269 160.751 45.0129 162.833 46.2135C164.915 47.414 167.257 48.0304 169.633 48.0031H169.798C175.5 48.0098 180.442 52.8021 182.843 59.7879Z" fill="black"/>
<path d="M506.904 44.148L501.157 47.9832L504.661 41.3364C503.671 40.497 502.442 40.029 501.17 40.007H501.081C500.68 40.0129 500.279 39.9818 499.884 39.914L497.926 41.2433L498.749 39.6082C497.365 39.1022 496.168 38.1509 495.328 36.8897L491.831 39.2161L494.042 35.002C493.111 33.7422 491.925 32.7153 490.57 31.9957C489.214 31.276 487.723 30.8817 486.205 30.8411C482.562 30.8411 479.324 33.1143 477.233 36.6504C476.612 37.7036 475.736 38.5658 474.695 39.1494C473.653 39.7331 472.483 40.0175 471.303 39.9738H471.107C467.09 39.9738 463.833 44.7528 463.833 50.6087C463.833 56.4645 467.09 61.2768 471.107 61.2768C471.99 61.2735 472.86 61.0455 473.641 60.6121C475.008 59.9153 476.503 59.5384 478.022 59.5074C479.542 59.4764 481.05 59.7921 482.441 60.4326C483.619 60.9826 484.894 61.2668 486.183 61.2668C487.472 61.2668 488.746 60.9826 489.924 60.4326C491.305 59.8049 492.799 59.4961 494.305 59.527C495.81 59.558 497.291 59.928 498.648 60.6121C499.429 61.0457 500.299 61.2738 501.182 61.2768C505.199 61.2768 508.456 56.5044 508.456 50.6087C508.462 48.3528 507.928 46.1313 506.904 44.148Z" fill="#F2F2F2"/>
<path opacity="0.03" d="M496.038 59.7613C493.94 59.3457 491.773 59.5933 489.81 60.4725C488.632 61.0224 487.358 61.3066 486.068 61.3066C484.779 61.3066 483.505 61.0224 482.327 60.4725C480.934 59.8318 479.426 59.5161 477.905 59.5471C476.385 59.5781 474.889 59.955 473.521 60.652C472.74 61.0871 471.87 61.3153 470.986 61.3166C467.413 61.3166 464.448 57.5479 463.827 52.5761C464.537 52.0362 465.144 51.3595 465.614 50.5821C467.704 47.046 470.948 44.7794 474.585 44.7794C478.222 44.7794 481.421 47.0194 483.512 50.5156C484.136 51.5732 485.01 52.4435 486.049 53.0422C487.088 53.6408 488.257 53.9474 489.442 53.9321H489.537C492.382 53.8855 494.821 56.2784 496.038 59.7613Z" fill="black"/>
<path d="M129.465 143.478L138.753 149.646L133.127 138.911C134.722 137.579 136.695 136.842 138.734 136.818H138.879C139.516 136.828 140.152 136.779 140.78 136.671L143.916 138.758L142.554 136.193C144.776 135.373 146.697 133.844 148.047 131.819L153.667 135.555L150.157 128.782C153.445 124.647 157.874 122.135 162.746 122.135C168.594 122.135 173.796 125.777 177.16 131.44C178.151 133.137 179.552 134.529 181.221 135.476C182.89 136.423 184.767 136.89 186.664 136.831H186.98C193.43 136.831 198.657 144.501 198.657 153.966C198.657 163.431 193.43 171.108 186.98 171.108C185.56 171.103 184.162 170.735 182.906 170.038C180.711 168.919 178.31 168.314 175.869 168.264C173.428 168.215 171.007 168.723 168.771 169.752C166.878 170.64 164.827 171.099 162.752 171.099C160.678 171.099 158.627 170.64 156.734 169.752C154.514 168.744 152.115 168.247 149.697 168.297C147.279 168.346 144.899 168.94 142.719 170.038C141.476 170.717 140.097 171.075 138.696 171.082C132.24 171.082 127.013 163.411 127.013 153.94C126.982 150.292 127.825 146.695 129.465 143.478Z" fill="#F2F2F2"/>
<path opacity="0.03" d="M146.919 168.556C150.291 167.889 153.774 168.287 156.93 169.699C158.824 170.587 160.875 171.046 162.949 171.046C165.023 171.046 167.074 170.587 168.968 169.699C171.204 168.67 173.627 168.162 176.069 168.211C178.51 168.26 180.912 168.866 183.109 169.985C184.362 170.682 185.758 171.049 187.177 171.055C192.911 171.055 197.675 165 198.67 157.01C197.526 156.132 196.553 155.031 195.806 153.767C192.442 148.09 187.24 144.461 181.392 144.461C175.544 144.461 170.412 148.064 167.048 153.687C166.047 155.381 164.647 156.776 162.982 157.736C161.317 158.697 159.444 159.191 157.545 159.171H157.399C152.799 159.124 148.846 162.966 146.919 168.556Z" fill="black"/>
</svg>