<svg width="421" height="278" viewBox="0 0 421 278" fill="none" xmlns="http://www.w3.org/2000/svg">
<g clip-path="url(#clip0)">
<path d="M291.691 125.688L294.309 124.662C294.559 124.564 294.806 124.457 295.069 124.355C290.224 122.571 286.13 119.191 283.461 114.772C280.791 110.353 279.705 105.157 280.381 100.039C281.056 94.9202 283.453 90.1839 287.178 86.6087C290.902 83.0334 295.733 80.8319 300.874 80.3662L299.051 89.5613L305.974 80.4726H306.034C312.01 81.2941 317.415 84.4556 321.061 89.2617C324.706 94.0678 326.293 100.125 325.473 106.101C325.416 106.53 325.325 106.948 325.245 107.37C327.377 105.687 329.375 103.829 330.873 101.671C333.912 97.2859 334.942 91.8829 335.991 85.2677C338.069 72.1665 339.942 58.921 341.629 45.6831C336.449 44.1201 331.996 40.7606 329.071 36.2085C326.146 31.6563 324.94 26.21 325.671 20.8486C325.766 20.1571 325.899 19.4845 326.051 18.8196C326.089 18.6524 326.127 18.4852 326.169 18.3219C326.332 17.6797 326.514 17.049 326.727 16.422C326.761 16.3194 326.807 16.2245 326.841 16.1257C327.031 15.6051 327.221 15.0922 327.468 14.6058C327.552 14.4158 327.635 14.2258 327.723 14.0473C327.985 13.5039 328.262 12.972 328.566 12.4552C328.669 12.2842 328.779 12.1208 328.882 11.9499C329.117 11.5699 329.364 11.1899 329.619 10.8366C329.755 10.6466 329.888 10.4566 330.029 10.2704L330.132 10.1222C333.358 5.89961 337.962 2.94108 343.143 1.76098C348.324 0.580875 353.756 1.25383 358.492 3.66285L356.121 15.6279L362.961 6.64557C366.639 9.76227 369.225 13.9735 370.341 18.6642C371.457 23.355 371.043 28.2795 369.162 32.7187H369.188C369.124 32.8707 369.044 33.0151 368.979 33.167C368.854 33.4482 368.725 33.7256 368.599 34.003C368.424 34.3563 368.219 34.7021 368.048 35.0441C367.904 35.3024 367.763 35.5608 367.607 35.804C367.383 36.184 367.14 36.5259 366.897 36.8793C366.753 37.0845 366.62 37.2973 366.471 37.4986C366.091 38.0268 365.666 38.5321 365.233 39.0185C365.081 39.1895 364.917 39.3453 364.758 39.5124C364.45 39.8392 364.142 40.1622 363.815 40.47C363.614 40.6599 363.401 40.8499 363.192 41.0247C362.892 41.2907 362.584 41.5491 362.269 41.7846C362.045 41.9632 361.817 42.1342 361.589 42.3014C361.258 42.5408 360.924 42.7649 360.586 42.9891C360.358 43.1373 360.13 43.2855 359.898 43.4261C359.518 43.6578 359.119 43.8706 358.72 44.0796C358.519 44.1822 358.34 44.2962 358.116 44.395C357.516 44.6876 356.9 44.9573 356.273 45.1967C356.155 45.2423 356.03 45.2765 355.912 45.3183C355.388 45.5083 354.86 45.6983 354.324 45.8312C354.092 45.8958 353.857 45.949 353.621 46.006C353.184 46.1124 352.743 46.2112 352.299 46.2948C352.045 46.3404 351.783 46.3822 351.512 46.4202C351.075 46.4848 350.634 46.5342 350.19 46.5722C349.928 46.595 349.669 46.6178 349.403 46.633C348.925 46.6558 348.442 46.6596 347.96 46.6558C347.928 46.6539 347.896 46.6539 347.865 46.6558C347.15 52.2286 346.4 57.8014 345.615 63.3742C347.458 60.8865 349.789 58.8015 352.466 57.247C355.144 55.6925 358.11 54.7013 361.184 54.3341C364.258 53.9669 367.374 54.2316 370.342 55.1118C373.31 55.992 376.067 57.4693 378.444 59.453L372.486 69.5524L382.065 63.2488C385.687 68.0422 387.258 74.0769 386.435 80.028C386.154 82.1175 385.578 84.1566 384.725 86.0846C382.896 90.2592 379.855 93.7878 375.996 96.2126C372.137 98.6373 367.639 99.8462 363.084 99.6823C358.53 99.5185 354.13 97.9895 350.455 95.2937C346.78 92.598 344 88.8599 342.477 84.5648C342.389 85.1271 342.306 85.7047 342.218 86.2594C341.291 92.0918 340.14 99.353 336.051 105.258C333.282 109.27 329.467 112.234 325.758 114.84C323.347 116.537 320.88 118.155 318.357 119.692C315.708 122.148 312.513 123.938 309.036 124.913C304.983 126.988 300.843 128.863 296.615 130.54L293.974 131.574C291.599 132.501 289.168 133.451 286.755 134.462C287.135 134.496 287.515 134.526 287.895 134.576C292.676 135.232 297.124 137.391 300.598 140.741C304.072 144.091 306.391 148.459 307.22 153.213L291.144 161.994L307.17 161.276C306.529 164.829 305.04 168.176 302.831 171.033C299.207 175.724 293.895 178.816 288.026 179.649C282.157 180.482 276.195 178.991 271.408 175.494L272.206 176.98C272.738 177.96 273.262 178.936 273.772 179.905C280.736 193.105 281.242 204.504 275.196 212.008L270.257 208.038C276.143 200.735 271.473 189.127 268.167 182.858C267.666 181.908 267.149 180.958 266.647 179.985C262.175 171.69 257.103 162.29 259.135 152.286C262.175 137.201 278.533 130.818 291.691 125.688Z" fill="#F2F2F2"/>
<path d="M102.438 197.205L100.394 196.403C100.196 196.327 100.014 196.24 99.8089 196.164C103.591 194.769 106.787 192.129 108.87 188.678C110.953 185.226 111.801 181.169 111.273 177.172C110.745 173.176 108.874 169.477 105.966 166.685C103.058 163.893 99.287 162.173 95.2722 161.808L96.697 168.989L91.2939 161.891H91.2446C88.9321 162.207 86.7044 162.975 84.689 164.152C82.6735 165.329 80.9097 166.892 79.4982 168.751C78.0868 170.609 77.0555 172.728 76.4631 174.986C75.8708 177.243 75.729 179.595 76.046 181.908C76.0916 182.246 76.1638 182.569 76.2246 182.899C74.5482 181.639 73.068 180.137 71.8322 178.442C69.465 175.023 68.6519 170.798 67.8312 165.634C66.2239 155.401 64.7649 145.059 63.454 134.731C67.4982 133.509 70.9737 130.884 73.256 127.329C75.5383 123.773 76.4777 119.52 75.9054 115.334C75.8294 114.795 75.7268 114.27 75.6052 113.75L75.514 113.37C75.3849 112.868 75.2443 112.374 75.0771 111.896C75.0505 111.816 75.0163 111.74 74.9859 111.664C74.8377 111.257 74.6743 110.858 74.4995 110.467C74.4311 110.323 74.3665 110.174 74.2981 110.03C74.093 109.608 73.8764 109.194 73.6408 108.791C73.561 108.654 73.4736 108.525 73.3938 108.411C73.2077 108.115 73.0139 107.822 72.8163 107.541C72.7099 107.393 72.6073 107.241 72.4971 107.097L72.4173 106.983C69.8977 103.685 66.3034 101.374 62.2579 100.449C58.2124 99.525 53.9709 100.046 50.2692 101.922L52.1235 111.269L46.7774 104.254C43.9046 106.689 41.8851 109.977 41.0136 113.641C40.1421 117.304 40.4642 121.15 41.9328 124.617H41.9138C41.9632 124.735 42.024 124.849 42.0772 124.966C42.176 125.187 42.2748 125.403 42.3812 125.62C42.518 125.893 42.6624 126.163 42.8143 126.429C42.9245 126.634 43.0347 126.836 43.1563 127.033C43.3311 127.318 43.5363 127.596 43.7111 127.873C43.825 128.033 43.9276 128.2 44.0454 128.356C44.3494 128.766 44.6724 129.161 45.0105 129.545C45.1283 129.678 45.2575 129.799 45.3905 129.925C45.6299 130.179 45.873 130.43 46.1276 130.685C46.2834 130.837 46.4506 130.977 46.614 131.118C46.8496 131.328 47.0889 131.53 47.3321 131.722C47.5069 131.859 47.6855 131.992 47.8641 132.125C48.1224 132.311 48.3846 132.505 48.6468 132.661C48.8254 132.778 49.004 132.892 49.1863 133.003C49.4865 133.185 49.7943 133.348 50.1058 133.512C50.2654 133.595 50.4174 133.683 50.577 133.762C51.0482 133.99 51.5269 134.199 52.0171 134.386C52.1083 134.424 52.2071 134.446 52.2982 134.481C52.7048 134.629 53.119 134.766 53.5407 134.883C53.7193 134.933 53.9207 134.975 54.0879 135.016C54.4298 135.1 54.7718 135.18 55.1214 135.244L55.7331 135.343C56.0751 135.393 56.4208 135.431 56.7666 135.461C56.9718 135.48 57.1732 135.495 57.3822 135.507C57.7621 135.526 58.1421 135.529 58.5221 135.526H58.5942C59.1515 139.888 59.7367 144.246 60.3497 148.6C58.9132 146.654 57.0942 145.023 55.0044 143.806C52.9146 142.588 50.5981 141.811 48.197 141.521C45.796 141.232 43.361 141.436 41.0417 142.121C38.7224 142.807 36.5677 143.959 34.7097 145.507L39.3225 153.35L31.8448 148.429C30.4422 150.282 29.4183 152.393 28.8315 154.641C28.2448 156.89 28.1067 159.232 28.4251 161.534C28.6457 163.168 29.0973 164.762 29.7664 166.268C31.1947 169.528 33.5697 172.284 36.5834 174.178C39.5971 176.071 43.1103 177.015 46.6672 176.887C50.2241 176.76 53.6605 175.566 56.5306 173.461C59.4006 171.356 61.5718 168.437 62.7624 165.083C62.8308 165.52 62.8954 165.964 62.9638 166.405C63.6858 170.965 64.5863 176.634 67.778 181.254C69.9438 184.385 72.9227 186.699 75.818 188.736C77.7026 190.063 79.629 191.33 81.5973 192.535C83.6666 194.453 86.1617 195.852 88.8774 196.616C92.0387 198.235 95.276 199.709 98.5817 201.009L100.641 201.818C102.495 202.54 104.395 203.281 106.268 204.071C105.972 204.098 105.672 204.12 105.372 204.162C101.64 204.674 98.1665 206.358 95.4538 208.971C92.7412 211.585 90.9292 214.993 90.2794 218.703L102.818 225.543L90.3022 224.984C90.8532 227.937 92.1434 230.701 94.0523 233.02C95.9611 235.339 98.4265 237.136 101.218 238.244C104.01 239.352 107.037 239.735 110.016 239.356C112.995 238.978 115.83 237.85 118.256 236.079C118.047 236.459 117.842 236.839 117.633 237.238C117.219 237.998 116.809 238.758 116.41 239.518C110.972 249.826 110.577 258.733 115.3 264.595L119.149 261.495C114.552 255.796 118.199 246.726 120.783 241.828C121.163 241.087 121.577 240.339 121.984 239.586C125.476 233.127 129.435 225.767 127.858 217.951C125.498 206.195 112.713 201.225 102.438 197.205Z" fill="#F2F2F2"/>
<path d="M210.5 277.822C326.756 277.822 421 273.824 421 268.893C421 263.961 326.756 259.964 210.5 259.964C94.2441 259.964 0 263.961 0 268.893C0 273.824 94.2441 277.822 210.5 277.822Z" fill="#3F3D56"/>
<path opacity="0.1" d="M210.5 277.822C326.756 277.822 421 273.824 421 268.893C421 263.961 326.756 259.964 210.5 259.964C94.2441 259.964 0 263.961 0 268.893C0 273.824 94.2441 277.822 210.5 277.822Z" fill="black"/>
<path d="M210.5 272.882C326.756 272.882 421 268.885 421 263.953C421 259.022 326.756 255.024 210.5 255.024C94.2441 255.024 0 259.022 0 263.953C0 268.885 94.2441 272.882 210.5 272.882Z" fill="#3F3D56"/>
<path d="M32.2969 260.777C31.157 258.683 32.4489 256.118 33.9232 254.249C35.3974 252.38 37.1947 250.449 37.1567 248.059C37.1035 244.64 33.471 242.622 30.5719 240.81C28.4208 239.464 26.4363 237.868 24.6597 236.056C23.917 235.358 23.3024 234.535 22.8434 233.625C22.2431 232.287 22.2621 230.767 22.3001 229.301C22.4267 224.422 22.6674 219.548 23.022 214.68" stroke="#3F3D56" stroke-width="4" stroke-miterlimit="10"/>
<path d="M17.5201 214.41C17.5612 213.517 17.8263 212.65 18.2912 211.887C18.756 211.124 19.4056 210.49 20.1799 210.044L21.373 212.404L21.3388 209.546C21.9077 209.377 22.5013 209.305 23.0942 209.334C24.1441 209.385 25.1552 209.746 25.9999 210.372C26.8447 210.997 27.4852 211.859 27.8406 212.848C28.196 213.837 28.2503 214.91 27.9968 215.93C27.7433 216.95 27.1932 217.872 26.4161 218.58C25.639 219.287 24.6696 219.749 23.6303 219.906C22.591 220.064 21.5284 219.909 20.5767 219.463C19.6249 219.017 18.8267 218.299 18.2827 217.4C17.7387 216.5 17.4733 215.46 17.5201 214.41V214.41Z" fill="#6C63FF"/>
<path d="M27.0306 250.506C27.5605 251.561 28.4262 252.41 29.4913 252.918C30.5564 253.427 31.7604 253.567 32.9138 253.316C34.0672 253.066 35.1045 252.438 35.8623 251.533C36.6201 250.629 37.0554 249.497 37.0997 248.318C37.1376 247.581 37.0198 246.844 36.7539 246.156C36.3717 245.137 35.6864 244.261 34.7905 243.644C33.8946 243.027 32.831 242.699 31.7432 242.705C30.6554 242.712 29.5957 243.051 28.7069 243.678C27.818 244.306 27.1428 245.19 26.7723 246.213L30.1046 248.922L26.4417 248.071C26.4396 248.918 26.6417 249.754 27.0306 250.506V250.506Z" fill="#6C63FF"/>
<path d="M29.6638 240.152C30.9926 240.253 32.3107 239.851 33.3574 239.026C34.4041 238.201 35.1031 237.014 35.3161 235.698C35.5292 234.383 35.2407 233.035 34.5078 231.922C33.7749 230.81 32.651 230.012 31.3584 229.688L31.385 231.888L30.1767 229.498C28.7634 229.432 27.3817 229.93 26.3357 230.883C25.2896 231.836 24.6649 233.165 24.5989 234.578C24.5329 235.992 25.031 237.373 25.9837 238.419C26.9364 239.465 28.2656 240.09 29.679 240.156L29.6638 240.152Z" fill="#6C63FF"/>
<path d="M16.7184 231.539C17.417 231.572 18.1152 231.467 18.7732 231.23C19.4312 230.993 20.0361 230.629 20.5533 230.158C21.0706 229.687 21.49 229.119 21.7878 228.486C22.0855 227.854 22.2558 227.168 22.2887 226.47C22.3216 225.771 22.2166 225.073 21.9797 224.415C21.7428 223.757 21.3786 223.152 20.908 222.635C20.4373 222.118 19.8693 221.698 19.2366 221.401C18.6038 221.103 17.9185 220.933 17.22 220.9C16.2227 220.85 15.2319 221.085 14.3626 221.576L15.3049 224.16L13.3633 222.298C12.3249 223.249 11.7059 224.573 11.6421 225.98C11.6163 226.471 11.6624 226.964 11.7789 227.443C12.0441 228.57 12.67 229.58 13.5615 230.319C14.453 231.058 15.5614 231.487 16.7184 231.539V231.539Z" fill="#6C63FF"/>
<path opacity="0.1" d="M18.2382 215.831C19.4693 215.968 20.6662 216.351 21.9011 216.427C23.136 216.503 24.4924 216.207 25.2752 215.25C25.6969 214.729 25.9059 214.075 26.2593 213.513C26.5977 212.988 27.0595 212.554 27.6043 212.248C27.9261 212.92 28.1029 213.653 28.1232 214.398C28.1435 215.144 28.007 215.885 27.7224 216.574C27.4378 217.263 27.0115 217.885 26.4712 218.398C25.9309 218.912 25.2887 219.307 24.5861 219.556C23.8836 219.806 23.1364 219.905 22.3931 219.847C21.6498 219.789 20.9269 219.576 20.2714 219.22C19.6159 218.865 19.0423 218.376 18.588 217.785C18.1337 217.194 17.8087 216.514 17.6341 215.789C17.8355 215.797 18.0369 215.812 18.2382 215.831Z" fill="black"/>
<path opacity="0.1" d="M16.7184 231.539C17.6381 231.585 18.5542 231.392 19.3769 230.979C20.1997 230.565 20.9011 229.945 21.4123 229.179C21.9236 228.413 22.2273 227.528 22.2936 226.609C22.36 225.691 22.1868 224.771 21.7909 223.939C21.3676 224.225 21.0037 224.59 20.7194 225.015C20.3394 225.588 20.1077 226.249 19.6631 226.778C18.831 227.754 17.4137 228.073 16.1256 228.013C14.8376 227.952 13.5951 227.591 12.326 227.473C12.1474 227.473 11.9688 227.443 11.7903 227.439C12.0542 228.565 12.6781 229.575 13.5674 230.314C14.4567 231.054 15.5629 231.484 16.7184 231.539V231.539Z" fill="black"/>
<path opacity="0.1" d="M29.6638 240.152C30.5752 240.199 31.4834 240.011 32.301 239.605C33.1185 239.199 33.818 238.59 34.332 237.836C34.8461 237.082 35.1575 236.208 35.2363 235.299C35.3151 234.39 35.1586 233.476 34.7819 232.644C34.3388 232.932 33.9524 233.299 33.642 233.727C33.2278 234.312 32.9694 234.985 32.5021 235.524C31.6054 236.528 30.0931 236.881 28.7291 236.847C27.365 236.812 26.1377 236.493 24.823 236.395C25.1439 237.444 25.7813 238.368 26.6479 239.041C27.5145 239.713 28.5679 240.102 29.6638 240.152V240.152Z" fill="black"/>
<path opacity="0.1" d="M27.0306 250.506C27.5605 251.561 28.4262 252.41 29.4912 252.918C30.5563 253.427 31.7604 253.567 32.9138 253.316C34.0672 253.066 35.1044 252.438 35.8623 251.534C36.6201 250.629 37.0554 249.497 37.0997 248.318C37.1376 247.581 37.0198 246.844 36.7539 246.156C36.3146 246.443 35.9202 246.794 35.5836 247.197C35.0744 247.816 34.7439 248.515 34.1549 249.097C33.0644 250.168 31.3052 250.617 29.7398 250.651C28.8347 250.654 27.9302 250.606 27.0306 250.506V250.506Z" fill="black"/>
<path d="M40.3484 258.368C40.3484 258.368 36.1384 258.239 34.8731 257.334C33.6078 256.43 28.4137 255.351 28.0832 256.802C27.7526 258.254 21.7568 264.022 26.5101 264.045C31.2635 264.067 37.5519 263.285 38.8171 262.525C40.0824 261.765 40.3484 258.368 40.3484 258.368Z" fill="#656380"/>
<path opacity="0.2" d="M26.4227 263.539C31.176 263.577 37.4644 262.779 38.7335 262.019C39.6948 261.434 40.0786 259.325 40.2078 258.353H40.3483C40.3483 258.353 40.0824 261.746 38.8285 262.532C37.5746 263.319 31.271 264.082 26.5215 264.052C25.1498 264.052 24.6748 263.554 24.7014 262.829C24.88 263.258 25.4044 263.539 26.4227 263.539Z" fill="black"/>
<path d="M400.862 264.196C399.722 262.103 401.014 259.538 402.488 257.669C403.962 255.799 405.76 253.869 405.722 251.479C405.669 248.059 402.036 246.042 399.137 244.229C396.986 242.883 395.001 241.288 393.225 239.476C392.482 238.778 391.867 237.955 391.408 237.044C390.808 235.707 390.827 234.187 390.865 232.72C390.989 227.842 391.23 222.968 391.587 218.099" stroke="#3F3D56" stroke-width="4" stroke-miterlimit="10"/>
<path d="M386.085 217.83C386.126 216.937 386.391 216.069 386.856 215.306C387.321 214.543 387.971 213.91 388.745 213.464L389.938 215.823L389.904 212.966C390.473 212.797 391.066 212.725 391.659 212.753C392.709 212.805 393.72 213.167 394.564 213.793C395.408 214.419 396.048 215.281 396.403 216.27C396.757 217.259 396.811 218.332 396.557 219.351C396.304 220.371 395.753 221.293 394.976 222C394.199 222.708 393.229 223.169 392.19 223.326C391.151 223.483 390.089 223.329 389.137 222.882C388.186 222.436 387.388 221.718 386.844 220.819C386.3 219.92 386.035 218.879 386.081 217.83H386.085Z" fill="#6C63FF"/>
<path d="M395.596 253.926C396.126 254.981 396.991 255.829 398.056 256.338C399.121 256.847 400.325 256.987 401.479 256.736C402.632 256.485 403.669 255.858 404.427 254.953C405.185 254.048 405.62 252.917 405.665 251.737C405.703 251.001 405.585 250.264 405.319 249.575C404.937 248.557 404.251 247.68 403.355 247.063C402.46 246.446 401.396 246.119 400.308 246.125C399.22 246.131 398.161 246.471 397.272 247.098C396.383 247.725 395.708 248.61 395.337 249.632L398.67 252.342L395.007 251.49C395.005 252.338 395.207 253.173 395.596 253.926V253.926Z" fill="#6C63FF"/>
<path d="M398.229 243.572C399.558 243.673 400.876 243.271 401.922 242.446C402.969 241.621 403.668 240.434 403.881 239.118C404.094 237.803 403.806 236.455 403.073 235.342C402.34 234.229 401.216 233.432 399.923 233.108L399.95 235.308L398.742 232.918C397.328 232.852 395.947 233.35 394.901 234.303C393.855 235.255 393.23 236.585 393.164 237.998C393.098 239.411 393.596 240.793 394.549 241.839C395.501 242.885 396.831 243.51 398.244 243.576L398.229 243.572Z" fill="#6C63FF"/>
<path d="M385.283 234.958C386.694 235.025 388.074 234.528 389.118 233.578C390.163 232.627 390.787 231.3 390.854 229.89C390.92 228.479 390.424 227.099 389.473 226.055C388.522 225.01 387.196 224.386 385.785 224.319C384.788 224.27 383.797 224.504 382.928 224.996L383.87 227.579L381.928 225.718C380.89 226.669 380.271 227.993 380.207 229.399C380.181 229.891 380.227 230.384 380.344 230.862C380.609 231.99 381.235 233 382.126 233.739C383.018 234.478 384.126 234.906 385.283 234.958V234.958Z" fill="#6C63FF"/>
<path opacity="0.1" d="M386.803 219.251C388.034 219.387 389.231 219.771 390.466 219.847C391.701 219.923 393.057 219.627 393.84 218.669C394.262 218.149 394.471 217.495 394.824 216.933C395.163 216.408 395.625 215.973 396.169 215.668C396.491 216.34 396.668 217.073 396.688 217.818C396.709 218.563 396.572 219.305 396.287 219.994C396.003 220.683 395.577 221.304 395.036 221.818C394.496 222.332 393.854 222.726 393.151 222.976C392.449 223.225 391.701 223.324 390.958 223.267C390.215 223.209 389.492 222.995 388.836 222.64C388.181 222.285 387.607 221.796 387.153 221.205C386.699 220.614 386.374 219.934 386.199 219.209C386.401 219.216 386.602 219.232 386.803 219.251Z" fill="black"/>
<path opacity="0.1" d="M385.283 234.958C386.203 235.005 387.119 234.812 387.942 234.398C388.765 233.985 389.466 233.365 389.977 232.599C390.489 231.833 390.792 230.947 390.859 230.029C390.925 229.11 390.752 228.19 390.356 227.359C389.933 227.645 389.569 228.01 389.284 228.434C388.904 229.008 388.673 229.669 388.228 230.197C387.396 231.174 385.979 231.493 384.691 231.432C383.403 231.371 382.16 231.01 380.891 230.893C380.712 230.893 380.534 230.862 380.355 230.858C380.619 231.985 381.243 232.994 382.132 233.734C383.022 234.474 384.128 234.904 385.283 234.958V234.958Z" fill="black"/>
<path opacity="0.1" d="M398.229 243.572C399.14 243.619 400.048 243.43 400.866 243.025C401.684 242.619 402.383 242.01 402.897 241.256C403.411 240.502 403.722 239.628 403.801 238.719C403.88 237.809 403.724 236.895 403.347 236.064C402.904 236.352 402.517 236.719 402.207 237.147C401.793 237.732 401.534 238.405 401.067 238.944C400.17 239.947 398.658 240.301 397.294 240.266C395.93 240.232 394.703 239.913 393.388 239.814C393.709 240.863 394.346 241.787 395.213 242.46C396.08 243.133 397.133 243.521 398.229 243.572V243.572Z" fill="black"/>
<path opacity="0.1" d="M395.596 253.926C396.126 254.981 396.991 255.829 398.056 256.338C399.121 256.847 400.325 256.987 401.479 256.736C402.632 256.485 403.669 255.858 404.427 254.953C405.185 254.048 405.62 252.917 405.665 251.738C405.703 251.001 405.585 250.264 405.319 249.576C404.88 249.863 404.485 250.214 404.149 250.617C403.639 251.236 403.309 251.935 402.72 252.516C401.629 253.588 399.87 254.036 398.305 254.07C397.4 254.074 396.495 254.026 395.596 253.926V253.926Z" fill="black"/>
<path d="M408.913 261.788C408.913 261.788 404.703 261.658 403.438 260.754C402.173 259.85 396.979 258.771 396.648 260.222C396.318 261.674 390.322 267.441 395.075 267.464C399.828 267.487 406.117 266.704 407.382 265.944C408.647 265.184 408.913 261.788 408.913 261.788Z" fill="#656380"/>
<path opacity="0.2" d="M394.988 266.959C399.741 266.997 406.029 266.199 407.298 265.439C408.26 264.854 408.643 262.745 408.773 261.772H408.913C408.913 261.772 408.647 265.165 407.393 265.952C406.14 266.738 399.836 267.502 395.086 267.472C393.715 267.472 393.24 266.974 393.266 266.248C393.445 266.678 393.969 266.959 394.988 266.959Z" fill="black"/>
<path d="M283.29 125.825C280.777 124.964 278.244 124.166 275.69 123.431C276.111 121.711 276.502 119.982 276.864 118.245C282.617 90.3136 278.856 67.8121 266.009 60.4066C253.69 53.3013 233.545 60.7106 213.194 78.4131C211.188 80.166 209.228 81.9645 207.316 83.8086C206.032 82.5801 204.727 81.3756 203.402 80.1952C182.082 61.2616 160.725 53.2861 147.874 60.7144C135.567 67.8387 131.916 88.9913 137.102 115.463C137.609 118.085 138.19 120.692 138.846 123.283C135.826 124.142 132.904 125.057 130.107 126.034C105.109 134.731 89.1433 148.41 89.1433 162.579C89.1433 177.211 106.284 191.889 132.322 200.788C134.435 201.505 136.563 202.171 138.706 202.787C138.012 205.573 137.394 208.382 136.852 211.214C131.912 237.227 135.773 257.881 148.045 264.96C160.725 272.278 182.003 264.755 202.718 246.646C204.356 245.213 205.997 243.694 207.658 242.105C209.73 244.104 211.856 246.044 214.037 247.926C234.107 265.196 253.934 272.172 266.191 265.07C278.855 257.741 282.97 235.551 277.628 208.558C277.223 206.496 276.75 204.393 276.211 202.247C277.708 201.806 279.172 201.349 280.603 200.875C307.672 191.908 325.287 177.409 325.287 162.579C325.287 148.357 308.804 134.606 283.301 125.825H283.29Z" fill="#53C1DE"/>
<path d="M277.419 191.3C276.127 191.73 274.805 192.14 273.452 192.543C270.152 182.311 266.157 172.316 261.495 162.628C265.979 153.07 269.819 143.222 272.989 133.151C275.402 133.85 277.75 134.587 280.007 135.366C301.858 142.885 315.188 154.007 315.188 162.579C315.188 171.698 300.791 183.557 277.419 191.3ZM267.723 210.519C270.086 222.454 270.42 233.245 268.862 241.676C267.457 249.256 264.63 254.31 261.134 256.335C253.69 260.64 237.778 255.043 220.615 240.274C218.646 238.579 216.667 236.774 214.676 234.859C221.831 226.937 228.444 218.541 234.468 209.729C245.229 208.817 255.915 207.167 266.45 204.789C266.931 206.735 267.358 208.634 267.73 210.489L267.723 210.519ZM169.646 255.598C162.374 258.166 156.583 258.239 153.084 256.221C145.636 251.924 142.54 235.323 146.765 213.095C147.271 210.468 147.845 207.855 148.486 205.256C158.977 207.509 169.609 209.049 180.308 209.865C186.509 218.647 193.28 227.012 200.579 234.905C199.112 236.326 197.613 237.708 196.08 239.05C186.919 247.06 177.736 252.729 169.646 255.598V255.598ZM135.586 191.243C124.07 187.307 114.563 182.193 108.043 176.615C102.188 171.599 99.2314 166.618 99.2314 162.579C99.2314 153.98 112.051 143.011 133.428 135.56C136.113 134.625 138.822 133.773 141.556 133.003C144.731 143.185 148.576 153.147 153.065 162.822C148.52 172.636 144.628 182.74 141.415 193.067C139.454 192.507 137.511 191.899 135.586 191.243ZM147.004 113.526C142.566 90.8456 145.511 73.7358 152.928 69.4498C160.827 64.8902 178.294 71.3952 196.707 87.7451C197.885 88.79 199.067 89.8843 200.249 91.0128C193.002 98.8576 186.283 107.174 180.137 115.908C169.539 116.858 159.013 118.494 148.627 120.806C148.021 118.394 147.48 115.969 147.004 113.529V113.526ZM248.876 138.675C246.569 134.688 244.176 130.752 241.699 126.866C249.234 127.82 256.449 129.081 263.228 130.632C261.052 137.532 258.53 144.318 255.67 150.963C253.489 146.822 251.225 142.726 248.876 138.675ZM207.324 98.2207C212.234 103.574 216.872 109.172 221.219 114.992C211.92 114.554 202.617 114.554 193.31 114.992C197.897 108.943 202.597 103.32 207.324 98.2245V98.2207ZM165.527 138.744C163.21 142.764 160.987 146.835 158.859 150.956C155.922 143.991 153.41 137.14 151.359 130.525C158.095 129.005 165.28 127.786 172.766 126.847C170.253 130.758 167.838 134.724 165.52 138.744H165.527ZM172.979 199.025C165.672 198.232 158.412 197.064 151.226 195.526C153.312 188.796 155.88 181.798 158.882 174.681C161.017 178.807 163.248 182.88 165.573 186.9C167.939 191.001 170.405 195.043 172.971 199.025H172.979ZM207.608 227.648C202.821 222.503 198.052 216.804 193.402 210.644C197.923 210.824 202.528 210.914 207.217 210.914C212.03 210.914 216.781 210.808 221.47 210.595C217.141 216.513 212.512 222.204 207.601 227.648H207.608ZM255.746 174.32C258.754 181.1 261.407 188.033 263.695 195.089C256.42 196.726 249.064 197.98 241.657 198.846C244.152 194.887 246.569 190.881 248.907 186.828C251.283 182.709 253.563 178.54 255.746 174.32ZM240.168 181.79C236.591 188.001 232.815 194.093 228.841 200.066C221.834 200.568 214.596 200.826 207.217 200.826C199.838 200.826 192.721 200.598 185.837 200.15C181.761 194.197 177.912 188.096 174.289 181.847C170.667 175.598 167.31 169.255 164.217 162.818C167.325 156.351 170.672 150.006 174.259 143.782C177.841 137.561 181.657 131.481 185.707 125.544C192.733 125.012 199.929 124.735 207.21 124.735C214.49 124.735 221.732 125.016 228.75 125.548C232.754 131.467 236.554 137.523 240.149 143.714C243.743 149.905 247.136 156.221 250.328 162.663C247.174 169.152 243.791 175.523 240.179 181.775L240.168 181.79ZM260.978 69.1458C268.885 73.7054 271.959 92.0957 266.993 116.212C266.666 117.78 266.312 119.344 265.929 120.904C255.527 118.546 244.98 116.88 234.358 115.916C228.271 107.174 221.603 98.8517 214.398 91.0052C216.172 89.2979 217.981 87.6374 219.828 86.0238C237.261 70.8519 253.554 64.8636 260.978 69.1458Z" fill="white"/>
<path d="M207.21 141.491C211.38 141.491 215.457 142.728 218.925 145.045C222.393 147.362 225.096 150.656 226.692 154.509C228.288 158.362 228.706 162.602 227.892 166.693C227.079 170.784 225.07 174.541 222.121 177.49C219.172 180.44 215.414 182.448 211.324 183.262C207.233 184.075 202.993 183.658 199.139 182.062C195.286 180.466 191.993 177.763 189.675 174.295C187.358 170.827 186.122 166.75 186.122 162.579C186.121 159.809 186.666 157.067 187.726 154.508C188.785 151.95 190.339 149.625 192.297 147.666C194.255 145.708 196.58 144.155 199.139 143.095C201.698 142.036 204.44 141.49 207.21 141.491" fill="#53C1DE"/>
<path d="M212.499 7.75126C212.499 8.99875 212.129 10.2182 211.436 11.2555C210.743 12.2927 209.757 13.1011 208.605 13.5785C207.452 14.0559 206.184 14.1808 204.961 13.9375C203.737 13.6941 202.613 13.0934 201.731 12.2113C200.849 11.3292 200.248 10.2053 200.005 8.98177C199.762 7.75826 199.887 6.49005 200.364 5.33752C200.841 4.185 201.65 3.19992 202.687 2.50685C203.724 1.81378 204.944 1.44386 206.191 1.44386C207.021 1.43983 207.843 1.60023 208.61 1.91578C209.377 2.23133 210.074 2.69578 210.66 3.28228C211.247 3.86878 211.711 4.5657 212.027 5.33277C212.342 6.09983 212.503 6.92183 212.499 7.75126V7.75126Z" fill="#3F3D56"/>
<path d="M201.153 9.34331C200.653 8.43982 200.382 7.4275 200.364 6.39505C200.346 5.3626 200.582 4.34151 201.05 3.42124C201.519 2.50097 202.206 1.7096 203.051 1.11646C203.896 0.52331 204.874 0.146488 205.899 0.0190012C205.03 -0.0114307 204.164 0.138137 203.355 0.458311C202.547 0.778486 201.813 1.26235 201.201 1.87952C200.588 2.49669 200.11 3.23384 199.796 4.04467C199.482 4.8555 199.339 5.7225 199.376 6.59122C199.413 7.45994 199.63 8.31163 200.011 9.09278C200.393 9.87394 200.933 10.5677 201.595 11.1305C202.258 11.6933 203.03 12.113 203.863 12.3632C204.696 12.6134 205.571 12.6887 206.434 12.5844C205.35 12.5443 204.293 12.225 203.368 11.6572C202.443 11.0894 201.68 10.2924 201.153 9.34331V9.34331Z" fill="#3F3D56"/>
<path d="M215.204 16.536H198.307V42.8941H215.204V16.536Z" fill="#3F3D56"/>
<path opacity="0.1" d="M215.204 16.536H198.307V42.8941H215.204V16.536Z" fill="black"/>
<path d="M171.614 112.165C171.614 112.165 169.81 117.124 165.535 117.8C161.26 118.477 158.776 119.601 158.776 119.601L168.913 126.133L174.32 125.456C174.32 125.456 174.996 118.473 177.249 116.896C179.503 115.319 171.614 112.165 171.614 112.165Z" fill="#A0616A"/>
<path d="M244.826 112.165C244.826 112.165 246.631 117.124 250.905 117.8C255.18 118.477 257.665 119.601 257.665 119.601L247.528 126.133L242.121 125.456C242.121 125.456 241.444 118.473 239.191 116.896C236.938 115.319 244.826 112.165 244.826 112.165Z" fill="#A0616A"/>
<path d="M195.491 68.4619C195.491 68.4619 192.79 69.8146 191.889 72.5199C191.889 72.5199 186.95 74.0967 184.229 78.3751C184.229 78.3751 180.848 81.981 180.399 83.782C179.951 85.5831 174.783 96.3968 174.783 96.3968C174.783 96.3968 169.601 113.294 166.899 115.095C166.899 115.095 175.46 113.294 177.037 121.854C177.037 121.854 179.062 121.854 181.315 113.97C183.568 106.086 188.975 96.3968 188.975 96.3968C188.975 96.3968 190.776 89.6411 192.353 88.5126C193.93 87.3841 196.407 82.2052 198.66 83.573C200.914 84.9409 215.782 83.3451 215.782 83.3451C215.782 83.3451 224.559 87.3879 224.779 90.0894C224.999 92.791 226.58 93.0189 226.804 95.2721C227.028 97.5253 235.365 115.319 235.365 115.319C235.365 115.319 236.942 120.259 237.394 121.398C237.394 121.398 242.333 109.46 248.884 116.22C248.884 116.22 248.656 111.713 246.631 109C244.606 106.287 235.817 85.1233 235.817 85.1233C235.817 85.1233 234.916 81.9696 234.016 81.0691C233.115 80.1686 226.128 72.9569 223.651 72.9569C223.651 72.9569 222.302 69.579 220.725 69.1268L195.491 68.4619Z" fill="#3F3D56"/>
<path d="M175.217 123.88C173.457 124.586 171.545 124.825 169.666 124.572C167.786 124.32 166.005 123.585 164.494 122.44C163.026 121.312 161.418 120.38 159.71 119.666C157.32 118.701 154.463 117.986 153.593 119.601C152.016 122.531 172.739 129.739 172.739 129.739C172.739 129.739 175.445 128.162 175.217 123.88Z" fill="#3F3D56"/>
<path d="M241.224 123.88C242.983 124.586 244.896 124.825 246.775 124.572C248.654 124.32 250.436 123.585 251.946 122.44C253.415 121.312 255.022 120.38 256.73 119.666C259.12 118.701 261.978 117.986 262.848 119.601C264.425 122.531 243.701 129.739 243.701 129.739C243.701 129.739 240.996 128.162 241.224 123.88Z" fill="#3F3D56"/>
<path d="M202.855 31.4116C202.772 32.1943 202.513 33.0416 201.844 33.4558C201.297 33.7978 200.606 33.7712 199.975 33.9004C199.313 34.0662 198.699 34.3854 198.183 34.8322C197.666 35.2791 197.263 35.841 197.004 36.4727C196.498 37.7476 196.398 39.1477 196.719 40.4813C196.868 41.1345 197.061 41.7768 197.296 42.404C197.957 44.2734 198.755 46.1276 199.99 47.6816C201.044 48.9171 202.229 50.0344 203.524 51.0139C204.326 51.6675 205.154 52.3324 206.142 52.6402C206.812 52.817 207.501 52.9089 208.194 52.9138C209.049 52.9517 209.96 52.9783 210.701 52.5528C211.841 51.8954 212.179 50.444 212.799 49.2775C213.323 48.2896 214.106 47.4499 214.596 46.443C214.944 45.6493 215.199 44.818 215.356 43.9656L216.408 39.2921C216.788 37.5936 217.138 35.6786 216.184 34.2233C216.115 34.1049 216.019 34.0047 215.903 33.9308C215.72 33.8584 215.52 33.8387 215.326 33.8738C214.114 33.9525 212.906 33.6766 211.849 33.0796C211.683 32.994 211.535 32.878 211.412 32.7377C211.26 32.4943 211.169 32.2181 211.146 31.9322C211.043 31.3531 210.88 30.7864 210.66 30.2413C210.597 30.0448 210.483 29.8689 210.329 29.7322C210.167 29.6308 209.984 29.5695 209.793 29.5536C208.167 29.2897 206.526 29.1184 204.88 29.0406C204.341 29.014 203.528 28.7975 203.155 29.2762C202.783 29.755 202.901 30.8417 202.855 31.4116Z" fill="#A0616A"/>
<path opacity="0.1" d="M202.855 31.4116C202.772 32.1943 202.513 33.0416 201.844 33.4558C201.297 33.7978 200.606 33.7712 199.975 33.9004C199.313 34.0662 198.699 34.3854 198.183 34.8322C197.666 35.2791 197.263 35.841 197.004 36.4727C196.498 37.7476 196.398 39.1477 196.719 40.4813C196.868 41.1345 197.061 41.7768 197.296 42.404C197.957 44.2734 198.755 46.1276 199.99 47.6816C201.044 48.9171 202.229 50.0344 203.524 51.0139C204.326 51.6675 205.154 52.3324 206.142 52.6402C206.812 52.817 207.501 52.9089 208.194 52.9138C209.049 52.9517 209.96 52.9783 210.701 52.5528C211.841 51.8954 212.179 50.444 212.799 49.2775C213.323 48.2896 214.106 47.4499 214.596 46.443C214.944 45.6493 215.199 44.818 215.356 43.9656L216.408 39.2921C216.788 37.5936 217.138 35.6786 216.184 34.2233C216.115 34.1049 216.019 34.0047 215.903 33.9308C215.72 33.8584 215.52 33.8387 215.326 33.8738C214.114 33.9525 212.906 33.6766 211.849 33.0796C211.683 32.994 211.535 32.878 211.412 32.7377C211.26 32.4943 211.169 32.2181 211.146 31.9322C211.043 31.3531 210.88 30.7864 210.66 30.2413C210.597 30.0448 210.483 29.8689 210.329 29.7322C210.167 29.6308 209.984 29.5695 209.793 29.5536C208.167 29.2897 206.526 29.1184 204.88 29.0406C204.341 29.014 203.528 28.7975 203.155 29.2762C202.783 29.755 202.901 30.8417 202.855 31.4116Z" fill="black"/>
<path d="M199.804 34.0979C198.924 33.8352 198.013 33.692 197.095 33.6724C194.921 33.6192 192.596 34.3677 191.342 36.1422C190.488 37.423 190.175 38.9897 190.472 40.5003C190.775 41.9968 191.455 43.3911 192.448 44.5508C193.022 45.1603 193.531 45.8275 193.968 46.5418C194.568 47.6817 194.587 49.0457 194.75 50.3414C195.13 53.4267 196.445 56.3258 196.966 59.3921C197.486 62.4585 197.038 66.0111 194.618 67.9603C194.211 68.2871 193.717 68.6329 193.683 69.1534C193.63 69.9855 194.713 70.3389 195.545 70.4187C198.033 70.6543 200.587 70.886 203.003 70.2439C204.003 69.9779 204.968 69.5638 205.986 69.3738C208.57 68.8912 211.169 69.8829 213.756 70.3579C215.629 70.667 217.524 70.8208 219.422 70.8177C219.863 70.8571 220.308 70.7988 220.725 70.6467C220.931 70.5657 221.107 70.4212 221.225 70.2341C221.344 70.0469 221.4 69.8268 221.386 69.6056C221.302 69.3191 221.147 69.0581 220.938 68.8456C219.631 67.2308 219.232 65.084 218.874 63.036L217.678 56.1548C217.035 52.4768 216.439 48.4796 218.179 45.1777C219.429 42.8029 221.736 41.1311 223.054 38.7943C223.514 38.088 223.721 37.2472 223.643 36.4081C223.445 35.234 222.385 34.3943 221.299 33.9042C219.208 32.9662 216.834 32.879 214.68 33.661C214.718 35.3062 214.3 36.9705 214.03 38.6005L213.57 41.2603C213.336 42.8277 212.992 44.3767 212.54 45.8958C212.376 46.5036 212.096 47.0738 211.716 47.5753C211.31 48.0264 210.814 48.3875 210.261 48.6354C209.061 49.2218 207.743 49.5234 206.408 49.5169C205.83 49.5258 205.254 49.4371 204.706 49.2547C203.822 48.8672 203.025 48.3065 202.361 47.6057C202.129 47.4069 201.921 47.1812 201.742 46.9331C201.553 46.6173 201.41 46.2756 201.32 45.9186C201.012 44.9893 200.77 44.0396 200.594 43.0765C200.48 42.3394 200.442 41.5908 200.389 40.8461C200.241 38.6461 200.241 36.2143 199.804 34.0979Z" fill="#6C63FF"/>
<path d="M197.52 77.6988C197.52 77.6988 196.62 89.6411 202.251 91.6663C207.882 93.6915 202.927 81.753 202.927 81.753L201.122 78.151L197.52 77.6988Z" fill="#A0616A"/>
<path d="M216.667 77.6988C216.667 77.6988 217.567 89.6411 211.936 91.6663C206.305 93.6915 211.26 81.753 211.26 81.753L213.065 78.151L216.667 77.6988Z" fill="#A0616A"/>
<path opacity="0.1" d="M192.562 37.8406L190.761 40.7701C190.761 40.7701 192.338 50.9076 192.562 52.7086C192.756 54.0082 193.059 55.2893 193.466 56.5386C193.466 56.5386 193.69 61.9455 193.69 63.9745C193.69 66.0035 194.83 69.3814 194.83 69.3814C194.989 71.2965 195.372 73.1863 195.97 75.0125C196.871 77.4898 197.771 80.4193 197.771 80.4193C197.771 80.4193 198.911 77.2656 203.402 81.9962C203.905 81.4858 204.187 80.7979 204.187 80.0812C204.187 79.3645 203.905 78.6766 203.402 78.1662C203.402 78.1662 202.053 72.0867 202.053 68.9292C202.053 65.7717 199.572 50.691 199.572 50.691C199.572 50.691 197.961 33.547 192.562 37.8406Z" fill="black"/>
<path d="M192.114 37.6012L190.313 40.5308C190.313 40.5308 191.889 50.6682 192.114 52.4692C192.309 53.769 192.612 55.0502 193.022 56.2993C193.022 56.2993 193.246 61.7061 193.246 63.7313C193.246 65.7566 194.386 69.1382 194.386 69.1382C194.544 71.0534 194.926 72.9434 195.526 74.7693C196.426 77.2505 197.33 80.1762 197.33 80.1762C197.33 80.1762 198.47 77.0225 202.962 81.753C203.463 81.2428 203.745 80.5557 203.745 79.8399C203.745 79.1242 203.463 78.4371 202.962 77.9268C202.962 77.9268 201.609 71.8474 201.609 68.6899C201.609 65.5324 199.131 50.4516 199.131 50.4516C199.131 50.4516 197.52 33.319 192.114 37.6012Z" fill="#6C63FF"/>
<path opacity="0.1" d="M221.85 36.0244L222.989 37.3656C222.989 37.3656 224.315 45.0333 221.386 54.7224L220.485 63.5072C220.485 63.5072 218.909 70.943 218.684 72.7441C218.46 74.5451 218.46 74.7693 218.008 75.4456C217.871 75.6038 217.795 75.8062 217.795 76.0156C217.795 76.2249 217.871 76.4273 218.008 76.5855L216.655 81.525C216.655 81.525 214.63 79.0477 210.576 82.2014C210.576 82.2014 209.436 80.4003 210.348 78.8235C211.26 77.2466 211.249 76.5703 211.024 76.1182C210.8 75.666 211.925 73.4166 211.925 72.9645C211.925 72.5123 213.513 62.1583 213.513 62.1583C213.513 62.1583 214.189 52.0208 214.866 48.643C215.28 46.5646 215.272 41.9328 215.2 38.6727C215.128 35.2758 219.239 33.4368 221.66 35.823C221.717 35.8838 221.785 35.9408 221.85 36.0244Z" fill="black"/>
<path d="M222.526 35.5608L223.666 36.9021C223.666 36.9021 224.992 44.5736 222.062 54.2588L221.162 63.0436C221.162 63.0436 219.585 70.4795 219.361 72.2805C219.137 74.0816 219.133 74.3095 218.684 74.9859C218.547 75.1437 218.471 75.3462 218.471 75.5558C218.471 75.7654 218.547 75.9679 218.684 76.1258L217.339 81.0805C217.339 81.0805 215.314 78.5993 211.26 81.753C211.26 81.753 210.12 79.952 211.036 78.3751C211.951 76.7983 211.936 76.122 211.712 75.6736C211.488 75.2252 212.613 72.9682 212.613 72.5199C212.613 72.0715 214.189 61.7061 214.189 61.7061C214.189 61.7061 214.866 51.5687 215.542 48.187C216.218 44.8053 215.766 34.6717 215.766 34.6717C215.766 34.6717 219.372 32.1943 222.526 35.5608Z" fill="#6C63FF"/>
<path d="M207.43 32.4223C212.407 32.4223 216.443 28.3872 216.443 23.4096C216.443 18.432 212.407 14.3968 207.43 14.3968C202.452 14.3968 198.417 18.432 198.417 23.4096C198.417 28.3872 202.452 32.4223 207.43 32.4223Z" fill="#A0616A"/>
<path opacity="0.1" d="M212.13 9.87906C211.697 11.0884 210.905 12.1366 209.859 12.8835C208.814 13.6304 207.566 14.0403 206.281 14.0585C204.997 14.0767 203.738 13.7022 202.672 12.9852C201.606 12.2682 200.784 11.2428 200.317 10.0462C203.835 8.62898 207.43 9.89046 207.43 9.89046C209.227 9.25972 210.785 9.31672 212.13 9.87906Z" fill="black"/>
<path d="M207.43 10.3426C207.43 10.3426 190.085 4.26319 194.367 33.7712C194.367 33.7712 198.197 36.2486 201.122 34.6717C201.122 34.6717 199.097 14.1727 206.982 15.0732C214.866 15.9737 213.513 34.2233 213.513 34.2233C213.513 34.2233 218.019 35.5722 219.372 33.0835C220.725 30.5947 218.92 6.3036 207.43 10.3426Z" fill="#3F3D56"/>
<path opacity="0.1" d="M206.982 13.7205C201.571 13.105 200.826 22.5623 200.902 28.5581C200.967 22.5965 201.97 14.4994 206.982 15.0732C212.609 15.7153 213.532 25.203 213.597 30.5757C213.661 25.6438 213.122 14.4234 206.982 13.7205Z" fill="black"/>
<path opacity="0.1" d="M194.367 32.4185C193.975 29.8355 193.75 27.2299 193.694 24.6179C193.675 27.682 193.9 30.7427 194.367 33.7712C194.367 33.7712 198.197 36.2486 201.122 34.6717C201.122 34.6717 201.077 34.1854 201.024 33.3684C198.109 34.8389 194.367 32.4185 194.367 32.4185Z" fill="black"/>
<path opacity="0.1" d="M219.372 31.7612C218.111 34.0714 214.117 33.0569 213.578 32.9011C213.551 33.737 213.513 34.2385 213.513 34.2385C213.513 34.2385 218.019 35.5874 219.372 33.0987C219.649 32.5895 219.794 31.1494 219.752 29.223C219.714 30.4579 219.581 31.3812 219.372 31.7612Z" fill="black"/>
<path d="M314.128 255.701C315.929 252.364 313.884 248.276 311.536 245.301C309.188 242.326 306.319 239.221 306.38 235.422C306.468 229.969 312.251 226.755 316.875 223.863C320.302 221.72 323.464 219.178 326.294 216.291C327.434 215.132 328.524 213.893 329.189 212.411C330.147 210.283 330.12 207.852 330.059 205.526C329.859 197.747 329.479 189.978 328.92 182.219" stroke="#3F3D56" stroke-width="4" stroke-miterlimit="10"/>
<path d="M337.689 181.809C337.624 180.386 337.202 179.002 336.46 177.785C335.719 176.569 334.684 175.559 333.449 174.848L331.549 178.61L331.606 174.05C329.878 173.539 328.032 173.59 326.335 174.197C324.637 174.803 323.177 175.933 322.164 177.424C321.151 178.915 320.639 180.689 320.7 182.49C320.761 184.291 321.393 186.026 322.505 187.445C323.617 188.863 325.151 189.891 326.886 190.381C328.62 190.87 330.465 190.796 332.155 190.168C333.844 189.541 335.29 188.392 336.285 186.889C337.279 185.386 337.769 183.605 337.685 181.805L337.689 181.809Z" fill="#6C63FF"/>
<path d="M322.536 239.332C321.645 241.065 320.184 242.439 318.4 243.224C316.615 244.008 314.615 244.155 312.735 243.64C310.855 243.125 309.21 241.979 308.074 240.395C306.939 238.81 306.383 236.883 306.5 234.937C306.617 232.992 307.399 231.145 308.716 229.708C310.032 228.27 311.803 227.329 313.731 227.043C315.659 226.756 317.627 227.141 319.305 228.133C320.983 229.126 322.269 230.665 322.947 232.492L317.627 236.812L323.467 235.456C323.47 236.804 323.151 238.132 322.536 239.332V239.332Z" fill="#6C63FF"/>
<path d="M318.338 222.83C316.258 222.918 314.219 222.24 312.606 220.925C310.993 219.61 309.919 217.749 309.587 215.694C309.255 213.64 309.688 211.535 310.804 209.778C311.921 208.022 313.642 206.736 315.644 206.165L315.598 209.668L317.521 205.868H317.543C318.663 205.808 319.784 205.97 320.841 206.344C321.898 206.719 322.87 207.299 323.702 208.051C324.534 208.803 325.208 209.712 325.687 210.726C326.166 211.74 326.44 212.838 326.492 213.959C326.544 215.079 326.375 216.198 325.992 217.252C325.61 218.307 325.023 219.275 324.265 220.101C323.507 220.928 322.593 221.596 321.576 222.067C320.559 222.539 319.458 222.804 318.338 222.849V222.83Z" fill="#6C63FF"/>
<path d="M338.97 209.102C337.655 209.163 336.344 208.919 335.14 208.387C333.936 207.856 332.872 207.053 332.032 206.04C331.191 205.027 330.597 203.833 330.297 202.552C329.996 201.271 329.997 199.938 330.3 198.657C330.603 197.376 331.198 196.183 332.041 195.172C332.883 194.161 333.948 193.359 335.153 192.829C336.358 192.3 337.669 192.058 338.983 192.121C340.298 192.185 341.579 192.553 342.727 193.196L341.208 197.311L344.297 194.348C345.533 195.482 346.407 196.957 346.806 198.587C347.206 200.217 347.114 201.929 346.542 203.507C345.971 205.085 344.945 206.458 343.594 207.454C342.242 208.449 340.627 209.023 338.951 209.102H338.97Z" fill="#6C63FF"/>
<path opacity="0.1" d="M336.549 184.074C334.585 184.29 332.677 184.902 330.709 185.023C328.741 185.145 326.579 184.674 325.336 183.124C324.664 182.299 324.33 181.258 323.763 180.357C323.226 179.521 322.491 178.83 321.624 178.344C321.076 179.421 320.764 180.603 320.709 181.811C320.654 183.018 320.858 184.224 321.306 185.347C321.754 186.47 322.436 187.484 323.307 188.322C324.178 189.16 325.218 189.803 326.357 190.207C327.496 190.612 328.709 190.768 329.913 190.667C331.118 190.566 332.287 190.208 333.343 189.619C334.398 189.03 335.316 188.222 336.035 187.25C336.754 186.278 337.257 185.164 337.511 183.982C337.188 184.017 336.868 184.039 336.549 184.074Z" fill="black"/>
<path opacity="0.1" d="M338.97 209.102C337.505 209.169 336.047 208.856 334.739 208.194C333.431 207.532 332.316 206.543 331.502 205.323C330.688 204.103 330.204 202.694 330.096 201.231C329.987 199.769 330.259 198.304 330.884 196.977C331.561 197.431 332.142 198.013 332.594 198.691C333.198 199.603 333.567 200.659 334.277 201.499C335.599 203.053 337.864 203.562 339.916 203.471C341.967 203.379 343.943 202.794 345.995 202.604C346.28 202.582 346.565 202.563 346.854 202.555C346.431 204.355 345.432 205.969 344.009 207.15C342.586 208.332 340.817 209.017 338.97 209.102Z" fill="black"/>
<path opacity="0.1" d="M318.338 222.83C316.887 222.898 315.444 222.593 314.145 221.944C312.846 221.296 311.734 220.326 310.917 219.126C310.099 217.926 309.603 216.537 309.474 215.091C309.346 213.645 309.59 212.19 310.183 210.865C310.884 211.325 311.494 211.911 311.981 212.594C312.642 213.525 313.052 214.596 313.827 215.459C315.26 217.054 317.669 217.617 319.842 217.564C321.947 217.518 323.972 217.001 326.066 216.842C325.551 218.514 324.533 219.987 323.149 221.059C321.766 222.131 320.086 222.749 318.338 222.83V222.83Z" fill="black"/>
<path opacity="0.1" d="M322.536 239.332C321.551 241.285 319.851 242.783 317.79 243.515C315.728 244.246 313.464 244.155 311.468 243.26C309.473 242.365 307.899 240.735 307.074 238.709C306.25 236.683 306.238 234.417 307.041 232.382C307.742 232.841 308.371 233.402 308.907 234.046C309.716 235.03 310.248 236.148 311.187 237.063C312.923 238.769 315.727 239.472 318.224 239.537C319.664 239.553 321.104 239.484 322.536 239.332V239.332Z" fill="black"/>
<path d="M301.311 251.859C301.311 251.859 308.018 251.654 310.051 250.214C312.083 248.774 320.37 247.056 320.872 249.363C321.373 251.669 330.952 260.845 323.38 260.906C315.807 260.967 305.784 259.728 303.766 258.497C301.748 257.266 301.311 251.859 301.311 251.859Z" fill="#656380"/>
<path opacity="0.2" d="M323.501 260.119C315.929 260.18 305.905 258.938 303.888 257.711C302.368 256.772 301.741 253.417 301.536 251.867H301.311C301.311 251.867 301.737 257.277 303.755 258.505C305.772 259.732 315.796 260.974 323.368 260.914C325.553 260.914 326.309 260.119 326.267 258.968C325.963 259.656 325.131 260.089 323.501 260.119Z" fill="black"/>
<path d="M122.728 16.2852L115.794 20.6814L120.004 13.0252C118.816 12.0753 117.345 11.5485 115.824 11.5281H115.71C115.229 11.5348 114.749 11.4992 114.274 11.4217L111.922 12.9112L112.929 11.0797C111.265 10.4982 109.826 9.40657 108.818 7.96024L104.612 10.62L107.271 5.78685C104.809 2.83453 101.496 1.0221 97.8445 1.0221C93.4711 1.0221 89.5765 3.62486 87.0611 7.67907C86.3172 8.89127 85.2661 9.88534 84.0143 10.5606C82.7626 11.2359 81.3546 11.5683 79.933 11.5243H79.6974C74.8681 11.5243 70.9583 16.9996 70.9583 23.7553C70.9583 30.5111 74.8719 35.9826 79.6974 35.9826C80.7573 35.9795 81.8005 35.7187 82.7371 35.2226C85.887 33.585 90.021 33.5546 93.3191 35.0175C94.7331 35.6535 96.2654 35.9839 97.8159 35.9872C99.3663 35.9904 100.9 35.6665 102.317 35.0365C105.592 33.604 109.677 33.6344 112.807 35.2416C113.736 35.7331 114.77 35.9938 115.821 36.0016C120.65 36.0016 124.56 30.5263 124.56 23.7743C124.589 21.1637 123.959 18.5879 122.728 16.2852V16.2852Z" fill="#F2F2F2"/>
<path opacity="0.03" d="M109.654 34.1778C107.131 33.698 104.522 33.9811 102.161 34.9909C100.745 35.6203 99.2117 35.944 97.662 35.9407C96.1122 35.9375 94.5806 35.6073 93.1671 34.9719C89.8653 33.509 85.7312 33.5394 82.5813 35.1771C81.6447 35.6731 80.6015 35.9339 79.5416 35.937C75.2518 35.937 71.684 31.613 70.9392 25.9135C71.7962 25.2893 72.524 24.5047 73.0822 23.6034C75.6128 19.5529 79.4922 16.9426 83.8656 16.9426C88.239 16.9426 92.088 19.5149 94.6034 23.5236C95.354 24.7347 96.4045 25.7317 97.6532 26.4179C98.902 27.1042 100.307 27.4566 101.732 27.441H101.83C105.25 27.4448 108.214 30.1843 109.654 34.1778Z" fill="black"/>
<path d="M303.998 25.2372L300.551 27.4296L302.653 23.63C302.059 23.1501 301.322 22.8826 300.559 22.87H300.506C300.265 22.8734 300.025 22.8556 299.788 22.8168L298.614 23.5768L299.108 22.6421C298.277 22.3528 297.559 21.809 297.056 21.088L294.958 22.4179L296.284 20.0089C295.726 19.2888 295.015 18.7017 294.202 18.2903C293.389 17.879 292.495 17.6535 291.584 17.6303C289.4 17.6303 287.458 18.9298 286.204 20.9512C285.831 21.5533 285.306 22.0461 284.681 22.3798C284.057 22.7134 283.355 22.876 282.648 22.851H282.53C280.121 22.851 278.168 25.583 278.168 28.9305C278.168 32.2779 280.121 35.0289 282.53 35.0289C283.06 35.027 283.581 34.8966 284.05 34.6489C284.869 34.2506 285.766 34.0351 286.677 34.0174C287.588 33.9997 288.493 34.1802 289.327 34.5463C290.034 34.8607 290.798 35.0232 291.571 35.0232C292.344 35.0232 293.108 34.8607 293.815 34.5463C294.643 34.1875 295.539 34.0109 296.442 34.0286C297.345 34.0463 298.233 34.2579 299.047 34.6489C299.515 34.8968 300.037 35.0272 300.567 35.0289C302.976 35.0289 304.929 32.3007 304.929 28.9305C304.932 27.6409 304.612 26.371 303.998 25.2372V25.2372Z" fill="#F2F2F2"/>
<path opacity="0.03" d="M297.481 34.1626C296.224 33.925 294.924 34.0665 293.746 34.5691C293.04 34.8835 292.276 35.0459 291.503 35.0459C290.73 35.0459 289.965 34.8835 289.259 34.5691C288.424 34.2029 287.519 34.0224 286.607 34.0401C285.695 34.0578 284.798 34.2733 283.977 34.6717C283.509 34.9204 282.988 35.0509 282.458 35.0517C280.315 35.0517 278.536 32.8973 278.164 30.0551C278.59 29.7465 278.954 29.3597 279.235 28.9152C280.489 26.8938 282.435 25.5982 284.616 25.5982C286.797 25.5982 288.716 26.8786 289.969 28.8773C290.344 29.4818 290.868 29.9794 291.491 30.3216C292.114 30.6638 292.815 30.839 293.526 30.8303H293.583C295.289 30.8037 296.752 32.1715 297.481 34.1626Z" fill="black"/>
<path d="M77.6418 82.019L83.2121 85.5451L79.838 79.4086C80.7947 78.6471 81.9779 78.2259 83.2007 78.2118H83.2881C83.6698 78.2175 84.0512 78.1895 84.428 78.1282L86.3088 79.3213L85.4919 77.8546C86.8243 77.3861 87.9764 76.5117 88.7862 75.3544L92.1564 77.4898L90.0514 73.618C92.0235 71.2546 94.6794 69.8184 97.6013 69.8184C101.108 69.8184 104.228 71.9006 106.246 75.1379C106.84 76.1079 107.68 76.9038 108.681 77.4449C109.682 77.986 110.808 78.2532 111.945 78.2194H112.135C116.003 78.2194 119.138 82.6041 119.138 88.0148C119.138 93.4255 116.003 97.8141 112.135 97.8141C111.283 97.8108 110.445 97.6009 109.692 97.2024C108.375 96.5626 106.935 96.2166 105.471 96.1884C104.008 96.1602 102.555 96.4504 101.215 97.039C100.079 97.5466 98.8491 97.809 97.6051 97.809C96.3611 97.809 95.1312 97.5466 93.9955 97.039C92.6646 96.4625 91.2254 96.1787 89.7753 96.2069C88.3252 96.2351 86.8981 96.5746 85.5907 97.2024C84.8453 97.5903 84.0182 97.7948 83.1779 97.7989C79.3061 97.7989 76.1714 93.4141 76.1714 87.9996C76.1531 85.9144 76.6587 83.858 77.6418 82.019V82.019Z" fill="#F2F2F2"/>
<path opacity="0.03" d="M88.1098 96.355C90.1316 95.9741 92.2209 96.2015 94.1133 97.0086C95.2489 97.5162 96.4789 97.7786 97.7229 97.7786C98.9669 97.7786 100.197 97.5162 101.333 97.0086C102.674 96.42 104.127 96.1297 105.591 96.1579C107.055 96.1861 108.496 96.5321 109.813 97.172C110.565 97.5705 111.402 97.7804 112.253 97.7837C115.691 97.7837 118.549 94.3222 119.145 89.7551C118.459 89.2529 117.876 88.6234 117.428 87.9009C115.41 84.656 112.291 82.5814 108.784 82.5814C105.277 82.5814 102.199 84.6408 100.181 87.8553C99.5809 88.8237 98.741 89.6209 97.7426 90.17C96.7443 90.7191 95.6212 91.0015 94.4818 90.99H94.3944C91.6359 90.9634 89.2649 93.1596 88.1098 96.355Z" fill="black"/>
</g>
<defs>
<clipPath id="clip0">
<rect width="421" height="277.822" fill="white"/>
</clipPath>
</defs>
</svg>