<svg width="60" height="60" viewBox="0 0 60 60" fill="none" xmlns="http://www.w3.org/2000/svg">
<path d="M30 60C46.5685 60 60 46.5685 60 30C60 13.4315 46.5685 0 30 0C13.4315 0 0 13.4315 0 30C0 46.5685 13.4315 60 30 60Z" fill="url(#paint0_linear)"/>
<path d="M12.4856 29.7399L32.6879 21.4162C34.6821 20.5492 41.4451 17.7746 41.4451 17.7746C41.4451 17.7746 44.5665 16.5607 44.3064 19.5087C44.2197 20.7226 43.526 24.9711 42.8324 29.5665L40.6648 43.1792C40.6648 43.1792 40.4914 45.1734 39.0174 45.5203C37.5434 45.8671 35.1156 44.3064 34.6821 43.9596C34.3353 43.6995 28.1792 39.7977 25.9249 37.8902C25.318 37.37 24.6243 36.3295 26.0116 35.1156C29.133 32.2544 32.8613 28.6994 35.1156 26.4451C36.1561 25.4046 37.1966 22.9769 32.8613 25.9249L20.6359 34.1619C20.6359 34.1619 19.2486 35.0289 16.6474 34.2486C14.0463 33.4682 11.0116 32.4278 11.0116 32.4278C11.0116 32.4278 8.93067 31.1272 12.4856 29.7399V29.7399Z" fill="white"/>
<defs>
<linearGradient id="paint0_linear" x1="40.0023" y1="10.0023" x2="25.0023" y2="45" gradientUnits="userSpaceOnUse">
<stop stop-color="#37AEE2"/>
<stop offset="1" stop-color="#1E96C8"/>
</linearGradient>
</defs>
</svg>