<svg width="74" height="60" viewBox="0 0 74 60" fill="none" xmlns="http://www.w3.org/2000/svg">
<path d="M23.2179 60C51.0787 60 66.3146 36.9186 66.3146 16.9033C66.3146 16.2477 66.3013 15.5952 66.2718 14.9454C69.2361 12.8004 71.7946 10.1444 73.8273 7.10194C71.1133 8.30844 68.1927 9.12052 65.1292 9.48668C68.2562 7.6113 70.657 4.64511 71.7897 1.10888C68.8162 2.87285 65.5634 4.11628 62.1714 4.78558C59.4074 1.84145 55.4726 0 51.1151 0C42.7504 0 35.9673 6.78335 35.9673 15.1448C35.9673 16.3335 36.1003 17.4897 36.3602 18.5985C23.7713 17.9651 12.6084 11.9378 5.13762 2.77295C3.79207 5.08432 3.08429 7.71148 3.08658 10.386C3.08658 15.641 5.76068 20.2802 9.82708 22.9942C7.42178 22.9208 5.06924 22.2711 2.96717 21.0997C2.96494 21.1634 2.96494 21.2253 2.96494 21.2932C2.96494 28.6288 8.18605 34.7534 15.1168 36.1412C13.8151 36.4958 12.4719 36.6751 11.1228 36.6743C10.1673 36.6737 9.2141 36.5822 8.27598 36.4011C10.2044 42.4194 15.7961 46.799 22.4256 46.9213C17.2414 50.9848 10.7108 53.4049 3.61303 53.4049C2.39192 53.4049 1.18568 53.3356 0 53.1953C6.70358 57.4921 14.6634 59.9993 23.2186 59.9993" fill="#1DA1F2"/>
</svg>